<?xml version="1.0" encoding="utf-8"?>
<!-- Generator: Adobe Illustrator 18.1.1, SVG Export Plug-In . SVG Version: 6.00 Build 0)  -->
<svg version="1.1" id="Layer_1" xmlns="http://www.w3.org/2000/svg" xmlns:xlink="http://www.w3.org/1999/xlink" x="0px" y="0px"
	 viewBox="0 0 960 560" enable-background="new 0 0 960 560" xml:space="preserve">
<rect x="166" y="28.8" fill="none" width="619.6" height="226.8"/>
<g enable-background="new    ">
	<path fill="#FFFFFF" d="M324.9,188.4H337c0.8,3.1,1.5,6.9,2.2,11.3c0.7,4.4,1.3,9.1,1.8,14.1c0.5,5,0.8,10,1,14.9
		c0.2,4.9,0.3,9.3,0.3,13.2c-6.9,4.3-15.5,7.4-25.8,9.1c-10.3,1.8-20.8,2.6-31.6,2.6c-16.3,0-31-2-44.3-6s-24.5-10.4-33.8-19.1
		c-9.3-8.7-16.5-19.8-21.6-33.3c-5.1-13.4-7.7-29.6-7.7-48.4c0-18.6,2.8-34.7,8.4-48.1c5.6-13.4,13.1-24.5,22.5-33.1
		c9.4-8.6,20.4-15,32.8-19c12.5-4,25.6-6,39.3-6c12.9,0,24.7,0.9,35.2,2.8c10.5,1.9,19.1,4.4,25.8,7.5c0,3.1-0.1,7.2-0.4,12.1
		c-0.3,4.9-0.8,10.1-1.5,15.5c-0.7,5.4-1.5,10.7-2.4,15.9c-0.9,5.2-1.7,9.6-2.5,13.1h-12.4L306.1,63c-1.8-1-4.6-1.8-8.5-2.4
		c-3.9-0.6-7.9-0.9-12.1-0.9c-8,0-15.6,1.6-22.7,4.9C255.8,67.8,249.5,73,244,80c-5.5,7.1-9.8,16.1-12.9,27.2
		c-3.1,11.1-4.7,24.4-4.7,39.9c0,28.1,5.6,49.6,16.8,64.7c11.2,15.1,26.4,22.7,45.6,22.7c5.5,0,10.2-0.4,14-1.3
		c3.8-0.9,6.4-2.1,7.8-3.7L324.9,188.4z"/>
</g>
<g enable-background="new    ">
	<path fill="#FFFFFF" d="M378.5,44.1h96.5v11.2c-4.1,2.2-8.7,4-13.7,5.4c-5,1.5-9.9,2.5-14.6,3.1V231h56.8l19.7-52.7h12.1
		c0.8,4.5,1.5,9.8,2.2,15.9c0.7,6.1,1.2,12.5,1.6,19.1c0.4,6.7,0.7,13.2,0.9,19.7c0.2,6.5,0.2,12.2,0,17.1H378.5V239
		c4.5-2.4,8.8-4.2,12.8-5.6c4-1.4,7.8-2.4,11.3-2.9V63.9c-9.6-1.6-17.7-4.4-24.1-8.5V44.1z"/>
</g>
<g enable-background="new    ">
	<path fill="#FFFFFF" d="M637.5,250.2h-72.7V239c3.1-2,6.5-3.7,10.2-5.2c3.6-1.5,7.2-2.6,10.7-3.4l75.9-189.8h21.8l73.9,189.8
		c3.9,0.8,7.8,1.9,11.8,3.4c3.9,1.5,7.4,3.2,10.3,5.2v11.2h-92.1V239c3.7-1.8,7.7-3.4,12.1-5c4.3-1.6,8.4-2.7,12.4-3.5l-17.1-46.8
		h-65.3l-17.4,46.8c9,1.2,17.6,4,25.6,8.5V250.2z M636.4,164.5h52.1l-19.1-56.2L663.7,83h-0.6l-6.5,25.9L636.4,164.5z"/>
</g>
<g enable-background="new    ">
	<path fill="#FFFFFF" d="M243.7,490.6c0,2.3,0.1,4.2,0.2,5.9c0.1,1.6,0.2,3.4,0.3,5.2l10.6,1.5v3.2c-2.6,1.3-5.4,2.5-8.6,3.5
		c-3.1,1-6.1,1.8-9,2.3h-3.9c-1-2.4-1.6-5-1.8-7.8c-0.2-2.8-0.4-5.9-0.5-9.3h-0.8c-0.4,2.1-1.2,4.1-2.4,6.2c-1.2,2.1-2.7,4-4.6,5.6
		c-1.9,1.6-4.1,3-6.7,4c-2.6,1-5.5,1.5-8.8,1.5c-6.3,0-11.4-1.9-15.3-5.7c-4-3.8-5.9-8.8-5.9-14.9c0-4.7,0.9-8.6,2.9-11.6
		c1.9-3,4.7-5.4,8.4-7.2c3.7-1.7,8.3-3,13.7-3.8c5.4-0.8,11.8-1.4,19-1.8c0.4-4.4,0.5-8.4,0.4-11.9c-0.2-3.5-0.7-6.6-1.7-9.1
		c-1-2.5-2.4-4.5-4.3-5.9c-1.9-1.4-4.4-2.1-7.5-2.1c-1.4,0-3.1,0.1-4.9,0.2c-1.8,0.2-3.6,0.6-5.3,1.3l-7.2,18.5h-4
		c-1-3.1-1.9-6.3-2.7-9.6c-0.8-3.3-1.3-6.5-1.5-9.7c3.9-2.4,8.2-4.2,13-5.5c4.8-1.3,10.1-2,16-2c5.2,0,9.4,0.7,12.6,2.2
		c3.1,1.5,5.5,3.4,7.2,5.8c1.6,2.4,2.7,5,3.2,7.9c0.5,2.9,0.8,5.8,0.8,8.6c0,6.2-0.1,12.1-0.4,17.8
		C243.8,479.9,243.7,485.4,243.7,490.6z M213.9,503.1c2.6,0,4.8-0.5,6.8-1.5c2-1,3.6-2.3,4.9-3.7c1.3-1.4,2.4-2.9,3.2-4.4
		c0.8-1.5,1.4-2.7,1.7-3.8v-16.2c-6,0-10.8,0.3-14.6,0.9c-3.8,0.6-6.8,1.6-8.9,2.9c-2.2,1.3-3.6,3-4.5,5c-0.8,2-1.2,4.3-1.2,6.9
		c0,4.4,1.1,7.8,3.4,10.2C206.9,501.9,210,503.1,213.9,503.1z"/>
	<path fill="#FFFFFF" d="M303.8,493.2c0-2.9-0.9-5.3-2.7-7.3c-1.8-2-4.1-3.9-6.9-5.6c-2.8-1.7-5.7-3.4-8.9-5.1
		c-3.1-1.6-6.1-3.6-8.9-5.8c-2.8-2.2-5.1-4.8-6.9-7.6c-1.8-2.9-2.7-6.4-2.7-10.6c0-2.8,0.6-5.3,1.9-7.7c1.3-2.4,3-4.4,5.2-6.1
		s4.7-3,7.6-4c2.9-1,6-1.5,9.2-1.5c5.5,0,10.1,0.3,13.6,0.9c3.5,0.6,7,1.5,10.2,2.6c-0.4,3.3-0.9,6.6-1.5,9.9
		c-0.6,3.3-1.4,6.8-2.4,10.2H307l-5.9-15.7c-1.2-0.5-2.6-0.8-4.2-1s-3.1-0.2-4.8-0.2c-1.8,0-3.5,0.3-4.9,1c-1.4,0.7-2.6,1.5-3.5,2.5
		c-1,1-1.7,2.2-2.2,3.5c-0.5,1.3-0.8,2.7-0.8,4c0,2.8,0.9,5.2,2.7,7.2c1.8,2,4.1,3.9,6.9,5.5s5.7,3.4,8.9,5c3.1,1.6,6.1,3.5,8.9,5.5
		c2.8,2.1,5.1,4.4,6.9,7.2c1.8,2.7,2.7,6,2.7,9.8c0,3.5-0.7,6.6-2.2,9.4c-1.5,2.8-3.5,5.1-6.2,7.1c-2.6,2-5.7,3.5-9.1,4.5
		c-3.4,1.1-7.1,1.6-11,1.6c-4.4,0-8.5-0.4-12.2-1.2c-3.7-0.8-7.6-1.9-11.6-3.3c0.2-3.7,0.7-7.3,1.4-10.7c0.7-3.4,1.6-6.8,2.8-9.9
		h3.9l6.8,16.8c1.1,0.8,2.5,1.3,4.1,1.4c1.6,0.1,3.1,0.2,4.4,0.2c4.5,0,8.2-1.2,10.9-3.7C302.4,499.7,303.8,496.7,303.8,493.2z"/>
	<path fill="#FFFFFF" d="M370.5,493.2c0-2.9-0.9-5.3-2.7-7.3c-1.8-2-4.1-3.9-6.9-5.6c-2.8-1.7-5.7-3.4-8.9-5.1
		c-3.1-1.6-6.1-3.6-8.9-5.8c-2.8-2.2-5.1-4.8-6.9-7.6c-1.8-2.9-2.7-6.4-2.7-10.6c0-2.8,0.6-5.3,1.9-7.7c1.3-2.4,3-4.4,5.2-6.1
		s4.7-3,7.6-4c2.9-1,6-1.5,9.2-1.5c5.5,0,10.1,0.3,13.6,0.9c3.5,0.6,7,1.5,10.2,2.6c-0.4,3.3-0.9,6.6-1.5,9.9
		c-0.6,3.3-1.4,6.8-2.4,10.2h-3.9l-5.9-15.7c-1.2-0.5-2.6-0.8-4.2-1s-3.1-0.2-4.8-0.2c-1.8,0-3.5,0.3-4.9,1
		c-1.4,0.7-2.6,1.5-3.5,2.5c-1,1-1.7,2.2-2.2,3.5c-0.5,1.3-0.8,2.7-0.8,4c0,2.8,0.9,5.2,2.7,7.2c1.8,2,4.1,3.9,6.9,5.5
		s5.7,3.4,8.9,5c3.1,1.6,6.1,3.5,8.9,5.5c2.8,2.1,5.1,4.4,6.9,7.2c1.8,2.7,2.7,6,2.7,9.8c0,3.5-0.7,6.6-2.2,9.4
		c-1.5,2.8-3.5,5.1-6.2,7.1c-2.6,2-5.7,3.5-9.1,4.5c-3.4,1.1-7.1,1.6-11,1.6c-4.4,0-8.5-0.4-12.2-1.2c-3.7-0.8-7.6-1.9-11.6-3.3
		c0.2-3.7,0.7-7.3,1.4-10.7c0.7-3.4,1.6-6.8,2.8-9.9h3.9l6.8,16.8c1.1,0.8,2.5,1.3,4.1,1.4c1.6,0.1,3.1,0.2,4.4,0.2
		c4.5,0,8.2-1.2,10.9-3.7C369.1,499.7,370.5,496.7,370.5,493.2z"/>
	<path fill="#FFFFFF" d="M432.3,510.8h-34.2v-3.9c1.5-0.8,3.1-1.5,4.8-2.1c1.6-0.6,3.4-1.1,5.4-1.6v-60.6l-10.2-1.2v-4
		c3-1.2,6.2-2.3,9.7-3.2c3.5-0.9,7-1.7,10.5-2.3h3.9v71.4c2.1,0.5,3.9,1.1,5.5,1.6c1.6,0.6,3.2,1.3,4.6,2.1V510.8z M405.3,407.5
		c0-2.8,0.9-5,2.7-6.6c1.8-1.6,4.2-2.5,7.2-2.5c3,0,5.3,0.8,7.1,2.5c1.7,1.6,2.6,3.9,2.6,6.6c0,2.8-0.9,5-2.6,6.5
		c-1.7,1.6-4.1,2.4-7.1,2.4c-3,0-5.4-0.8-7.2-2.4C406.2,412.5,405.3,410.3,405.3,407.5z"/>
	<path fill="#FFFFFF" d="M483.6,493.2c0-2.9-0.9-5.3-2.7-7.3c-1.8-2-4.1-3.9-6.9-5.6c-2.8-1.7-5.7-3.4-8.9-5.1
		c-3.1-1.6-6.1-3.6-8.9-5.8c-2.8-2.2-5.1-4.8-6.9-7.6c-1.8-2.9-2.7-6.4-2.7-10.6c0-2.8,0.6-5.3,1.9-7.7c1.3-2.4,3-4.4,5.2-6.1
		s4.7-3,7.6-4c2.9-1,6-1.5,9.2-1.5c5.5,0,10.1,0.3,13.6,0.9c3.5,0.6,7,1.5,10.2,2.6c-0.4,3.3-0.9,6.6-1.5,9.9
		c-0.6,3.3-1.4,6.8-2.4,10.2h-3.9l-5.9-15.7c-1.2-0.5-2.6-0.8-4.2-1s-3.1-0.2-4.8-0.2c-1.8,0-3.5,0.3-4.9,1
		c-1.4,0.7-2.6,1.5-3.5,2.5c-1,1-1.7,2.2-2.2,3.5c-0.5,1.3-0.8,2.7-0.8,4c0,2.8,0.9,5.2,2.7,7.2c1.8,2,4.1,3.9,6.9,5.5
		s5.7,3.4,8.9,5c3.1,1.6,6.1,3.5,8.9,5.5c2.8,2.1,5.1,4.4,6.9,7.2c1.8,2.7,2.7,6,2.7,9.8c0,3.5-0.7,6.6-2.2,9.4
		c-1.5,2.8-3.5,5.1-6.2,7.1c-2.6,2-5.7,3.5-9.1,4.5c-3.4,1.1-7.1,1.6-11,1.6c-4.4,0-8.5-0.4-12.2-1.2c-3.7-0.8-7.6-1.9-11.6-3.3
		c0.2-3.7,0.7-7.3,1.4-10.7c0.7-3.4,1.6-6.8,2.8-9.9h3.9l6.8,16.8c1.1,0.8,2.5,1.3,4.1,1.4c1.6,0.1,3.1,0.2,4.4,0.2
		c4.5,0,8.2-1.2,10.9-3.7C482.2,499.7,483.6,496.7,483.6,493.2z"/>
	<path fill="#FFFFFF" d="M507.2,437.6c3.9-2.5,8-4.4,12.3-5.4v-13.1c1.3-1,2.9-2,4.7-3c1.8-1,3.6-1.8,5.3-2.5h3.9v20.2h23.1v8h-23.1
		v44.5c0,6.1,1,10.5,2.9,13c2,2.6,4.9,3.8,8.8,3.8c1.8,0,4.2-0.1,6.9-0.4c2.8-0.3,5.1-0.7,7.1-1.5l1.1,2.3c-0.8,0.9-2,1.9-3.5,2.9
		c-1.5,1-3.2,2-5.1,2.9c-1.9,0.9-4,1.7-6.2,2.3c-2.3,0.6-4.6,0.9-6.9,0.9c-6.2,0-10.9-1.7-14.1-5.2c-3.2-3.5-4.9-9.1-4.9-16.9v-48.8
		h-12.3V437.6z"/>
	<path fill="#FFFFFF" d="M625.2,490.6c0,2.3,0,4.2,0.2,5.9c0.1,1.6,0.2,3.4,0.3,5.2l10.6,1.5v3.2c-2.6,1.3-5.4,2.5-8.6,3.5
		c-3.1,1-6.1,1.8-9,2.3h-3.9c-1-2.4-1.6-5-1.8-7.8c-0.2-2.8-0.4-5.9-0.5-9.3h-0.8c-0.4,2.1-1.2,4.1-2.4,6.2c-1.2,2.1-2.7,4-4.6,5.6
		c-1.9,1.6-4.1,3-6.7,4c-2.6,1-5.5,1.5-8.8,1.5c-6.3,0-11.4-1.9-15.3-5.7c-4-3.8-5.9-8.8-5.9-14.9c0-4.7,0.9-8.6,2.9-11.6
		c1.9-3,4.7-5.4,8.4-7.2c3.7-1.7,8.3-3,13.7-3.8c5.4-0.8,11.8-1.4,19-1.8c0.4-4.4,0.5-8.4,0.4-11.9c-0.2-3.5-0.7-6.6-1.7-9.1
		c-1-2.5-2.4-4.5-4.3-5.9c-1.9-1.4-4.4-2.1-7.5-2.1c-1.4,0-3.1,0.1-4.9,0.2c-1.8,0.2-3.6,0.6-5.3,1.3l-7.2,18.5h-4
		c-1-3.1-1.9-6.3-2.7-9.6c-0.8-3.3-1.3-6.5-1.5-9.7c3.9-2.4,8.2-4.2,13-5.5c4.8-1.3,10.1-2,16-2c5.2,0,9.4,0.7,12.6,2.2
		c3.1,1.5,5.5,3.4,7.2,5.8c1.6,2.4,2.7,5,3.2,7.9c0.5,2.9,0.8,5.8,0.8,8.6c0,6.2-0.1,12.1-0.4,17.8
		C625.3,479.9,625.2,485.4,625.2,490.6z M595.5,503.1c2.6,0,4.8-0.5,6.8-1.5c2-1,3.6-2.3,4.9-3.7c1.3-1.4,2.4-2.9,3.2-4.4
		c0.8-1.5,1.4-2.7,1.7-3.8v-16.2c-6,0-10.8,0.3-14.6,0.9c-3.8,0.6-6.8,1.6-8.9,2.9c-2.2,1.3-3.6,3-4.5,5c-0.8,2-1.2,4.3-1.2,6.9
		c0,4.4,1.1,7.8,3.4,10.2C588.5,501.9,591.6,503.1,595.5,503.1z"/>
	<path fill="#FFFFFF" d="M728.8,510.8h-33.1v-3.9c2.8-1.4,5.8-2.7,9.1-3.7v-36.5c0-7.8-1.1-14-3.4-18.5c-2.3-4.5-6.4-6.8-12.3-6.8
		c-2.6,0-5,0.5-7.2,1.4c-2.2,0.9-4.2,2.2-5.9,3.8c-1.7,1.6-3.2,3.4-4.4,5.4c-1.2,2-2.2,4.1-2.9,6.2v45c3.2,0.6,6.3,1.8,9.2,3.7v3.9
		h-33.3v-3.9c2.6-1.3,6-2.6,10.2-3.7v-60.6l-10.2-1.2v-4c2.7-1.1,5.8-2.2,9.2-3.1c3.5-0.9,7.1-1.7,10.9-2.5h3.9v17.3h0.2
		c2.2-4.7,5.3-8.8,9.3-12.2c4.1-3.4,9-5.1,14.7-5.1c4.1,0,7.8,0.5,11,1.5c3.2,1,5.9,2.7,8.1,5.2c2.2,2.5,3.8,5.8,4.9,9.9
		c1.1,4.2,1.7,9.4,1.7,15.8v39c4.1,0.7,7.5,2,10.2,3.7V510.8z"/>
	<path fill="#FFFFFF" d="M733.7,437.6c3.9-2.5,8-4.4,12.3-5.4v-13.1c1.3-1,2.9-2,4.7-3c1.8-1,3.6-1.8,5.3-2.5h3.9v20.2H783v8h-23.1
		v44.5c0,6.1,1,10.5,2.9,13c2,2.6,4.9,3.8,8.8,3.8c1.8,0,4.2-0.1,6.9-0.4c2.8-0.3,5.1-0.7,7.1-1.5l1.1,2.3c-0.8,0.9-2,1.9-3.5,2.9
		c-1.5,1-3.2,2-5.1,2.9c-1.9,0.9-4,1.7-6.2,2.3c-2.3,0.6-4.6,0.9-6.9,0.9c-6.2,0-10.9-1.7-14.1-5.2c-3.2-3.5-4.9-9.1-4.9-16.9v-48.8
		h-12.3V437.6z"/>
</g>
<rect x="178.2" y="335.9" fill="#FFFFFF" width="601.4" height="8"/>
</svg>
