<?xml version="1.0" encoding="utf-8"?>
<!-- Generator: Adobe Illustrator 18.1.1, SVG Export Plug-In . SVG Version: 6.00 Build 0)  -->
<svg version="1.1" id="Layer_1" xmlns="http://www.w3.org/2000/svg" xmlns:xlink="http://www.w3.org/1999/xlink" x="0px" y="0px"
	 viewBox="0 0 324 324" enable-background="new 0 0 324 324" xml:space="preserve">
<path fill="#FFFFFF" d="M162,0C72.5,0,0,72.5,0,162c0,89.5,72.5,162,162,162s162-72.5,162-162C324,72.5,251.5,0,162,0z M285.3,216.4
	c-7.4,3.9-13.9,6.4-19.6,7.8c-3.3,0.8-6.4,1.2-9.3,1.2c-5.8,0-10.7-1.6-14.6-4.8c-8.4-6.7-9.5-20.3-10.7-36
	c-0.4-5.1-1-12.9-2.1-17.5c-3,1.8-7.3,4.9-11,7.6c-4.8,3.5-10.7,7.8-17.7,12.2c-2,1.3-4,2.6-5.9,3.8c-19,12.4-31.6,20.6-43.7,15.4
	c-23.7-10.1-22.5-49-21.4-86.7c0.4-12.3,0.7-23.9,0.2-33.3c-0.5-8.6-1.7-12.5-2.5-14.1c-1.6,0.7-5.1,2.8-11,8.9
	c-5.9,6.1-11.5,13.6-15.6,19c-20.6,27.2-33.2,60.9-36.6,97.4c-0.5,5.8-5.7,10-11.4,9.5c-5.8-0.5-10-5.6-9.5-11.4
	c3.7-40.5,17.9-77.9,40.8-108.2C100,66,117.2,45.7,134.4,51.7c18,6.3,17.1,33.7,16.1,68.4c-0.5,16.3-1,33.1,0.6,46.4
	c1.3,11,4.1,18.2,7.7,20.1c3.8-0.2,15.2-7.6,24.3-13.5c1.9-1.2,3.9-2.5,5.9-3.8c6.4-4.2,11.9-8.1,16.7-11.6
	c13.1-9.5,24.5-17.7,35.4-9.8c8.5,6.1,9.6,19.5,10.9,35c0.5,6.3,1.4,17.9,3.2,21.4c1.3,0.3,6.8,0.6,20.4-6.5
	c5.2-2.7,11.5-0.7,14.2,4.5C292.4,207.4,290.4,213.8,285.3,216.4z"/>
</svg>
