<?xml version="1.0" encoding="utf-8"?>
<!-- Generator: Adobe Illustrator 18.1.1, SVG Export Plug-In . SVG Version: 6.00 Build 0)  -->
<svg version="1.1" id="Layer_1" xmlns="http://www.w3.org/2000/svg" xmlns:xlink="http://www.w3.org/1999/xlink" x="0px" y="0px"
	 viewBox="0 0 589.4 549.6" enable-background="new 0 0 589.4 549.6" xml:space="preserve">
<path fill="#E6E6E6" d="M409.1,518.9H180.7c-24.8,0-45-20.2-45-45V191.6c0-24.8,20.2-45,45-45h228.4c24.8,0,45,20.2,45,45v282.3
	C454.1,498.7,433.9,518.9,409.1,518.9z"/>
<g>
	<path fill="#24669B" d="M387.4,406.9V295.6c0-45.2-4-58.2-63-58.2v35.3c12-3.5,31-3.6,31,23.2V407c-16,7-27.2,24.1-24.8,43.4
		c2.5,19.7,18.9,35.1,38.7,36.2c24.1,1.4,43.8-17.7,43.8-41.5C413.1,428,400.4,413.2,387.4,406.9z M371.8,467.2
		c-12.2,0-22.1-9.9-22.1-22.1s9.9-22.1,22.1-22.1s22.1,9.9,22.1,22.1S383.9,467.2,371.8,467.2z"/>
	<g>
		<path fill="#2C3E50" d="M371.8,423.4c11.9,0,21.7,9.7,21.7,21.7s-9.7,21.7-21.7,21.7s-21.7-9.7-21.7-21.7S359.8,423.4,371.8,423.4
			 M371.8,403.4c-23,0-41.7,18.7-41.7,41.7s18.7,41.7,41.7,41.7c23,0,41.7-18.7,41.7-41.7S394.8,403.4,371.8,403.4L371.8,403.4z"/>
	</g>
	<g>
		<rect x="200.2" y="285.6" fill="#24669B" width="32.7" height="126"/>
		<g>
			<path fill="#2C3E50" d="M216.8,423.4c11.9,0,21.7,9.7,21.7,21.7s-9.7,21.7-21.7,21.7s-21.7-9.7-21.7-21.7
				S204.8,423.4,216.8,423.4 M216.8,403.4c-23,0-41.7,18.7-41.7,41.7s18.7,41.7,41.7,41.7c23,0,41.7-18.7,41.7-41.7
				S239.8,403.4,216.8,403.4L216.8,403.4z"/>
		</g>
		<g>
			<path fill="#2C3E50" d="M216.8,230.4c11.9,0,21.7,9.7,21.7,21.7s-9.7,21.7-21.7,21.7s-21.7-9.7-21.7-21.7
				S204.8,230.4,216.8,230.4 M216.8,210.4c-23,0-41.7,18.7-41.7,41.7s18.7,41.7,41.7,41.7c23,0,41.7-18.7,41.7-41.7
				S239.8,210.4,216.8,210.4L216.8,210.4z"/>
		</g>
	</g>
	<polygon fill="#2C3E50" points="329.4,198.4 329.4,310.4 266.4,254.3 	"/>
</g>
<linearGradient id="SVGID_1_" gradientUnits="userSpaceOnUse" x1="477.0568" y1="308.3824" x2="381.6104" y2="143.0644">
	<stop  offset="0" style="stop-color:#FFFFFF;stop-opacity:0"/>
	<stop  offset="9.537581e-02" style="stop-color:#F0F0F0;stop-opacity:6.676307e-02"/>
	<stop  offset="0.2801" style="stop-color:#C7C7C7;stop-opacity:0.196"/>
	<stop  offset="0.5356" style="stop-color:#868686;stop-opacity:0.3749"/>
	<stop  offset="0.8489" style="stop-color:#2D2D2D;stop-opacity:0.5942"/>
	<stop  offset="1" style="stop-color:#000000;stop-opacity:0.7"/>
</linearGradient>
<polygon fill="url(#SVGID_1_)" points="339,167.7 453.3,322.1 452.7,167.8 "/>
<g>
	<g>
		<g>
			<circle fill="#FFFFFF" cx="440.1" cy="117.9" r="102.4"/>
			<path fill="#39B54A" d="M440.1,5.4c-62,0-112.4,50.4-112.4,112.4s50.4,112.4,112.4,112.4s112.4-50.4,112.4-112.4
				S502.1,5.4,440.1,5.4z M440.1,210.3c-51,0-92.4-41.5-92.4-92.4s41.5-92.4,92.4-92.4s92.4,41.5,92.4,92.4S491,210.3,440.1,210.3z"
				/>
		</g>
	</g>
	<linearGradient id="SVGID_2_" gradientUnits="userSpaceOnUse" x1="500.4052" y1="202.9152" x2="417.1031" y2="119.6131">
		<stop  offset="0" style="stop-color:#FFFFFF;stop-opacity:0"/>
		<stop  offset="9.537581e-02" style="stop-color:#F0F0F0;stop-opacity:6.676307e-02"/>
		<stop  offset="0.2801" style="stop-color:#C7C7C7;stop-opacity:0.196"/>
		<stop  offset="0.5356" style="stop-color:#868686;stop-opacity:0.3749"/>
		<stop  offset="0.8489" style="stop-color:#2D2D2D;stop-opacity:0.5942"/>
		<stop  offset="1" style="stop-color:#000000;stop-opacity:0.7"/>
	</linearGradient>
	<polygon fill="url(#SVGID_2_)" points="405.6,175.1 462.9,223.4 533.9,169.4 450.4,86.3 440.4,172.4 	"/>
	<linearGradient id="SVGID_3_" gradientUnits="userSpaceOnUse" x1="487.5302" y1="213.6236" x2="427.3219" y2="153.4152">
		<stop  offset="0" style="stop-color:#FFFFFF;stop-opacity:0"/>
		<stop  offset="9.537581e-02" style="stop-color:#F0F0F0;stop-opacity:6.676307e-02"/>
		<stop  offset="0.2801" style="stop-color:#C7C7C7;stop-opacity:0.196"/>
		<stop  offset="0.5356" style="stop-color:#868686;stop-opacity:0.3749"/>
		<stop  offset="0.8489" style="stop-color:#2D2D2D;stop-opacity:0.5942"/>
		<stop  offset="1" style="stop-color:#000000;stop-opacity:0.7"/>
	</linearGradient>
	<polygon fill="url(#SVGID_3_)" points="405.6,175.1 462.9,223.4 509.3,191.9 480.5,163.6 	"/>
	<path fill="#009245" d="M524.3,43.5l-7.4,6.7l-7.5,6.7c14.3,16.3,23,37.6,23,60.9c0,51-41.5,92.4-92.4,92.4
		c-26.7,0-50.8-11.4-67.7-29.6l-7.5,6.7l-7.4,6.7c20.6,22.2,49.9,36.2,82.5,36.2c62,0,112.4-50.4,112.4-112.4
		C552.5,89.4,541.8,63.4,524.3,43.5z"/>
	<g>
		<path fill="#009245" d="M405.4,175.4v-12h31.1V98h-31.1V86h45.2v77.4h30.4v12H405.4z M431.5,60.6c0-3.2,1.1-6,3.2-8.3
			c2.1-2.3,4.9-3.5,8.2-3.5c3.5,0,6.3,1.2,8.7,3.5c2.3,2.3,3.5,5.1,3.5,8.3c0,3.1-1.2,5.7-3.5,7.9c-2.3,2.1-5.2,3.2-8.7,3.2
			c-3.3,0-6.1-1.1-8.2-3.2C432.6,66.3,431.5,63.7,431.5,60.6z"/>
	</g>
</g>
</svg>
