<?xml version="1.0" encoding="utf-8"?>
<!-- Generator: Adobe Illustrator 18.1.1, SVG Export Plug-In . SVG Version: 6.00 Build 0)  -->
<svg version="1.1" id="Layer_1" xmlns="http://www.w3.org/2000/svg" xmlns:xlink="http://www.w3.org/1999/xlink" x="0px" y="0px"
	 viewBox="0 0 589.4 549.6" enable-background="new 0 0 589.4 549.6" xml:space="preserve">
<g>
	<path fill="#E6E6E6" d="M503.9,525.4H85.3c-45.2,0-63.6-23.5-63.6-63.8V202.1h545.9v264.5C567.6,505.7,544.5,525.4,503.9,525.4z"/>
	<path fill="#878787" d="M85.4,124.3H504c43.7,0,63.5,13.9,63.5,57.8v20H21.7v-25.5C21.7,136,44.9,124.3,85.4,124.3z"/>
</g>
<g>
	<path fill-rule="evenodd" clip-rule="evenodd" fill="#878787" d="M466.4,244.5c-33.3,0-60.4,27-60.4,60.4
		c0,26.7,17.3,49.3,41.3,57.3c3,0.6,4.1-1.3,4.1-2.9c0-1.4-0.1-6.2-0.1-11.2c-16.8,3.7-20.3-7.1-20.3-7.1c-2.7-7-6.7-8.8-6.7-8.8
		c-5.5-3.7,0.4-3.7,0.4-3.7c6.1,0.4,9.3,6.2,9.3,6.2c5.4,9.2,14.1,6.6,17.6,5c0.5-3.9,2.1-6.6,3.8-8.1c-13.4-1.5-27.5-6.7-27.5-29.8
		c0-6.6,2.4-12,6.2-16.2c-0.6-1.5-2.7-7.7,0.6-16c0,0,5.1-1.6,16.6,6.2c4.8-1.3,10-2,15.1-2c5.1,0,10.3,0.7,15.1,2
		c11.5-7.8,16.6-6.2,16.6-6.2c3.3,8.3,1.2,14.5,0.6,16c3.9,4.2,6.2,9.6,6.2,16.2c0,23.2-14.1,28.3-27.6,29.8
		c2.2,1.9,4.1,5.5,4.1,11.2c0,8.1-0.1,14.6-0.1,16.6c0,1.6,1.1,3.5,4.1,2.9c24-8,41.3-30.6,41.3-57.3
		C526.8,271.5,499.8,244.5,466.4,244.5z"/>
	<path fill="#878787" d="M418.6,327c-0.1,0.3-0.6,0.4-1,0.2c-0.4-0.2-0.7-0.6-0.5-0.9c0.1-0.3,0.6-0.4,1-0.2
		C418.5,326.3,418.7,326.7,418.6,327L418.6,327z M417.8,326.5"/>
	<path fill="#878787" d="M421,329.8c-0.3,0.3-0.9,0.1-1.2-0.3c-0.4-0.4-0.5-1-0.2-1.3c0.3-0.3,0.8-0.1,1.2,0.3
		C421.3,328.9,421.3,329.5,421,329.8L421,329.8z M420.5,329.1"/>
	<path fill="#878787" d="M423.4,333.2c-0.4,0.3-1,0-1.3-0.5c-0.4-0.5-0.4-1.2,0-1.4c0.4-0.3,1,0,1.3,0.5
		C423.8,332.3,423.8,333,423.4,333.2L423.4,333.2z M423.4,333.2"/>
	<path fill="#878787" d="M426.7,336.6c-0.3,0.4-1,0.3-1.6-0.2c-0.5-0.5-0.7-1.2-0.3-1.5c0.3-0.4,1-0.3,1.6,0.2
		C426.9,335.5,427,336.2,426.7,336.6L426.7,336.6z M426.7,336.6"/>
	<path fill="#878787" d="M431.2,338.5c-0.1,0.5-0.8,0.7-1.5,0.5c-0.7-0.2-1.1-0.8-1-1.2c0.1-0.5,0.8-0.7,1.5-0.5
		C430.9,337.5,431.3,338.1,431.2,338.5L431.2,338.5z M431.2,338.5"/>
	<path fill="#878787" d="M436.1,338.9c0,0.5-0.6,0.9-1.3,0.9c-0.7,0-1.3-0.4-1.3-0.9c0-0.5,0.6-0.9,1.3-0.9
		C435.5,338,436.1,338.4,436.1,338.9L436.1,338.9z M436.1,338.9"/>
	<path fill="#878787" d="M440.7,338.1c0.1,0.5-0.4,1-1.1,1.1c-0.7,0.1-1.3-0.2-1.4-0.7c-0.1-0.5,0.4-1,1.1-1.1
		C440,337.3,440.6,337.6,440.7,338.1L440.7,338.1z M440.7,338.1"/>
</g>
<rect x="71.5" y="411.2" fill-rule="evenodd" clip-rule="evenodd" fill="#C1C1C1" width="146" height="17.9"/>
<rect x="71.5" y="445.2" fill-rule="evenodd" clip-rule="evenodd" fill="#C1C1C1" width="112" height="17.9"/>
<rect x="409.5" y="445.2" fill-rule="evenodd" clip-rule="evenodd" fill="#C1C1C1" width="25.5" height="17.9"/>
<rect x="444.1" y="445.2" fill-rule="evenodd" clip-rule="evenodd" fill="#C1C1C1" width="15.3" height="17.9"/>
<rect x="464.1" y="445.2" fill-rule="evenodd" clip-rule="evenodd" fill="#C1C1C1" width="15.3" height="17.9"/>
<rect x="486.8" y="445.2" fill-rule="evenodd" clip-rule="evenodd" fill="#C1C1C1" width="20.6" height="17.9"/>
<rect x="512.5" y="445.2" fill-rule="evenodd" clip-rule="evenodd" fill="#C1C1C1" width="9" height="17.9"/>
<circle fill="#E6E6E6" cx="294.7" cy="59.1" r="19"/>
<rect x="72" y="245" fill-rule="evenodd" clip-rule="evenodd" fill="#FFFFFF" width="145.4" height="145.4"/>
<rect x="169" y="245" fill-rule="evenodd" clip-rule="evenodd" fill="#24669B" width="48.5" height="48.5"/>
<rect x="169" y="341.9" fill-rule="evenodd" clip-rule="evenodd" fill="#24669B" width="48.5" height="48.5"/>
<rect x="72.1" y="341.9" fill-rule="evenodd" clip-rule="evenodd" fill="#24669B" width="48.5" height="48.5"/>
<rect x="120.5" y="293.4" fill-rule="evenodd" clip-rule="evenodd" fill="#24669B" width="48.5" height="48.5"/>
<path fill="#24669B" d="M270.7,17.3h48c6.6,0,12,5.4,12,12v152.5h-72V29.3C258.7,22.7,264.1,17.3,270.7,17.3z"/>
<polygon fill="#2C3E50" points="330.7,181.7 258.7,181.7 330.7,124.4 "/>
<circle fill="#E6E6E6" cx="294.7" cy="52.6" r="15.7"/>
</svg>
