<?xml version="1.0" encoding="utf-8"?>
<!-- Generator: Adobe Illustrator 18.1.1, SVG Export Plug-In . SVG Version: 6.00 Build 0)  -->
<svg version="1.1" id="Layer_1" xmlns="http://www.w3.org/2000/svg" xmlns:xlink="http://www.w3.org/1999/xlink" x="0px" y="0px"
	 viewBox="0 0 589.4 549.6" enable-background="new 0 0 589.4 549.6" xml:space="preserve">
<g>
	<g id="paper_6_">
		<g>
			<path fill="#E6E6E6" d="M429.7,69H85.4c-6.6,0-12.1,5.2-12.1,11.8v388.6v1.4c0,33.1,27.3,60.2,60.5,60.2c20.5,0,20.5,0,0,0h295.8
				c6.6,0,11.7-5.8,11.7-12.4V80.8C441.4,74.2,436.3,69,429.7,69z"/>
		</g>
	</g>
	<g>
		<path fill="#24669B" d="M215.7,152.5h3.5c0.2,0.9,0.4,2,0.6,3.3c0.2,1.3,0.4,2.7,0.5,4.1c0.1,1.5,0.2,2.9,0.3,4.3
			c0.1,1.4,0.1,2.7,0.1,3.9c-2,1.3-4.5,2.1-7.5,2.7c-3,0.5-6.1,0.8-9.2,0.8c-4.7,0-9.1-0.6-12.9-1.8c-3.9-1.2-7.2-3-9.9-5.6
			c-2.7-2.5-4.8-5.8-6.3-9.7c-1.5-3.9-2.2-8.6-2.2-14.1c0-5.4,0.8-10.1,2.4-14c1.6-3.9,3.8-7.1,6.6-9.7c2.7-2.5,5.9-4.4,9.6-5.5
			c3.6-1.2,7.5-1.8,11.5-1.8c3.8,0,7.2,0.3,10.3,0.8c3.1,0.5,5.6,1.3,7.5,2.2c0,0.9,0,2.1-0.1,3.5s-0.2,2.9-0.4,4.5
			c-0.2,1.6-0.4,3.1-0.7,4.6c-0.3,1.5-0.5,2.8-0.7,3.8H215l-4.7-13c-0.5-0.3-1.3-0.5-2.5-0.7c-1.1-0.2-2.3-0.3-3.5-0.3
			c-2.3,0-4.5,0.5-6.6,1.4c-2.1,0.9-3.9,2.4-5.5,4.5c-1.6,2.1-2.9,4.7-3.8,7.9c-0.9,3.2-1.4,7.1-1.4,11.6c0,8.2,1.6,14.5,4.9,18.9
			c3.3,4.4,7.7,6.6,13.3,6.6c1.6,0,3-0.1,4.1-0.4c1.1-0.3,1.9-0.6,2.3-1.1L215.7,152.5z"/>
		<path fill="#24669B" d="M232.2,110.4h28.1v3.3c-1.2,0.6-2.5,1.2-4,1.6c-1.5,0.4-2.9,0.7-4.2,0.9v48.7h16.6l5.8-15.4h3.5
			c0.2,1.3,0.4,2.9,0.6,4.6c0.2,1.8,0.4,3.6,0.5,5.6c0.1,1.9,0.2,3.9,0.3,5.8c0.1,1.9,0.1,3.5,0,5h-47.1v-3.3
			c1.3-0.7,2.6-1.2,3.7-1.6c1.2-0.4,2.3-0.7,3.3-0.9v-48.6c-2.8-0.5-5.1-1.3-7-2.5V110.4z"/>
		<path fill="#24669B" d="M308.6,170.5h-21.2v-3.3c0.9-0.6,1.9-1.1,3-1.5c1.1-0.4,2.1-0.8,3.1-1l22.1-55.4h6.4l21.5,55.4
			c1.1,0.2,2.3,0.6,3.4,1c1.1,0.4,2.1,0.9,3,1.5v3.3h-26.9v-3.3c1.1-0.5,2.3-1,3.5-1.5c1.3-0.5,2.5-0.8,3.6-1l-5-13.6h-19.1
			l-5.1,13.6c2.6,0.3,5.1,1.2,7.5,2.5V170.5z M308.3,145.5h15.2l-5.6-16.4l-1.6-7.4h-0.2l-1.9,7.6L308.3,145.5z"/>
	</g>
	<path id="line5_6_" fill="#C1C1C1" d="M315.8,323.3H180.1c-1.4,0-2.5-1.1-2.5-2.5v-4c0-1.4,1.1-2.5,2.5-2.5h135.7
		c1.4,0,2.5,1.1,2.5,2.5v4C318.3,322.2,317.2,323.3,315.8,323.3z"/>
	<path id="line4_6_" fill="#C1C1C1" d="M304.6,296.6H180.1c-1.4,0-2.5-1.1-2.5-2.5v-4c0-1.4,1.1-2.5,2.5-2.5h124.5
		c1.4,0,2.5,1.1,2.5,2.5v4C307.1,295.5,306,296.6,304.6,296.6z"/>
	<path id="line3_6_" fill="#C1C1C1" d="M331.3,270H180.1c-1.4,0-2.5-1.1-2.5-2.5v-4c0-1.4,1.1-2.5,2.5-2.5h151.2
		c1.4,0,2.5,1.1,2.5,2.5v4C333.8,268.8,332.7,270,331.3,270z"/>
	<path id="line2_6_" fill="#C1C1C1" d="M315.8,243.3H180.1c-1.4,0-2.5-1.1-2.5-2.5v-4c0-1.4,1.1-2.5,2.5-2.5h135.7
		c1.4,0,2.5,1.1,2.5,2.5v4C318.3,242.2,317.2,243.3,315.8,243.3z"/>
	<path id="line1_6_" fill="#C1C1C1" d="M348.2,216.6H180.1c-1.4,0-2.5-1.1-2.5-2.5v-4c0-1.4,1.1-2.5,2.5-2.5h168.1
		c1.4,0,2.5,1.1,2.5,2.5v4C350.6,215.5,349.5,216.6,348.2,216.6z"/>
	<path id="sign_2_" fill="#727272" d="M314.6,433.2c-2.5,0-4.6-0.7-6.2-2c-3.6-2.9-4.1-9.1-4.7-16.3c-0.2-3-0.6-7.7-1.3-9.6
		c-1.4,0.6-4.1,2.6-6.3,4.2c-2.4,1.7-5,3.6-8.3,5.7c-1,0.6-1.9,1.2-2.8,1.8c-9,5.9-14.5,9.4-19.7,7.2c-10.6-4.5-10-22.5-9.5-40
		c0.2-7.5,0.7-21.5-1.6-23.5c0,0,0,0,0,0c-1.3,0-4.7,1.9-13.7,13.7c-9.8,12.9-15.8,29-17.5,46.4c-0.2,2.2-2.1,3.8-4.3,3.6
		c-2.2-0.2-3.8-2.2-3.6-4.3c1.7-18.9,8.3-36.4,19-50.5c7.4-9.8,15.3-19.1,22.8-16.5c7.8,2.7,7.4,15.3,6.9,31.3
		c-0.4,11.9-0.9,30,4.6,32.4c1.6,0.4,7.5-3.5,12.2-6.5c0.9-0.6,1.8-1.2,2.8-1.8c3.1-2,5.6-3.8,7.9-5.5c6.1-4.4,11-7.9,15.6-4.6
		c3.7,2.6,4.2,8.7,4.7,15.8c0.3,3.5,0.8,9.4,1.8,10.8c0.3,0.2,2.7,1.2,10.7-3c2-1,4.4-0.2,5.4,1.7c1,2,0.2,4.4-1.7,5.4
		C322.5,431.9,318.2,433.2,314.6,433.2z"/>
	<g id="siegel_5_">
		<circle id="siegel_8_" fill="#C1C1C1" cx="132.4" cy="401.3" r="21"/>
		<g id="siegel_6_">
			<g>
				<g>
					<path fill="#24669B" d="M165.6,411.7c2.6-1.5,3.3-5,1.5-7.4v0c-1.4-1.8-1.4-4.3,0-6.1c1.8-2.4,1.1-5.9-1.5-7.4
						c-1.9-1.1-2.9-3.4-2.3-5.6c0.8-2.9-1.2-5.8-4.2-6.3c-2.2-0.3-4-2.1-4.3-4.3c-0.4-3-3.3-4.9-6.3-4.2h0c-2.2,0.6-4.5-0.4-5.6-2.3
						c-1.5-2.6-5-3.3-7.4-1.5c-1.8,1.4-4.3,1.4-6.1,0h0c-2.4-1.8-5.9-1.1-7.4,1.5c-1.1,1.9-3.4,2.9-5.6,2.3
						c-2.9-0.8-5.8,1.2-6.3,4.2c-0.3,2.2-2.1,4-4.3,4.3c-3,0.4-4.9,3.3-4.2,6.3c0.6,2.2-0.4,4.5-2.3,5.6c-2.6,1.5-3.3,5-1.5,7.4
						c1.4,1.8,1.4,4.3,0,6.1v0c-1.8,2.4-1.1,5.9,1.5,7.4c1.9,1.1,2.9,3.4,2.3,5.6c-0.8,2.9,1.2,5.8,4.2,6.3c1.9,0.3,3.4,1.5,4,3.2
						l-10.1,28l13.5-2.6l8.6,10.5l10.1-27.9c0.2,0,0.4,0,0.6,0l13.1,27.8l7.8-11.4l13.5,1.4L155,427c0.6-1.8,2.2-3.2,4.1-3.5
						c3-0.4,4.9-3.3,4.2-6.3C162.7,415.1,163.6,412.8,165.6,411.7z M132.5,426.3c-13.8,0-25-11.2-25-25c0-13.8,11.2-25,25-25
						s25,11.2,25,25C157.5,415.1,146.3,426.3,132.5,426.3z"/>
				</g>
			</g>
			<circle id="siegel_7_" fill="#24669B" cx="132.5" cy="401.3" r="21"/>
		</g>
		<path fill="#2C3E50" d="M111,424l-6.7,18.6c8.9-4,26.4-4,26.4-4l1.5-4l0.6,0.2l1.9,3.9c0,0,20.6,0.2,27.7,4l-8-17.2l-23.5,3.8
			L111,424z"/>
		<g>
			<g>
				<path fill="#24669B" d="M99.4,390.9c-2.6,1.5-3.3,5-1.5,7.4v0c1.4,1.8,1.4,4.3,0,6.1c-1.8,2.4-1.1,5.9,1.5,7.4
					c1.9,1.1,2.9,3.4,2.3,5.6c-0.8,2.9,1.2,5.8,4.2,6.3c2.2,0.3,4,2.1,4.3,4.3c0.4,3,3.3,4.9,6.3,4.2h0c2.2-0.6,4.5,0.4,5.6,2.3
					c1.5,2.6,5,3.3,7.4,1.5c1.8-1.4,4.3-1.4,6.1,0h0c2.4,1.8,5.9,1.1,7.4-1.5c1.1-1.9,3.4-2.9,5.6-2.3c2.9,0.8,5.8-1.2,6.3-4.2
					c0.3-2.2,2.1-4,4.3-4.3c3-0.4,4.9-3.3,4.2-6.3c-0.6-2.2,0.4-4.5,2.3-5.6c2.6-1.5,3.3-5,1.5-7.4c-1.4-1.8-1.4-4.3,0-6.1v0
					c1.8-2.4,1.1-5.9-1.5-7.4c-1.9-1.1-2.9-3.4-2.3-5.6c0.8-2.9-1.2-5.8-4.2-6.3c-1.9-0.3-3.4-1.5-4-3.2l-45-0.2
					c-0.6,1.8-2.2,3.2-4.1,3.5c-3,0.4-4.9,3.3-4.2,6.3C102.3,387.5,101.3,389.8,99.4,390.9z M132.4,376.3c13.8,0,25,11.2,25,25
					c0,13.8-11.2,25-25,25c-13.8,0-25-11.2-25-25C107.4,387.5,118.6,376.3,132.4,376.3z"/>
			</g>
		</g>
	</g>
	<g>
		<path fill="#C1C1C1" d="M468.3,453l-272.1-0.1c-6.7,0-7.5,3.4-7.5,7c0,0.4,0.6,10.2,0.6,10.9c0,31.4-24,57.3-54.6,60.2
			c0.5,0.1,1.1,0.2,1.6,0.2h293.4c28.8,0,52.4-23.6,52.4-52.4l-0.4-12.1C481.8,457.5,474.4,453,468.3,453z"/>
	</g>
</g>
<linearGradient id="SVGID_1_" gradientUnits="userSpaceOnUse" x1="456.2529" y1="263.1268" x2="399.6404" y2="165.071">
	<stop  offset="0" style="stop-color:#FFFFFF;stop-opacity:0"/>
	<stop  offset="9.537581e-02" style="stop-color:#F0F0F0;stop-opacity:6.676307e-02"/>
	<stop  offset="0.2801" style="stop-color:#C7C7C7;stop-opacity:0.196"/>
	<stop  offset="0.5356" style="stop-color:#868686;stop-opacity:0.3749"/>
	<stop  offset="0.8489" style="stop-color:#2D2D2D;stop-opacity:0.5942"/>
	<stop  offset="1" style="stop-color:#000000;stop-opacity:0.7"/>
</linearGradient>
<polygon fill="url(#SVGID_1_)" points="374.4,179.7 442.1,271.3 441.8,179.8 "/>
<g>
	<g>
		<g>
			<g>
				<circle fill="#FFFFFF" cx="466.7" cy="115.8" r="102.4"/>
				<path fill="#39B54A" d="M466.7,3.4c-62,0-112.4,50.4-112.4,112.4s50.4,112.4,112.4,112.4s112.4-50.4,112.4-112.4
					S528.7,3.4,466.7,3.4z M466.7,208.2c-51,0-92.4-41.5-92.4-92.4s41.5-92.4,92.4-92.4s92.4,41.5,92.4,92.4
					S517.7,208.2,466.7,208.2z"/>
			</g>
		</g>
	</g>
	<linearGradient id="SVGID_2_" gradientUnits="userSpaceOnUse" x1="541.963" y1="186.4167" x2="474.6297" y2="119.0833">
		<stop  offset="0" style="stop-color:#FFFFFF;stop-opacity:0"/>
		<stop  offset="0.1217" style="stop-color:#E7E7E7;stop-opacity:0.1095"/>
		<stop  offset="0.3793" style="stop-color:#A9A9A9;stop-opacity:0.3414"/>
		<stop  offset="0.7483" style="stop-color:#474747;stop-opacity:0.6735"/>
		<stop  offset="1" style="stop-color:#000000;stop-opacity:0.9"/>
	</linearGradient>
	<path fill="url(#SVGID_2_)" d="M428.4,165.3l64.7,53.3l45.3-28.7l30.3-54l-30.3-45.7c0,0-14-3-12.7,6.7c2.7,19.7-7.3,56.7-18,63.7
		C477.7,180.3,428.4,165.3,428.4,165.3z"/>
	<linearGradient id="SVGID_3_" gradientUnits="userSpaceOnUse" x1="522.6297" y1="173.75" x2="427.1766" y2="78.2969">
		<stop  offset="0" style="stop-color:#FFFFFF;stop-opacity:0"/>
		<stop  offset="0.1029" style="stop-color:#FAFAFA;stop-opacity:5.146120e-02"/>
		<stop  offset="0.2266" style="stop-color:#EBEBEB;stop-opacity:0.1133"/>
		<stop  offset="0.3609" style="stop-color:#D3D3D3;stop-opacity:0.1804"/>
		<stop  offset="0.5028" style="stop-color:#B1B1B1;stop-opacity:0.2514"/>
		<stop  offset="0.6508" style="stop-color:#858585;stop-opacity:0.3254"/>
		<stop  offset="0.8039" style="stop-color:#505050;stop-opacity:0.4019"/>
		<stop  offset="0.9582" style="stop-color:#121212;stop-opacity:0.4791"/>
		<stop  offset="1" style="stop-color:#000000;stop-opacity:0.5"/>
	</linearGradient>
	<path fill="url(#SVGID_3_)" d="M395.4,136.3l81.7,83l31.4-68.6l25.3-44l-31.3-44.3c0,0-51.3-2.3-62,4.7c-18.1,11.8-32.5,35-29.5,60
		C412.3,138.6,395.4,136.3,395.4,136.3z"/>
	<g>
		<path fill-rule="evenodd" clip-rule="evenodd" fill="#39B54A" d="M488.9,163.5c-16.4,7.3-34.6,5.3-48.8-3.6l-12.3,5.4
			c18,14.5,43.2,18.7,65.8,8.8c30.4-13.4,45.1-47.7,34.7-78.6l10.8-4.8l-25.3-14.2l-6.5,28.2l10.3-4.5
			C525.5,125.2,513.4,152.6,488.9,163.5L488.9,163.5z M488.9,163.5"/>
		<path fill-rule="evenodd" clip-rule="evenodd" fill="#009245" d="M442.1,57.6c-28.5,12.6-43.2,43.6-36.2,72.9l-11.6,5.1l25.2,14.2
			l6.6-28.2l-9.4,4.2c-4.6-23.4,7.4-47.6,30.1-57.6c14.4-6.3,30-5.7,43.2,0.5l12.6-6.2C485.2,51.1,462.6,48.5,442.1,57.6L442.1,57.6
			z M442.1,57.6"/>
	</g>
	<path fill="#009245" d="M551,41.5l-7.4,6.7l-7.5,6.7c14.3,16.3,23,37.6,23,60.9c0,51-41.5,92.4-92.4,92.4
		c-26.7,0-50.8-11.4-67.7-29.6l-7.5,6.7l-7.4,6.7c20.6,22.2,49.9,36.2,82.5,36.2c62,0,112.4-50.4,112.4-112.4
		C579.1,87.3,568.5,61.3,551,41.5z"/>
</g>
</svg>
