<?xml version="1.0" encoding="utf-8"?>
<!-- Generator: Adobe Illustrator 18.1.1, SVG Export Plug-In . SVG Version: 6.00 Build 0)  -->
<svg version="1.1" id="Layer_1" xmlns="http://www.w3.org/2000/svg" xmlns:xlink="http://www.w3.org/1999/xlink" x="0px" y="0px"
	 viewBox="0 0 589.4 549.6" enable-background="new 0 0 589.4 549.6" xml:space="preserve">
<g>
	<g id="paper_6_">
		<g>
			<path fill="#E6E6E6" d="M412.8,113H125.4c-5.5,0-10,4.4-10,9.9v324.4v1.2c0,27.6,22.8,50.5,50.5,50.5c17.1,0,17.1,0,0,0h246.9
				c5.5,0,9.6-5.1,9.6-10.6V122.9C422.4,117.4,418.3,113,412.8,113z"/>
		</g>
	</g>
	<g>
		<path fill="#24669B" d="M234.2,182.8h2.9c0.2,0.8,0.4,1.7,0.5,2.8c0.2,1.1,0.3,2.2,0.4,3.4c0.1,1.2,0.2,2.4,0.3,3.6
			c0,1.2,0.1,2.3,0.1,3.2c-1.7,1.1-3.8,1.8-6.3,2.2c-2.5,0.4-5.1,0.6-7.7,0.6c-4,0-7.6-0.5-10.8-1.5c-3.2-1-6-2.5-8.2-4.7
			c-2.3-2.1-4-4.8-5.3-8.1c-1.2-3.3-1.9-7.2-1.9-11.8c0-4.5,0.7-8.4,2-11.7s3.2-6,5.5-8.1c2.3-2.1,5-3.6,8-4.6c3-1,6.2-1.5,9.6-1.5
			c3.2,0,6,0.2,8.6,0.7c2.6,0.5,4.6,1.1,6.3,1.8c0,0.8,0,1.7-0.1,2.9c-0.1,1.2-0.2,2.4-0.4,3.8c-0.2,1.3-0.4,2.6-0.6,3.9
			c-0.2,1.3-0.4,2.3-0.6,3.2h-3l-3.9-10.8c-0.4-0.2-1.1-0.4-2.1-0.6c-1-0.1-1.9-0.2-2.9-0.2c-2,0-3.8,0.4-5.5,1.2
			c-1.7,0.8-3.2,2-4.6,3.8c-1.3,1.7-2.4,3.9-3.2,6.6c-0.8,2.7-1.1,5.9-1.1,9.7c0,6.8,1.4,12.1,4.1,15.8c2.7,3.7,6.4,5.5,11.1,5.5
			c1.3,0,2.5-0.1,3.4-0.3c0.9-0.2,1.6-0.5,1.9-0.9L234.2,182.8z"/>
		<path fill="#24669B" d="M247.9,147.7h23.5v2.7c-1,0.5-2.1,1-3.3,1.3c-1.2,0.4-2.4,0.6-3.5,0.8v40.7h13.8l4.8-12.8h2.9
			c0.2,1.1,0.4,2.4,0.5,3.9c0.2,1.5,0.3,3,0.4,4.7c0.1,1.6,0.2,3.2,0.2,4.8c0,1.6,0,3,0,4.2h-39.3v-2.7c1.1-0.6,2.1-1,3.1-1.4
			c1-0.3,1.9-0.6,2.8-0.7v-40.5c-2.3-0.4-4.3-1.1-5.9-2.1V147.7z"/>
		<path fill="#24669B" d="M311.7,197.8H294v-2.7c0.8-0.5,1.6-0.9,2.5-1.3c0.9-0.4,1.8-0.6,2.6-0.8l18.5-46.2h5.3l18,46.2
			c1,0.2,1.9,0.5,2.9,0.8c1,0.4,1.8,0.8,2.5,1.3v2.7h-22.4v-2.7c0.9-0.4,1.9-0.8,2.9-1.2c1.1-0.4,2.1-0.7,3-0.9l-4.2-11.4h-15.9
			l-4.2,11.4c2.2,0.3,4.3,1,6.2,2.1V197.8z M311.4,177h12.7l-4.7-13.7l-1.4-6.2h-0.1l-1.6,6.3L311.4,177z"/>
	</g>
	<path id="line5_6_" fill="#C1C1C1" d="M317.3,325.3H204.8c-1.4,0-2.5-1.1-2.5-2.5v-2.6c0-1.4,1.1-2.5,2.5-2.5h112.5
		c1.4,0,2.5,1.1,2.5,2.5v2.6C319.8,324.2,318.7,325.3,317.3,325.3z"/>
	<path id="line4_6_" fill="#C1C1C1" d="M308,303.1H204.8c-1.4,0-2.5-1.1-2.5-2.5v-2.6c0-1.4,1.1-2.5,2.5-2.5H308
		c1.4,0,2.5,1.1,2.5,2.5v2.6C310.4,302,309.3,303.1,308,303.1z"/>
	<path id="line3_6_" fill="#C1C1C1" d="M330.3,280.8H204.8c-1.4,0-2.5-1.1-2.5-2.5v-2.6c0-1.4,1.1-2.5,2.5-2.5h125.4
		c1.4,0,2.5,1.1,2.5,2.5v2.6C332.7,279.7,331.6,280.8,330.3,280.8z"/>
	<path id="line2_6_" fill="#C1C1C1" d="M317.3,258.5H204.8c-1.4,0-2.5-1.1-2.5-2.5v-2.6c0-1.4,1.1-2.5,2.5-2.5h112.5
		c1.4,0,2.5,1.1,2.5,2.5v2.6C319.8,257.4,318.7,258.5,317.3,258.5z"/>
	<path id="line1_6_" fill="#C1C1C1" d="M344.3,236.2H204.8c-1.4,0-2.5-1.1-2.5-2.5v-2.6c0-1.4,1.1-2.5,2.5-2.5h139.5
		c1.4,0,2.5,1.1,2.5,2.5v2.6C346.8,235.1,345.7,236.2,344.3,236.2z"/>
	<path id="sign_2_" fill="#727272" d="M316.7,417.1c-2.1,0-3.8-0.6-5.2-1.7c-3-2.4-3.4-7.6-3.9-13.6c-0.2-2.5-0.5-6.4-1.1-8
		c-1.2,0.5-3.4,2.1-5.3,3.5c-2,1.4-4.2,3-6.9,4.8c-0.8,0.5-1.6,1-2.3,1.5c-7.5,4.9-12.1,7.9-16.4,6c-8.8-3.8-8.4-18.8-7.9-33.3
		c0.2-6.3,0.6-18-1.3-19.6c0,0,0,0,0,0c-1.1,0-3.9,1.6-11.4,11.5c-8.2,10.8-13.2,24.2-14.6,38.7c-0.2,1.8-1.8,3.2-3.6,3
		c-1.8-0.2-3.2-1.8-3-3.6c1.5-15.8,7-30.3,15.9-42.1c6.2-8.2,12.7-15.9,19-13.7c6.5,2.3,6.2,12.8,5.8,26.1c-0.3,10-0.8,25,3.9,27
		c1.3,0.3,6.2-2.9,10.2-5.5c0.7-0.5,1.5-1,2.3-1.5c2.6-1.6,4.7-3.2,6.6-4.6c5.1-3.7,9.2-6.6,13-3.8c3.1,2.2,3.5,7.3,3.9,13.2
		c0.2,3,0.6,7.9,1.5,9c0.3,0.2,2.2,1,8.9-2.5c1.6-0.8,3.6-0.2,4.5,1.4c0.8,1.6,0.2,3.7-1.4,4.5C323.3,415.9,319.7,417.1,316.7,417.1
		z"/>
	<g id="siegel_5_">
		<circle id="siegel_8_" fill="#C1C1C1" cx="164.7" cy="390.4" r="17.5"/>
		<g id="siegel_6_">
			<g>
				<g>
					<path fill="#24669B" d="M192.3,399.1c2.2-1.3,2.7-4.2,1.2-6.2v0c-1.1-1.5-1.1-3.6,0-5.1c1.5-2,0.9-4.9-1.2-6.2
						c-1.6-1-2.4-2.9-1.9-4.7c0.6-2.4-1-4.9-3.5-5.2c-1.9-0.3-3.3-1.7-3.6-3.6c-0.3-2.5-2.8-4.1-5.2-3.5h0c-1.8,0.5-3.7-0.3-4.7-1.9
						c-1.3-2.2-4.2-2.7-6.2-1.2c-1.5,1.1-3.6,1.1-5.1,0h0c-2-1.5-4.9-0.9-6.2,1.2c-1,1.6-2.9,2.4-4.7,1.9c-2.4-0.6-4.9,1-5.2,3.5
						c-0.3,1.9-1.7,3.3-3.6,3.6c-2.5,0.3-4.1,2.8-3.5,5.2c0.5,1.8-0.3,3.7-1.9,4.7c-2.2,1.3-2.7,4.2-1.2,6.2c1.1,1.5,1.1,3.6,0,5.1
						v0c-1.5,2-0.9,4.9,1.2,6.2c1.6,1,2.4,2.9,1.9,4.7c-0.6,2.4,1,4.9,3.5,5.2c1.6,0.2,2.8,1.3,3.3,2.7l-8.4,23.4l11.3-2.2l7.1,8.8
						l8.4-23.3c0.2,0,0.4,0,0.5,0l10.9,23.2l6.5-9.5l11.3,1.2l-10.1-21.4c0.5-1.5,1.8-2.7,3.4-2.9c2.5-0.3,4.1-2.8,3.5-5.2
						C189.9,402,190.7,400,192.3,399.1z M164.7,411.3c-11.5,0-20.9-9.3-20.9-20.9c0-11.5,9.3-20.9,20.9-20.9s20.9,9.3,20.9,20.9
						C185.6,401.9,176.3,411.3,164.7,411.3z"/>
				</g>
			</g>
			<circle id="siegel_7_" fill="#24669B" cx="164.7" cy="390.4" r="17.5"/>
		</g>
		<path fill="#2C3E50" d="M146.7,409.4l-5.6,15.5c7.4-3.3,22-3.3,22-3.3l1.2-3.4l0.5,0.1l1.6,3.2c0,0,17.2,0.2,23.2,3.3l-6.7-14.4
			l-19.6,3.2L146.7,409.4z"/>
		<g>
			<g>
				<path fill="#24669B" d="M137.1,381.7c-2.2,1.3-2.7,4.2-1.2,6.2v0c1.1,1.5,1.1,3.6,0,5.1c-1.5,2-0.9,4.9,1.2,6.2
					c1.6,1,2.4,2.9,1.9,4.7c-0.6,2.4,1,4.9,3.5,5.2c1.9,0.3,3.3,1.7,3.6,3.6c0.3,2.5,2.8,4.1,5.2,3.5h0c1.8-0.5,3.7,0.3,4.7,1.9
					c1.3,2.2,4.2,2.7,6.2,1.2c1.5-1.1,3.6-1.1,5.1,0h0c2,1.5,4.9,0.9,6.2-1.2c1-1.6,2.9-2.4,4.7-1.9c2.4,0.6,4.9-1,5.2-3.5
					c0.3-1.9,1.7-3.3,3.6-3.6c2.5-0.3,4.1-2.8,3.5-5.2c-0.5-1.8,0.3-3.7,1.9-4.7c2.2-1.3,2.7-4.2,1.2-6.2c-1.1-1.5-1.1-3.6,0-5.1v0
					c1.5-2,0.9-4.9-1.2-6.2c-1.6-1-2.4-2.9-1.9-4.7c0.6-2.4-1-4.9-3.5-5.2c-1.6-0.2-2.8-1.3-3.3-2.7l-37.6-0.2
					c-0.5,1.5-1.8,2.7-3.4,2.9c-2.5,0.3-4.1,2.8-3.5,5.2C139.5,378.9,138.7,380.8,137.1,381.7z M164.7,369.6
					c11.5,0,20.9,9.3,20.9,20.9c0,11.5-9.3,20.9-20.9,20.9c-11.5,0-20.9-9.3-20.9-20.9C143.8,378.9,153.1,369.6,164.7,369.6z"/>
			</g>
		</g>
	</g>
	<g>
		<path fill="#C1C1C1" d="M445,433.6l-227.1-0.1c-5.6,0-6.2,2.8-6.2,5.8c0,0.3,0.5,8.5,0.5,9.1c0,26.2-20,47.8-45.6,50.3
			c0.4,0.1,0.9,0.1,1.4,0.1h244.9c24,0,43.7-19.7,43.7-43.7l-0.3-10.1C456.3,437.4,450,433.6,445,433.6z"/>
	</g>
</g>
<g>
	<g>
		<g>
			<g>
				<circle fill="#FFFFFF" cx="453.7" cy="120.8" r="102.4"/>
				<path fill="#39B54A" d="M453.7,8.4c-62,0-112.4,50.4-112.4,112.4s50.4,112.4,112.4,112.4s112.4-50.4,112.4-112.4
					S515.7,8.4,453.7,8.4z M453.7,213.2c-51,0-92.4-41.5-92.4-92.4s41.5-92.4,92.4-92.4s92.4,41.5,92.4,92.4
					S504.7,213.2,453.7,213.2z"/>
			</g>
		</g>
	</g>
	<linearGradient id="SVGID_1_" gradientUnits="userSpaceOnUse" x1="528.963" y1="191.4167" x2="461.6297" y2="124.0833">
		<stop  offset="0" style="stop-color:#FFFFFF;stop-opacity:0"/>
		<stop  offset="9.537581e-02" style="stop-color:#F0F0F0;stop-opacity:6.676307e-02"/>
		<stop  offset="0.2801" style="stop-color:#C7C7C7;stop-opacity:0.196"/>
		<stop  offset="0.5356" style="stop-color:#868686;stop-opacity:0.3749"/>
		<stop  offset="0.8489" style="stop-color:#2D2D2D;stop-opacity:0.5942"/>
		<stop  offset="1" style="stop-color:#000000;stop-opacity:0.7"/>
	</linearGradient>
	<path fill="url(#SVGID_1_)" d="M415.4,170.3l58.4,50.8l51.6-26.1l32-62l-32-37.7c0,0-14-3-12.7,6.7c2.7,19.7-7.3,56.7-18,63.7
		C464.7,185.3,415.4,170.3,415.4,170.3z"/>
	<linearGradient id="SVGID_2_" gradientUnits="userSpaceOnUse" x1="507.963" y1="176.4167" x2="414.5099" y2="82.9636">
		<stop  offset="0" style="stop-color:#FFFFFF;stop-opacity:0"/>
		<stop  offset="0.1358" style="stop-color:#FBFBFB;stop-opacity:8.149351e-02"/>
		<stop  offset="0.2628" style="stop-color:#F0F0F0;stop-opacity:0.1577"/>
		<stop  offset="0.3862" style="stop-color:#DDDDDD;stop-opacity:0.2317"/>
		<stop  offset="0.5075" style="stop-color:#C2C2C2;stop-opacity:0.3045"/>
		<stop  offset="0.6272" style="stop-color:#A0A0A0;stop-opacity:0.3763"/>
		<stop  offset="0.7459" style="stop-color:#767676;stop-opacity:0.4475"/>
		<stop  offset="0.8635" style="stop-color:#444444;stop-opacity:0.5181"/>
		<stop  offset="0.9777" style="stop-color:#0C0C0C;stop-opacity:0.5866"/>
		<stop  offset="1" style="stop-color:#000000;stop-opacity:0.6"/>
	</linearGradient>
	<path fill="url(#SVGID_2_)" d="M382.4,141.3l85,75.7l28.1-61.3l26.3-51l-32.3-37.3c0,0-51.3-2.3-62,4.7c-18.1,11.8-32.5,35-29.5,60
		C399.3,143.6,382.4,141.3,382.4,141.3z"/>
	<g>
		<path fill-rule="evenodd" clip-rule="evenodd" fill="#39B54A" d="M475.9,168.5c-16.4,7.3-34.6,5.3-48.8-3.6l-12.3,5.4
			c18,14.5,43.2,18.7,65.8,8.8c30.4-13.4,45.1-47.7,34.7-78.6l10.8-4.8l-25.3-14.2l-6.5,28.2l10.3-4.5
			C512.5,130.2,500.4,157.6,475.9,168.5L475.9,168.5z M475.9,168.5"/>
		<path fill-rule="evenodd" clip-rule="evenodd" fill="#009245" d="M429.1,62.6c-28.5,12.6-43.2,43.6-36.2,72.9l-11.6,5.1l25.2,14.2
			l6.6-28.2l-9.4,4.2c-4.6-23.4,7.4-47.6,30.1-57.6c14.4-6.3,30-5.7,43.2,0.5l12.6-6.2C472.2,56.1,449.6,53.5,429.1,62.6L429.1,62.6
			z M429.1,62.6"/>
	</g>
	<path fill="#009245" d="M538,46.5l-7.4,6.7l-7.5,6.7c14.3,16.3,23,37.6,23,60.9c0,51-41.5,92.4-92.4,92.4
		c-26.7,0-50.8-11.4-67.7-29.6l-7.5,6.7l-7.4,6.7c20.6,22.2,49.9,36.2,82.5,36.2c62,0,112.4-50.4,112.4-112.4
		C566.1,92.3,555.5,66.3,538,46.5z"/>
</g>
</svg>
