<?xml version="1.0" encoding="utf-8"?>
<!-- Generator: Adobe Illustrator 18.1.1, SVG Export Plug-In . SVG Version: 6.00 Build 0)  -->
<svg version="1.1" id="Layer_1" xmlns="http://www.w3.org/2000/svg" xmlns:xlink="http://www.w3.org/1999/xlink" x="0px" y="0px"
	 viewBox="0 0 956 708" enable-background="new 0 0 956 708" xml:space="preserve">
<g>
	<path fill="#E6E6E6" d="M642.6,617.5H321.5c-24.8,0-45-20.2-45-45V181.8c0-24.8,20.2-45,45-45h321.2c24.8,0,45,20.2,45,45v390.8
		C687.6,597.3,667.4,617.5,642.6,617.5z"/>
	<path fill="#878787" d="M324.3,131.8h315.6c32.9,0,47.9,10.4,47.9,43.6v15.1H276.2v-19.2C276.2,140.5,293.7,131.8,324.3,131.8z"/>
	<path fill="#FFFFFF" d="M657.5,268.3H302c-6.6,0-12-5.4-12-12v-31c0-6.6,5.4-12,12-12h355.5c6.6,0,12,5.4,12,12v31
		C669.5,262.9,664.1,268.3,657.5,268.3z"/>
	<g>
		<path fill="#727272" d="M320.6,253.1v-10c0-0.9-0.1-1.7-0.2-2.4c-0.1-0.7-0.3-1.3-0.6-1.7c-0.3-0.5-0.7-0.8-1.1-1
			c-0.5-0.2-1.1-0.4-1.9-0.4c-1.1,0-2.1,0.4-3,1.1c-0.9,0.7-1.5,1.6-1.7,2.8v11.7h-2.8v-24.6h2.8v9h0.1c0.6-0.7,1.3-1.3,2.2-1.7
			c0.9-0.4,1.9-0.6,3.2-0.6c1,0,1.8,0.1,2.6,0.3c0.7,0.2,1.3,0.6,1.8,1.2c0.5,0.6,0.8,1.3,1.1,2.3c0.2,0.9,0.3,2.1,0.3,3.6v10.6
			H320.6z"/>
		<path fill="#727272" d="M326.2,235.5h2.7v-3.5l2.8-0.8v4.3h4.8v2.5h-4.8v9.7c0,1.2,0.2,2.1,0.5,2.6c0.3,0.5,0.8,0.8,1.5,0.8
			c0.6,0,1.1-0.1,1.5-0.2s0.9-0.3,1.4-0.5l0.6,2.1c-0.6,0.3-1.3,0.6-2.1,0.7c-0.7,0.2-1.6,0.3-2.4,0.3c-1.4,0-2.4-0.4-3-1.2
			c-0.6-0.8-0.9-2.2-0.9-4.1V238h-2.7V235.5z"/>
		<path fill="#727272" d="M338.1,235.5h2.7v-3.5l2.8-0.8v4.3h4.8v2.5h-4.8v9.7c0,1.2,0.2,2.1,0.5,2.6c0.3,0.5,0.8,0.8,1.5,0.8
			c0.6,0,1.1-0.1,1.5-0.2s0.9-0.3,1.4-0.5l0.6,2.1c-0.6,0.3-1.3,0.6-2.1,0.7c-0.7,0.2-1.6,0.3-2.4,0.3c-1.4,0-2.4-0.4-3-1.2
			c-0.6-0.8-0.9-2.2-0.9-4.1V238h-2.7V235.5z"/>
		<path fill="#727272" d="M352.3,235.5h1.9l0.5,2.1h0.1c0.5-0.8,1.2-1.4,2.1-1.9c0.9-0.4,1.8-0.6,2.9-0.6c2.3,0,4.1,0.7,5.2,2.1
			c1.1,1.4,1.7,3.6,1.7,6.8c0,1.5-0.2,2.8-0.6,4c-0.4,1.2-0.9,2.2-1.6,3c-0.7,0.8-1.5,1.5-2.5,1.9c-1,0.4-2.1,0.7-3.3,0.7
			c-0.9,0-1.5-0.1-2.1-0.2c-0.5-0.1-1-0.3-1.6-0.5v7.3h-2.8V235.5z M359.4,237.6c-1.2,0-2.1,0.3-2.8,0.9c-0.7,0.6-1.2,1.6-1.5,2.8
			v8.7c0.4,0.3,0.9,0.6,1.4,0.8c0.5,0.2,1.3,0.3,2.1,0.3c1.6,0,2.9-0.6,3.8-1.8c0.9-1.2,1.4-3,1.4-5.3c0-1-0.1-1.8-0.2-2.6
			c-0.2-0.8-0.4-1.4-0.8-2c-0.4-0.5-0.8-1-1.4-1.3C360.9,237.7,360.2,237.6,359.4,237.6z"/>
		<path fill="#727272" d="M379,248.3c0-0.7-0.2-1.3-0.6-1.6c-0.4-0.4-0.9-0.7-1.6-1c-0.6-0.3-1.3-0.5-2-0.8s-1.4-0.6-2-0.9
			c-0.6-0.4-1.1-0.9-1.6-1.5c-0.4-0.6-0.6-1.4-0.6-2.5c0-1.7,0.5-2.9,1.4-3.7c1-0.8,2.3-1.2,4-1.2c1.3,0,2.3,0.1,3.2,0.3
			c0.9,0.2,1.6,0.5,2.2,0.8l-0.7,2.3c-0.5-0.3-1.2-0.5-1.9-0.7c-0.8-0.2-1.6-0.3-2.4-0.3c-1,0-1.8,0.2-2.3,0.5
			c-0.5,0.4-0.7,1-0.7,1.8c0,0.6,0.2,1.1,0.6,1.4c0.4,0.3,0.9,0.6,1.6,0.9c0.6,0.3,1.3,0.5,2,0.8c0.7,0.3,1.4,0.6,2,1
			c0.6,0.4,1.1,1,1.6,1.6c0.4,0.6,0.6,1.5,0.6,2.5c0,0.7-0.1,1.5-0.4,2.1c-0.2,0.7-0.6,1.2-1.1,1.7c-0.5,0.5-1.2,0.8-1.9,1.1
			c-0.8,0.3-1.7,0.4-2.7,0.4c-1.3,0-2.5-0.1-3.4-0.4c-0.9-0.3-1.7-0.6-2.3-0.9l0.8-2.4c0.5,0.3,1.2,0.6,2.1,0.8
			c0.9,0.3,1.7,0.4,2.6,0.4c1,0,1.8-0.2,2.5-0.6C378.7,250,379,249.3,379,248.3z"/>
		<path fill="#727272" d="M386.5,237.3c0-0.6,0.2-1.1,0.5-1.5c0.4-0.4,0.8-0.5,1.5-0.5c0.6,0,1.1,0.2,1.5,0.5
			c0.4,0.4,0.6,0.9,0.6,1.5c0,0.6-0.2,1.1-0.6,1.5c-0.4,0.4-0.9,0.6-1.5,0.6c-0.6,0-1.1-0.2-1.5-0.6
			C386.7,238.4,386.5,237.9,386.5,237.3z M386.5,251.4c0-0.6,0.2-1.1,0.5-1.5c0.4-0.4,0.8-0.5,1.5-0.5c0.6,0,1.1,0.2,1.5,0.5
			c0.4,0.4,0.6,0.9,0.6,1.5c0,0.6-0.2,1.1-0.6,1.5c-0.4,0.4-0.9,0.6-1.5,0.6c-0.6,0-1.1-0.2-1.5-0.6
			C386.7,252.5,386.5,252.1,386.5,251.4z"/>
		<path fill="#727272" d="M406,228.1l2.2,1L395.5,258l-2.2-1L406,228.1z"/>
		<path fill="#727272" d="M416.4,228.1l2.2,1L405.8,258l-2.2-1L416.4,228.1z"/>
		<path fill="#727272" d="M433.4,253.9c0,2.3-0.6,3.9-1.8,5c-1.2,1.1-3,1.6-5.3,1.6c-1.4,0-2.5-0.1-3.4-0.3
			c-0.9-0.2-1.6-0.4-2.2-0.7l0.7-2.4c0.5,0.2,1.1,0.4,1.8,0.6c0.7,0.2,1.5,0.3,2.6,0.3c1,0,1.8-0.1,2.4-0.3c0.6-0.2,1.1-0.5,1.5-0.9
			c0.4-0.4,0.6-0.9,0.8-1.6c0.1-0.6,0.2-1.4,0.2-2.3v-1.7h-0.1c-0.5,0.7-1.1,1.2-1.8,1.6c-0.7,0.4-1.7,0.5-2.8,0.5
			c-2.4,0-4.1-0.7-5.2-2.2c-1.1-1.5-1.7-3.8-1.7-6.9c0-3,0.7-5.3,2.1-6.8c1.4-1.6,3.5-2.3,6.3-2.3c1.3,0,2.5,0.1,3.4,0.3
			c0.9,0.2,1.8,0.5,2.5,0.7V253.9z M426.4,251c1.2,0,2.1-0.3,2.8-0.9c0.7-0.6,1.2-1.5,1.4-2.8v-9c-0.9-0.4-2.1-0.7-3.6-0.7
			c-1.6,0-2.8,0.5-3.8,1.6c-0.9,1.1-1.4,2.8-1.4,5.1c0,1,0.1,1.9,0.2,2.7c0.2,0.8,0.4,1.5,0.8,2.1c0.4,0.6,0.8,1,1.4,1.4
			C424.8,250.8,425.5,251,426.4,251z"/>
		<path fill="#727272" d="M438.8,230.2c0-0.5,0.2-1,0.5-1.4c0.4-0.4,0.8-0.6,1.4-0.6c0.6,0,1,0.2,1.4,0.6c0.4,0.4,0.6,0.8,0.6,1.4
			c0,0.5-0.2,1-0.6,1.3c-0.4,0.4-0.9,0.5-1.4,0.5c-0.6,0-1-0.2-1.4-0.5C439,231.2,438.8,230.7,438.8,230.2z M439.4,235.5h2.8v17.5
			h-2.8V235.5z"/>
		<path fill="#727272" d="M455.9,248.3c0-0.7-0.2-1.3-0.6-1.6c-0.4-0.4-0.9-0.7-1.6-1c-0.6-0.3-1.3-0.5-2-0.8s-1.4-0.6-2-0.9
			c-0.6-0.4-1.1-0.9-1.6-1.5c-0.4-0.6-0.6-1.4-0.6-2.5c0-1.7,0.5-2.9,1.4-3.7c1-0.8,2.3-1.2,4-1.2c1.3,0,2.3,0.1,3.2,0.3
			c0.9,0.2,1.6,0.5,2.2,0.8l-0.7,2.3c-0.5-0.3-1.2-0.5-1.9-0.7c-0.8-0.2-1.6-0.3-2.4-0.3c-1,0-1.8,0.2-2.3,0.5
			c-0.5,0.4-0.7,1-0.7,1.8c0,0.6,0.2,1.1,0.6,1.4c0.4,0.3,0.9,0.6,1.6,0.9c0.6,0.3,1.3,0.5,2,0.8c0.7,0.3,1.4,0.6,2,1
			c0.6,0.4,1.1,1,1.6,1.6c0.4,0.6,0.6,1.5,0.6,2.5c0,0.7-0.1,1.5-0.4,2.1c-0.2,0.7-0.6,1.2-1.1,1.7c-0.5,0.5-1.2,0.8-1.9,1.1
			c-0.8,0.3-1.7,0.4-2.7,0.4c-1.3,0-2.5-0.1-3.4-0.4c-0.9-0.3-1.7-0.6-2.3-0.9l0.8-2.4c0.5,0.3,1.2,0.6,2.1,0.8
			c0.9,0.3,1.7,0.4,2.6,0.4c1,0,1.8-0.2,2.5-0.6C455.6,250,455.9,249.3,455.9,248.3z"/>
		<path fill="#727272" d="M460.7,235.5h2.7v-3.5l2.8-0.8v4.3h4.8v2.5h-4.8v9.7c0,1.2,0.2,2.1,0.5,2.6c0.3,0.5,0.8,0.8,1.5,0.8
			c0.6,0,1.1-0.1,1.5-0.2c0.4-0.1,0.9-0.3,1.4-0.5l0.6,2.1c-0.6,0.3-1.3,0.6-2.1,0.7c-0.7,0.2-1.6,0.3-2.4,0.3c-1.4,0-2.4-0.4-3-1.2
			c-0.6-0.8-0.9-2.2-0.9-4.1V238h-2.7V235.5z"/>
		<path fill="#727272" d="M474.4,251.4c0-0.6,0.2-1.1,0.5-1.5c0.4-0.4,0.8-0.5,1.5-0.5c0.6,0,1.1,0.2,1.5,0.5
			c0.4,0.4,0.6,0.9,0.6,1.5c0,0.6-0.2,1.1-0.6,1.5c-0.4,0.4-0.9,0.6-1.5,0.6c-0.6,0-1.1-0.2-1.5-0.6
			C474.6,252.5,474.4,252.1,474.4,251.4z"/>
		<path fill="#727272" d="M496.4,253.9c0,2.3-0.6,3.9-1.8,5c-1.2,1.1-3,1.6-5.3,1.6c-1.4,0-2.5-0.1-3.4-0.3
			c-0.9-0.2-1.6-0.4-2.2-0.7l0.7-2.4c0.5,0.2,1.1,0.4,1.8,0.6c0.7,0.2,1.5,0.3,2.6,0.3c1,0,1.8-0.1,2.4-0.3c0.6-0.2,1.1-0.5,1.5-0.9
			c0.4-0.4,0.6-0.9,0.8-1.6c0.1-0.6,0.2-1.4,0.2-2.3v-1.7h-0.1c-0.5,0.7-1.1,1.2-1.8,1.6c-0.7,0.4-1.7,0.5-2.8,0.5
			c-2.4,0-4.1-0.7-5.2-2.2c-1.1-1.5-1.7-3.8-1.7-6.9c0-3,0.7-5.3,2.1-6.8c1.4-1.6,3.5-2.3,6.3-2.3c1.3,0,2.5,0.1,3.4,0.3
			c0.9,0.2,1.8,0.5,2.5,0.7V253.9z M489.3,251c1.2,0,2.1-0.3,2.8-0.9c0.7-0.6,1.2-1.5,1.4-2.8v-9c-0.9-0.4-2.1-0.7-3.6-0.7
			c-1.6,0-2.8,0.5-3.8,1.6c-0.9,1.1-1.4,2.8-1.4,5.1c0,1,0.1,1.9,0.2,2.7c0.2,0.8,0.4,1.5,0.8,2.1c0.4,0.6,0.8,1,1.4,1.4
			C487.8,250.8,488.5,251,489.3,251z"/>
		<path fill="#727272" d="M501.8,230.2c0-0.5,0.2-1,0.5-1.4c0.4-0.4,0.8-0.6,1.4-0.6s1,0.2,1.4,0.6c0.4,0.4,0.6,0.8,0.6,1.4
			c0,0.5-0.2,1-0.6,1.3c-0.4,0.4-0.9,0.5-1.4,0.5s-1-0.2-1.4-0.5C501.9,231.2,501.8,230.7,501.8,230.2z M502.4,235.5h2.8v17.5h-2.8
			V235.5z"/>
		<path fill="#727272" d="M508.8,235.5h2.7v-3.5l2.8-0.8v4.3h4.8v2.5h-4.8v9.7c0,1.2,0.2,2.1,0.5,2.6c0.3,0.5,0.8,0.8,1.5,0.8
			c0.6,0,1.1-0.1,1.5-0.2s0.9-0.3,1.4-0.5l0.6,2.1c-0.6,0.3-1.3,0.6-2.1,0.7c-0.7,0.2-1.6,0.3-2.4,0.3c-1.4,0-2.4-0.4-3-1.2
			c-0.6-0.8-0.9-2.2-0.9-4.1V238h-2.7V235.5z"/>
		<path fill="#727272" d="M534.3,253.1v-10c0-0.9-0.1-1.7-0.2-2.4c-0.1-0.7-0.3-1.3-0.6-1.7c-0.3-0.5-0.7-0.8-1.1-1
			c-0.5-0.2-1.1-0.4-1.9-0.4c-1.1,0-2.1,0.4-3,1.1c-0.9,0.7-1.5,1.6-1.7,2.8v11.7h-2.8v-24.6h2.8v9h0.1c0.6-0.7,1.3-1.3,2.2-1.7
			c0.9-0.4,1.9-0.6,3.2-0.6c1,0,1.8,0.1,2.6,0.3c0.7,0.2,1.3,0.6,1.8,1.2c0.5,0.6,0.8,1.3,1.1,2.3c0.2,0.9,0.3,2.1,0.3,3.6v10.6
			H534.3z"/>
		<path fill="#727272" d="M544.8,235.5v10c0,0.9,0.1,1.7,0.2,2.4c0.1,0.7,0.3,1.3,0.5,1.7c0.3,0.5,0.6,0.8,1.1,1
			c0.4,0.2,1,0.4,1.7,0.4c0.6,0,1.2-0.1,1.7-0.3c0.5-0.2,0.9-0.5,1.3-0.8c0.4-0.4,0.7-0.8,1-1.2c0.3-0.5,0.5-0.9,0.7-1.5v-11.7h2.8
			v12.6c0,0.8,0,1.7,0.1,2.6c0.1,0.9,0.2,1.7,0.3,2.4h-1.9l-0.7-2.8h-0.2c-0.5,0.9-1.3,1.7-2.2,2.3c-0.9,0.6-2.1,0.9-3.5,0.9
			c-0.9,0-1.8-0.1-2.5-0.3c-0.7-0.2-1.3-0.6-1.8-1.2c-0.5-0.6-0.8-1.3-1.1-2.3c-0.2-0.9-0.4-2.1-0.4-3.6v-10.6H544.8z"/>
		<path fill="#727272" d="M561.1,228.5h2.8v8.7h0.1c0.5-0.7,1.2-1.2,2.1-1.6c0.8-0.4,1.7-0.6,2.7-0.6c2.3,0,4,0.7,5.1,2.2
			c1.1,1.5,1.7,3.7,1.7,6.7c0,3.1-0.7,5.4-2.2,7c-1.5,1.6-3.6,2.4-6.3,2.4c-1.3,0-2.5-0.1-3.6-0.4c-1.1-0.3-1.9-0.6-2.4-0.9V228.5z
			 M568.4,237.6c-1.2,0-2.1,0.3-2.8,1c-0.7,0.7-1.3,1.6-1.6,2.8v8.8c0.4,0.3,1,0.5,1.6,0.6c0.6,0.1,1.3,0.2,2,0.2
			c1.6,0,2.9-0.6,3.8-1.7c0.9-1.1,1.4-2.9,1.4-5.3c0-0.9-0.1-1.8-0.2-2.6c-0.2-0.8-0.4-1.5-0.8-2c-0.4-0.6-0.8-1-1.4-1.3
			C569.8,237.7,569.2,237.6,568.4,237.6z"/>
		<path fill="#727272" d="M578.7,251.4c0-0.6,0.2-1.1,0.5-1.5c0.4-0.4,0.8-0.5,1.5-0.5c0.6,0,1.1,0.2,1.5,0.5
			c0.4,0.4,0.6,0.9,0.6,1.5c0,0.6-0.2,1.1-0.6,1.5c-0.4,0.4-0.9,0.6-1.5,0.6c-0.6,0-1.1-0.2-1.5-0.6
			C578.9,252.5,578.7,252.1,578.7,251.4z"/>
		<path fill="#727272" d="M599.1,251.9c-0.7,0.5-1.5,0.9-2.5,1.2c-1,0.3-2,0.4-3,0.4c-1.4,0-2.5-0.2-3.4-0.6
			c-0.9-0.4-1.7-1.1-2.3-1.9s-1-1.8-1.3-2.9c-0.3-1.1-0.4-2.4-0.4-3.8c0-3,0.7-5.2,2-6.8c1.3-1.6,3.2-2.4,5.6-2.4
			c1.1,0,2.1,0.1,2.9,0.3c0.8,0.2,1.5,0.4,2.1,0.8l-0.8,2.4c-0.5-0.3-1.1-0.5-1.8-0.7c-0.7-0.2-1.4-0.3-2.1-0.3c-3.3,0-5,2.2-5,6.7
			c0,0.9,0.1,1.7,0.3,2.5c0.2,0.8,0.5,1.5,0.9,2.1c0.4,0.6,0.9,1.1,1.6,1.5c0.7,0.4,1.5,0.6,2.5,0.6c0.8,0,1.6-0.1,2.3-0.4
			c0.7-0.3,1.2-0.5,1.6-0.9L599.1,251.9z"/>
		<path fill="#727272" d="M601.2,244.3c0-3,0.7-5.2,2-6.8c1.3-1.6,3.2-2.4,5.7-2.4c1.3,0,2.4,0.2,3.4,0.6c1,0.4,1.8,1.1,2.4,1.9
			c0.6,0.8,1.1,1.8,1.4,2.9c0.3,1.1,0.5,2.4,0.5,3.8c0,3-0.7,5.2-2,6.8c-1.3,1.6-3.2,2.4-5.7,2.4c-1.3,0-2.4-0.2-3.4-0.6
			c-1-0.4-1.8-1.1-2.4-1.9s-1.1-1.8-1.4-2.9C601.4,246.9,601.2,245.7,601.2,244.3z M604.1,244.3c0,0.9,0.1,1.7,0.3,2.6
			c0.2,0.8,0.4,1.5,0.8,2.1c0.4,0.6,0.9,1.1,1.5,1.5c0.6,0.4,1.3,0.6,2.2,0.6c3.2,0,4.8-2.2,4.8-6.7c0-0.9-0.1-1.8-0.3-2.6
			c-0.2-0.8-0.5-1.5-0.8-2.1c-0.4-0.6-0.9-1.1-1.5-1.5c-0.6-0.4-1.3-0.5-2.2-0.5C605.7,237.5,604.1,239.8,604.1,244.3z"/>
		<path fill="#727272" d="M631.3,253.1v-9.9c0-0.9,0-1.7-0.1-2.4c-0.1-0.7-0.2-1.3-0.5-1.7c-0.2-0.5-0.6-0.8-1-1.1
			c-0.4-0.2-1-0.4-1.7-0.4c-1.1,0-2,0.3-2.7,1c-0.7,0.7-1.2,1.5-1.5,2.5v12.1H621v-17.5h2l0.5,2.1h0.1c0.6-0.7,1.4-1.4,2.2-1.8
			c0.8-0.5,1.9-0.7,3.2-0.7c1.1,0,2,0.2,2.8,0.6c0.7,0.4,1.3,1.2,1.7,2.3c0.5-0.9,1.3-1.6,2.2-2.1c0.9-0.5,2-0.8,3.2-0.8
			c1,0,1.8,0.1,2.5,0.3c0.7,0.2,1.2,0.6,1.7,1.2c0.4,0.6,0.8,1.3,1,2.3c0.2,1,0.3,2.2,0.3,3.6v10.5h-2.8v-10.6c0-0.8,0-1.6-0.1-2.2
			c-0.1-0.6-0.2-1.1-0.5-1.5c-0.2-0.4-0.6-0.7-1-0.9c-0.4-0.2-1-0.3-1.7-0.3c-1.2,0-2.1,0.3-2.7,1c-0.7,0.7-1.1,1.6-1.4,2.8v11.7
			H631.3z"/>
	</g>
	<g>
		<path fill="#24669B" d="M424.5,405.4h4.2c0.3,1.1,0.5,2.4,0.8,3.9c0.2,1.5,0.4,3.1,0.6,4.9c0.2,1.7,0.3,3.4,0.4,5.1
			c0.1,1.7,0.1,3.2,0.1,4.6c-2.4,1.5-5.3,2.5-8.9,3.1c-3.6,0.6-7.2,0.9-10.9,0.9c-5.6,0-10.7-0.7-15.3-2.1
			c-4.6-1.4-8.5-3.6-11.7-6.6c-3.2-3-5.7-6.8-7.5-11.5c-1.8-4.6-2.6-10.2-2.6-16.7c0-6.4,1-12,2.9-16.6c1.9-4.6,4.5-8.4,7.8-11.4
			c3.3-3,7-5.2,11.3-6.6c4.3-1.4,8.8-2.1,13.6-2.1c4.5,0,8.5,0.3,12.1,1c3.6,0.6,6.6,1.5,8.9,2.6c0,1.1-0.1,2.5-0.2,4.2
			c-0.1,1.7-0.3,3.5-0.5,5.3c-0.2,1.9-0.5,3.7-0.8,5.5c-0.3,1.8-0.6,3.3-0.9,4.5h-4.3l-5.6-15.3c-0.6-0.3-1.6-0.6-2.9-0.8
			c-1.4-0.2-2.7-0.3-4.2-0.3c-2.8,0-5.4,0.6-7.8,1.7c-2.4,1.1-4.6,2.9-6.5,5.3c-1.9,2.4-3.4,5.6-4.5,9.4c-1.1,3.8-1.6,8.4-1.6,13.8
			c0,9.7,1.9,17.1,5.8,22.3c3.9,5.2,9.1,7.8,15.7,7.8c1.9,0,3.5-0.2,4.8-0.5s2.2-0.7,2.7-1.3L424.5,405.4z"/>
		<path fill="#24669B" d="M444,355.6h33.3v3.9c-1.4,0.7-3,1.4-4.7,1.9c-1.7,0.5-3.4,0.9-5,1.1v57.7h19.6l6.8-18.2h4.2
			c0.3,1.6,0.5,3.4,0.8,5.5c0.2,2.1,0.4,4.3,0.6,6.6c0.1,2.3,0.2,4.6,0.3,6.8c0.1,2.2,0.1,4.2,0,5.9H444v-3.9c1.6-0.8,3-1.5,4.4-1.9
			c1.4-0.5,2.7-0.8,3.9-1v-57.5c-3.3-0.5-6.1-1.5-8.3-2.9V355.6z"/>
		<path fill="#24669B" d="M534.4,426.7h-25.1v-3.9c1.1-0.7,2.3-1.3,3.5-1.8c1.3-0.5,2.5-0.9,3.7-1.2l26.2-65.5h7.5l25.5,65.5
			c1.4,0.3,2.7,0.7,4.1,1.2c1.4,0.5,2.5,1.1,3.6,1.8v3.9h-31.8v-3.9c1.3-0.6,2.7-1.2,4.2-1.7c1.5-0.5,2.9-0.9,4.3-1.2l-5.9-16.1
			h-22.5l-6,16.1c3.1,0.4,6.1,1.4,8.8,2.9V426.7z M533.9,397.2h18l-6.6-19.4l-1.9-8.7h-0.2L541,378L533.9,397.2z"/>
	</g>
	<circle fill="#C1C1C1" cx="307.9" cy="166.7" r="9.8"/>
	<circle fill="#C1C1C1" cx="337.4" cy="166.7" r="9.8"/>
	<circle fill="#C1C1C1" cx="366" cy="166.7" r="9.8"/>
	<g>
		<path fill="#24669B" d="M327.2,393.8l34.3-34.3c1.4-1.4,1.4-3.7,0-5.1l-2.6-2.6c-1.4-1.4-3.7-1.4-5.1,0l-39.2,39.2
			c-0.8,0.8-1.1,1.9-1,2.9c-0.1,1,0.3,2.1,1,2.9l39.2,39.2c1.4,1.4,3.7,1.4,5.1,0l2.6-2.6c1.4-1.4,1.4-3.7,0-5.1L327.2,393.8z"/>
		<path fill="#2C3E50" d="M327.2,393.8l-7.8,7.6l34.9,35c1.4,1.4,3.7,1.4,5.2,0l2.6-2.6c1.4-1.4,1.4-3.7,0-5.1L327.2,393.8z"/>
	</g>
	<g>
		<path fill="#24669B" d="M625.5,394.2l-34.3,34.3c-1.4,1.4-1.4,3.7,0,5.1l2.6,2.6c1.4,1.4,3.7,1.4,5.1,0L638,397
			c0.8-0.8,1.1-1.9,1-2.9c0.1-1-0.3-2.1-1-2.9l-39.2-39.2c-1.4-1.4-3.7-1.4-5.1,0l-2.6,2.6c-1.4,1.4-1.4,3.7,0,5.1L625.5,394.2z"/>
		<path fill="#2C3E50" d="M625.5,394.2l7.7-7.7L599,352c-1.4-1.4-3.7-1.4-5.1,0l-2.6,2.6c-1.8,1.5-1.4,4,0,5.4L625.5,394.2z"/>
	</g>
</g>
<linearGradient id="SVGID_1_" gradientUnits="userSpaceOnUse" x1="695.7425" y1="340.9943" x2="607.3635" y2="187.9174">
	<stop  offset="0" style="stop-color:#FFFFFF;stop-opacity:0"/>
	<stop  offset="9.537581e-02" style="stop-color:#F0F0F0;stop-opacity:6.676307e-02"/>
	<stop  offset="0.2801" style="stop-color:#C7C7C7;stop-opacity:0.196"/>
	<stop  offset="0.5356" style="stop-color:#868686;stop-opacity:0.3749"/>
	<stop  offset="0.8489" style="stop-color:#2D2D2D;stop-opacity:0.5942"/>
	<stop  offset="1" style="stop-color:#000000;stop-opacity:0.7"/>
</linearGradient>
<polygon fill="url(#SVGID_1_)" points="560,215.3 686.9,346.1 686.4,215.4 "/>
<circle fill="#FFFFFF" cx="640.8" cy="138.1" r="102.4"/>
<path fill="#39B54A" d="M640.8,250.5c-62,0-112.4-50.4-112.4-112.4S578.8,25.7,640.8,25.7s112.4,50.4,112.4,112.4
	S702.8,250.5,640.8,250.5z M640.8,45.7c-51,0-92.4,41.5-92.4,92.4s41.5,92.4,92.4,92.4s92.4-41.5,92.4-92.4S691.8,45.7,640.8,45.7z"
	/>
<linearGradient id="SVGID_2_" gradientUnits="userSpaceOnUse" x1="714.8333" y1="214.5" x2="633.5" y2="133.1667">
	<stop  offset="0" style="stop-color:#FFFFFF;stop-opacity:0"/>
	<stop  offset="0.1227" style="stop-color:#FBFBFB;stop-opacity:8.589495e-02"/>
	<stop  offset="0.2479" style="stop-color:#EFEFEF;stop-opacity:0.1735"/>
	<stop  offset="0.3742" style="stop-color:#DADADA;stop-opacity:0.262"/>
	<stop  offset="0.5014" style="stop-color:#BEBEBE;stop-opacity:0.351"/>
	<stop  offset="0.6293" style="stop-color:#999999;stop-opacity:0.4405"/>
	<stop  offset="0.7579" style="stop-color:#6B6B6B;stop-opacity:0.5305"/>
	<stop  offset="0.8844" style="stop-color:#373737;stop-opacity:0.619"/>
	<stop  offset="1" style="stop-color:#000000;stop-opacity:0.7"/>
</linearGradient>
<polygon fill="url(#SVGID_2_)" points="583.3,190.7 636.7,242.7 704.7,224.7 741.3,146 687.3,79.3 684,165.3 "/>
<path fill="#009245" stroke="#009245" stroke-width="10" stroke-miterlimit="10" d="M675.3,171.3h-52c-6.6,0-12-5.4-12-12v-70
	c0-6.6,5.4-12,12-12h52c6.6,0,12,5.4,12,12v70C687.3,165.9,681.9,171.3,675.3,171.3z"/>
<linearGradient id="SVGID_3_" gradientUnits="userSpaceOnUse" x1="701.25" y1="227.75" x2="614.25" y2="140.75">
	<stop  offset="0" style="stop-color:#FFFFFF;stop-opacity:0"/>
	<stop  offset="9.537581e-02" style="stop-color:#F0F0F0;stop-opacity:6.676307e-02"/>
	<stop  offset="0.2801" style="stop-color:#C7C7C7;stop-opacity:0.196"/>
	<stop  offset="0.5356" style="stop-color:#868686;stop-opacity:0.3749"/>
	<stop  offset="0.8489" style="stop-color:#2D2D2D;stop-opacity:0.5942"/>
	<stop  offset="1" style="stop-color:#000000;stop-opacity:0.7"/>
</linearGradient>
<polygon fill="url(#SVGID_3_)" points="580,188 641,245 730,199 655,100 "/>
<path fill="#009245" d="M725.1,63.8l-7.4,6.7l-7.5,6.7c14.3,16.3,23,37.6,23,60.9c0,51-41.5,92.4-92.4,92.4
	c-26.7,0-50.8-11.4-67.7-29.6l-7.5,6.7l-7.4,6.7c20.6,22.2,49.9,36.2,82.5,36.2c62,0,112.4-50.4,112.4-112.4
	C753.2,109.7,742.6,83.6,725.1,63.8z"/>
<path fill="#FFFFFF" stroke="#39B54A" stroke-width="10" stroke-miterlimit="10" d="M643.3,189.3h-52c-6.6,0-12-5.4-12-12v-70
	c0-6.6,5.4-12,12-12h52c6.6,0,12,5.4,12,12v70C655.3,183.9,649.9,189.3,643.3,189.3z"/>
<linearGradient id="SVGID_4_" gradientUnits="userSpaceOnUse" x1="677.4561" y1="238.2568" x2="677.4561" y2="238.2568">
	<stop  offset="0" style="stop-color:#FFFFFF;stop-opacity:0"/>
	<stop  offset="9.537581e-02" style="stop-color:#F0F0F0;stop-opacity:6.676307e-02"/>
	<stop  offset="0.2801" style="stop-color:#C7C7C7;stop-opacity:0.196"/>
	<stop  offset="0.5356" style="stop-color:#868686;stop-opacity:0.3749"/>
	<stop  offset="0.8489" style="stop-color:#2D2D2D;stop-opacity:0.5942"/>
	<stop  offset="1" style="stop-color:#000000;stop-opacity:0.7"/>
</linearGradient>
<path fill="url(#SVGID_4_)" d="M677.5,238.3"/>
</svg>
