<?xml version="1.0" encoding="utf-8"?>
<!-- Generator: Adobe Illustrator 18.1.1, SVG Export Plug-In . SVG Version: 6.00 Build 0)  -->
<svg version="1.1" id="Layer_1" xmlns="http://www.w3.org/2000/svg" xmlns:xlink="http://www.w3.org/1999/xlink" x="0px" y="0px"
	 viewBox="0 0 956 708" enable-background="new 0 0 956 708" xml:space="preserve">
<g>
	<path fill="#878787" d="M422.4,137h-345c0,0-34.5,0-34.5,34.3v398c0,55,59.7,47.6,59.7,47.6l276.7-0.3c52.3,0,77.5-3.1,77.5-50.4
		V171.3C456.9,137,422.4,137,422.4,137z M215.4,274.1h-34.5v34.3h34.5V274.1z M215.4,205.6h-34.5v34.3h34.5V205.6z M215.4,411.2
		h-34.5v34.3h34.5V411.2z M215.4,342.7h-34.5v34.3h34.5V342.7z"/>
	<path fill="#E6E6E6" d="M408.7,617.3H91c-34.3,0-48.2-18.6-48.2-50.7v-45.1H457v49.1C457,601.7,439.4,617.3,408.7,617.3z"/>
	<linearGradient id="SVGID_1_" gradientUnits="userSpaceOnUse" x1="364.846" y1="574.715" x2="273.1896" y2="415.9614">
		<stop  offset="0" style="stop-color:#FFFFFF;stop-opacity:0"/>
		<stop  offset="9.537581e-02" style="stop-color:#F0F0F0;stop-opacity:6.676307e-02"/>
		<stop  offset="0.2801" style="stop-color:#C7C7C7;stop-opacity:0.196"/>
		<stop  offset="0.5356" style="stop-color:#868686;stop-opacity:0.3749"/>
		<stop  offset="0.8489" style="stop-color:#2D2D2D;stop-opacity:0.5942"/>
		<stop  offset="1" style="stop-color:#000000;stop-opacity:0.7"/>
	</linearGradient>
	<polygon fill="url(#SVGID_1_)" points="162.9,479.7 201.6,521.3 456.9,521.6 456.9,479.3 	"/>
	<path fill="#E6E6E6" d="M457.3,486H174.4c-19.9,0-35.9-16.1-35.9-35.9V136.6h285.3c18.5,0,33.5,15,33.5,33.5V486z"/>
	<g>
		<path fill="#727272" d="M182.3,415.4c-1.4,1.6-2.3,3.7-2.3,6v16c0,5.1,4.3,9.6,9.4,9.6h16c2.1,0,3.9-0.9,5.5-2L182.3,415.4z"/>
		<path fill="#727272" d="M215,437.4v-16c0-5.1-4.5-9.4-9.6-9.4h-16c-2.8,0-5.3,1.3-7,3.3l28.7,29.5
			C213.4,443.1,215,440.4,215,437.4z"/>
		<linearGradient id="SVGID_2_" gradientUnits="userSpaceOnUse" x1="259.4207" y1="522.3508" x2="191.2453" y2="404.2676">
			<stop  offset="0" style="stop-color:#FFFFFF;stop-opacity:0"/>
			<stop  offset="9.537581e-02" style="stop-color:#F0F0F0;stop-opacity:6.676307e-02"/>
			<stop  offset="0.2801" style="stop-color:#C7C7C7;stop-opacity:0.196"/>
			<stop  offset="0.5356" style="stop-color:#868686;stop-opacity:0.3749"/>
			<stop  offset="0.8489" style="stop-color:#2D2D2D;stop-opacity:0.5942"/>
			<stop  offset="1" style="stop-color:#000000;stop-opacity:0.7"/>
		</linearGradient>
		<path fill="url(#SVGID_2_)" d="M215,437.4v-16c0-5.1-4.5-9.4-9.6-9.4h-16c-2.8,0-5.3,1.3-7,3.3l28.7,29.5
			C213.4,443.1,215,440.4,215,437.4z"/>
	</g>
	<g>
		<path fill="#727272" d="M182.3,347c-1.4,1.6-2.3,3.7-2.3,6v16c0,5.1,4.3,9,9.4,9h16c2.1,0,3.9-0.6,5.5-1.7L182.3,347z"/>
		<path fill="#727272" d="M215,369v-16c0-5.1-4.5-9-9.6-9h-16c-2.8,0-5.3,1.1-7,3.1l28.7,29.4C213.4,374.8,215,372,215,369z"/>
		<linearGradient id="SVGID_3_" gradientUnits="userSpaceOnUse" x1="259.2285" y1="453.7547" x2="191.3097" y2="336.1158">
			<stop  offset="0" style="stop-color:#FFFFFF;stop-opacity:0"/>
			<stop  offset="9.537581e-02" style="stop-color:#F0F0F0;stop-opacity:6.676307e-02"/>
			<stop  offset="0.2801" style="stop-color:#C7C7C7;stop-opacity:0.196"/>
			<stop  offset="0.5356" style="stop-color:#868686;stop-opacity:0.3749"/>
			<stop  offset="0.8489" style="stop-color:#2D2D2D;stop-opacity:0.5942"/>
			<stop  offset="1" style="stop-color:#000000;stop-opacity:0.7"/>
		</linearGradient>
		<path fill="url(#SVGID_3_)" d="M215,369v-16c0-5.1-4.5-9-9.6-9h-16c-2.8,0-5.3,1.1-7,3.1l28.7,29.4C213.4,374.8,215,372,215,369z"
			/>
	</g>
	<g>
		<path fill="#727272" d="M182.3,278.5c-1.4,1.6-2.3,3.7-2.3,6v16c0,5.1,4.3,9.4,9.4,9.4h16c2.1,0,3.9-0.8,5.5-1.9L182.3,278.5z"/>
		<path fill="#727272" d="M215,300.6v-16c0-5.1-4.5-9.5-9.6-9.5h-16c-2.8,0-5.3,1.4-7,3.4l28.7,29.5
			C213.4,306.2,215,303.6,215,300.6z"/>
		<linearGradient id="SVGID_4_" gradientUnits="userSpaceOnUse" x1="259.505" y1="385.6059" x2="191.2171" y2="267.3279">
			<stop  offset="0" style="stop-color:#FFFFFF;stop-opacity:0"/>
			<stop  offset="9.537581e-02" style="stop-color:#F0F0F0;stop-opacity:6.676307e-02"/>
			<stop  offset="0.2801" style="stop-color:#C7C7C7;stop-opacity:0.196"/>
			<stop  offset="0.5356" style="stop-color:#868686;stop-opacity:0.3749"/>
			<stop  offset="0.8489" style="stop-color:#2D2D2D;stop-opacity:0.5942"/>
			<stop  offset="1" style="stop-color:#000000;stop-opacity:0.7"/>
		</linearGradient>
		<path fill="url(#SVGID_4_)" d="M215,300.6v-16c0-5.1-4.5-9.5-9.6-9.5h-16c-2.8,0-5.3,1.4-7,3.4l28.7,29.5
			C213.4,306.2,215,303.6,215,300.6z"/>
	</g>
	<g>
		<path fill="#727272" d="M182.3,208.6c-1.4,1.6-2.3,3.7-2.3,6v16c0,5.1,4.3,9.4,9.4,9.4h16c2.1,0,3.9-0.8,5.5-1.9L182.3,208.6z"/>
		<path fill="#727272" d="M215,230.6v-16c0-5.1-4.5-9.6-9.6-9.6h-16c-2.8,0-5.3,1.4-7,3.4l28.7,29.5
			C213.4,236.2,215,233.7,215,230.6z"/>
		<linearGradient id="SVGID_5_" gradientUnits="userSpaceOnUse" x1="259.5293" y1="315.679" x2="191.209" y2="197.3447">
			<stop  offset="0" style="stop-color:#FFFFFF;stop-opacity:0"/>
			<stop  offset="9.537581e-02" style="stop-color:#F0F0F0;stop-opacity:6.676307e-02"/>
			<stop  offset="0.2801" style="stop-color:#C7C7C7;stop-opacity:0.196"/>
			<stop  offset="0.5356" style="stop-color:#868686;stop-opacity:0.3749"/>
			<stop  offset="0.8489" style="stop-color:#2D2D2D;stop-opacity:0.5942"/>
			<stop  offset="1" style="stop-color:#000000;stop-opacity:0.7"/>
		</linearGradient>
		<path fill="url(#SVGID_5_)" d="M215,230.6v-16c0-5.1-4.5-9.6-9.6-9.6h-16c-2.8,0-5.3,1.4-7,3.4l28.7,29.5
			C213.4,236.2,215,233.7,215,230.6z"/>
	</g>
	
		<linearGradient id="SVGID_6_" gradientUnits="userSpaceOnUse" x1="3349.708" y1="-2442.678" x2="3313.8176" y2="-2504.8423" gradientTransform="matrix(-8.979300e-11 1 1 8.979300e-11 2738.2729 -2738.2729)">
		<stop  offset="0" style="stop-color:#FFFFFF;stop-opacity:0"/>
		<stop  offset="9.537581e-02" style="stop-color:#F0F0F0;stop-opacity:6.676307e-02"/>
		<stop  offset="0.2801" style="stop-color:#C7C7C7;stop-opacity:0.196"/>
		<stop  offset="0.5356" style="stop-color:#868686;stop-opacity:0.3749"/>
		<stop  offset="0.8489" style="stop-color:#2D2D2D;stop-opacity:0.5942"/>
		<stop  offset="1" style="stop-color:#000000;stop-opacity:0.7"/>
	</linearGradient>
	<path fill="url(#SVGID_6_)" d="M247.8,550.7l44.7,52.7l0.1,13.3c-0.2-0.1-44.7,0.1-44.7,0.1L247.8,550.7z"/>
	<g>
		<polygon fill="#2C3E50" points="146.5,551 248.6,551 248.7,688.7 197.6,637 147.9,684.5 		"/>
		<polygon fill="#24669B" points="248.6,586 145.8,689 145.8,551.3 248.6,551.3 		"/>
	</g>
</g>
<g>
	<path fill="#E6E6E6" d="M873.3,617.5H552.2c-24.8,0-45-20.2-45-45V181.8c0-24.8,20.2-45,45-45h321.2c24.8,0,45,20.2,45,45v390.8
		C918.3,597.3,898.1,617.5,873.3,617.5z"/>
	<path fill="#878787" d="M555,131.8h315.6c32.9,0,47.9,10.4,47.9,43.6v15.1H506.9v-19.2C506.9,140.5,524.4,131.8,555,131.8z"/>
	<path fill="#FFFFFF" d="M888.2,268.3H532.7c-6.6,0-12-5.4-12-12v-31c0-6.6,5.4-12,12-12h355.5c6.6,0,12,5.4,12,12v31
		C900.2,262.9,894.8,268.3,888.2,268.3z"/>
	<g>
		<path fill="#727272" d="M551.3,253.1v-10c0-0.9-0.1-1.7-0.2-2.4c-0.1-0.7-0.3-1.3-0.6-1.7c-0.3-0.5-0.7-0.8-1.1-1
			c-0.5-0.2-1.1-0.4-1.9-0.4c-1.1,0-2.1,0.4-3,1.1c-0.9,0.7-1.5,1.6-1.7,2.8v11.7H540v-24.6h2.8v9h0.1c0.6-0.7,1.3-1.3,2.2-1.7
			c0.9-0.4,1.9-0.6,3.2-0.6c1,0,1.8,0.1,2.6,0.3c0.7,0.2,1.3,0.6,1.8,1.2c0.5,0.6,0.8,1.3,1.1,2.3c0.2,0.9,0.3,2.1,0.3,3.6v10.6
			H551.3z"/>
		<path fill="#727272" d="M556.9,235.5h2.7v-3.5l2.8-0.8v4.3h4.8v2.5h-4.8v9.7c0,1.2,0.2,2.1,0.5,2.6c0.3,0.5,0.8,0.8,1.5,0.8
			c0.6,0,1.1-0.1,1.5-0.2c0.4-0.1,0.9-0.3,1.4-0.5l0.6,2.1c-0.6,0.3-1.3,0.6-2.1,0.7c-0.7,0.2-1.6,0.3-2.4,0.3c-1.4,0-2.4-0.4-3-1.2
			c-0.6-0.8-0.9-2.2-0.9-4.1V238h-2.7V235.5z"/>
		<path fill="#727272" d="M568.8,235.5h2.7v-3.5l2.8-0.8v4.3h4.8v2.5h-4.8v9.7c0,1.2,0.2,2.1,0.5,2.6c0.3,0.5,0.8,0.8,1.5,0.8
			c0.6,0,1.1-0.1,1.5-0.2c0.4-0.1,0.9-0.3,1.4-0.5l0.6,2.1c-0.6,0.3-1.3,0.6-2.1,0.7c-0.7,0.2-1.6,0.3-2.4,0.3c-1.4,0-2.4-0.4-3-1.2
			c-0.6-0.8-0.9-2.2-0.9-4.1V238h-2.7V235.5z"/>
		<path fill="#727272" d="M583,235.5h1.9l0.5,2.1h0.1c0.5-0.8,1.2-1.4,2.1-1.9c0.9-0.4,1.8-0.6,2.9-0.6c2.3,0,4.1,0.7,5.2,2.1
			c1.1,1.4,1.7,3.6,1.7,6.8c0,1.5-0.2,2.8-0.6,4c-0.4,1.2-0.9,2.2-1.6,3c-0.7,0.8-1.5,1.5-2.5,1.9c-1,0.4-2.1,0.7-3.3,0.7
			c-0.9,0-1.5-0.1-2.1-0.2c-0.5-0.1-1-0.3-1.6-0.5v7.3H583V235.5z M590.1,237.6c-1.2,0-2.1,0.3-2.8,0.9c-0.7,0.6-1.2,1.6-1.5,2.8
			v8.7c0.4,0.3,0.9,0.6,1.4,0.8c0.5,0.2,1.3,0.3,2.1,0.3c1.6,0,2.9-0.6,3.8-1.8c0.9-1.2,1.4-3,1.4-5.3c0-1-0.1-1.8-0.2-2.6
			c-0.2-0.8-0.4-1.4-0.8-2c-0.4-0.5-0.8-1-1.4-1.3C591.6,237.7,590.9,237.6,590.1,237.6z"/>
		<path fill="#727272" d="M609.7,248.3c0-0.7-0.2-1.3-0.6-1.6c-0.4-0.4-0.9-0.7-1.6-1c-0.6-0.3-1.3-0.5-2-0.8
			c-0.7-0.2-1.4-0.6-2-0.9c-0.6-0.4-1.1-0.9-1.6-1.5c-0.4-0.6-0.6-1.4-0.6-2.5c0-1.7,0.5-2.9,1.4-3.7c1-0.8,2.3-1.2,4-1.2
			c1.3,0,2.3,0.1,3.2,0.3c0.9,0.2,1.6,0.5,2.2,0.8l-0.7,2.3c-0.5-0.3-1.2-0.5-1.9-0.7c-0.8-0.2-1.6-0.3-2.4-0.3
			c-1,0-1.8,0.2-2.3,0.5c-0.5,0.4-0.7,1-0.7,1.8c0,0.6,0.2,1.1,0.6,1.4c0.4,0.3,0.9,0.6,1.6,0.9c0.6,0.3,1.3,0.5,2,0.8
			c0.7,0.3,1.4,0.6,2,1c0.6,0.4,1.1,1,1.6,1.6c0.4,0.6,0.6,1.5,0.6,2.5c0,0.7-0.1,1.5-0.4,2.1c-0.2,0.7-0.6,1.2-1.1,1.7
			c-0.5,0.5-1.2,0.8-1.9,1.1c-0.8,0.3-1.7,0.4-2.7,0.4c-1.3,0-2.5-0.1-3.4-0.4c-0.9-0.3-1.7-0.6-2.3-0.9l0.8-2.4
			c0.5,0.3,1.2,0.6,2.1,0.8c0.9,0.3,1.7,0.4,2.6,0.4c1,0,1.8-0.2,2.5-0.6C609.4,250,609.7,249.3,609.7,248.3z"/>
		<path fill="#727272" d="M617.2,237.3c0-0.6,0.2-1.1,0.5-1.5c0.4-0.4,0.8-0.5,1.5-0.5c0.6,0,1.1,0.2,1.5,0.5
			c0.4,0.4,0.6,0.9,0.6,1.5c0,0.6-0.2,1.1-0.6,1.5c-0.4,0.4-0.9,0.6-1.5,0.6c-0.6,0-1.1-0.2-1.5-0.6
			C617.4,238.4,617.2,237.9,617.2,237.3z M617.2,251.4c0-0.6,0.2-1.1,0.5-1.5c0.4-0.4,0.8-0.5,1.5-0.5c0.6,0,1.1,0.2,1.5,0.5
			c0.4,0.4,0.6,0.9,0.6,1.5c0,0.6-0.2,1.1-0.6,1.5c-0.4,0.4-0.9,0.6-1.5,0.6c-0.6,0-1.1-0.2-1.5-0.6
			C617.4,252.5,617.2,252.1,617.2,251.4z"/>
		<path fill="#727272" d="M636.7,228.1l2.2,1L626.2,258l-2.2-1L636.7,228.1z"/>
		<path fill="#727272" d="M647.1,228.1l2.2,1L636.5,258l-2.2-1L647.1,228.1z"/>
		<path fill="#727272" d="M664.1,253.9c0,2.3-0.6,3.9-1.8,5c-1.2,1.1-3,1.6-5.3,1.6c-1.4,0-2.5-0.1-3.4-0.3
			c-0.9-0.2-1.6-0.4-2.2-0.7l0.7-2.4c0.5,0.2,1.1,0.4,1.8,0.6c0.7,0.2,1.5,0.3,2.6,0.3c1,0,1.8-0.1,2.4-0.3c0.6-0.2,1.1-0.5,1.5-0.9
			c0.4-0.4,0.6-0.9,0.8-1.6c0.1-0.6,0.2-1.4,0.2-2.3v-1.7h-0.1c-0.5,0.7-1.1,1.2-1.8,1.6c-0.7,0.4-1.7,0.5-2.8,0.5
			c-2.4,0-4.1-0.7-5.2-2.2c-1.1-1.5-1.7-3.8-1.7-6.9c0-3,0.7-5.3,2.1-6.8c1.4-1.6,3.5-2.3,6.3-2.3c1.3,0,2.5,0.1,3.4,0.3
			c0.9,0.2,1.8,0.5,2.5,0.7V253.9z M657.1,251c1.2,0,2.1-0.3,2.8-0.9c0.7-0.6,1.2-1.5,1.4-2.8v-9c-0.9-0.4-2.1-0.7-3.6-0.7
			c-1.6,0-2.8,0.5-3.8,1.6c-0.9,1.1-1.4,2.8-1.4,5.1c0,1,0.1,1.9,0.2,2.7c0.2,0.8,0.4,1.5,0.8,2.1c0.4,0.6,0.8,1,1.4,1.4
			C655.5,250.8,656.2,251,657.1,251z"/>
		<path fill="#727272" d="M669.5,230.2c0-0.5,0.2-1,0.5-1.4c0.4-0.4,0.8-0.6,1.4-0.6s1,0.2,1.4,0.6c0.4,0.4,0.6,0.8,0.6,1.4
			c0,0.5-0.2,1-0.6,1.3c-0.4,0.4-0.9,0.5-1.4,0.5s-1-0.2-1.4-0.5C669.7,231.2,669.5,230.7,669.5,230.2z M670.1,235.5h2.8v17.5h-2.8
			V235.5z"/>
		<path fill="#727272" d="M686.6,248.3c0-0.7-0.2-1.3-0.6-1.6c-0.4-0.4-0.9-0.7-1.6-1c-0.6-0.3-1.3-0.5-2-0.8
			c-0.7-0.2-1.4-0.6-2-0.9c-0.6-0.4-1.1-0.9-1.6-1.5c-0.4-0.6-0.6-1.4-0.6-2.5c0-1.7,0.5-2.9,1.4-3.7c1-0.8,2.3-1.2,4-1.2
			c1.3,0,2.3,0.1,3.2,0.3c0.9,0.2,1.6,0.5,2.2,0.8l-0.7,2.3c-0.5-0.3-1.2-0.5-1.9-0.7c-0.8-0.2-1.6-0.3-2.4-0.3
			c-1,0-1.8,0.2-2.3,0.5c-0.5,0.4-0.7,1-0.7,1.8c0,0.6,0.2,1.1,0.6,1.4c0.4,0.3,0.9,0.6,1.6,0.9c0.6,0.3,1.3,0.5,2,0.8
			c0.7,0.3,1.4,0.6,2,1c0.6,0.4,1.1,1,1.6,1.6c0.4,0.6,0.6,1.5,0.6,2.5c0,0.7-0.1,1.5-0.4,2.1c-0.2,0.7-0.6,1.2-1.1,1.7
			c-0.5,0.5-1.2,0.8-1.9,1.1c-0.8,0.3-1.7,0.4-2.7,0.4c-1.3,0-2.5-0.1-3.4-0.4c-0.9-0.3-1.7-0.6-2.3-0.9l0.8-2.4
			c0.5,0.3,1.2,0.6,2.1,0.8c0.9,0.3,1.7,0.4,2.6,0.4c1,0,1.8-0.2,2.5-0.6C686.3,250,686.6,249.3,686.6,248.3z"/>
		<path fill="#727272" d="M691.4,235.5h2.7v-3.5l2.8-0.8v4.3h4.8v2.5h-4.8v9.7c0,1.2,0.2,2.1,0.5,2.6c0.3,0.5,0.8,0.8,1.5,0.8
			c0.6,0,1.1-0.1,1.5-0.2c0.4-0.1,0.9-0.3,1.4-0.5l0.6,2.1c-0.6,0.3-1.3,0.6-2.1,0.7c-0.7,0.2-1.6,0.3-2.4,0.3c-1.4,0-2.4-0.4-3-1.2
			c-0.6-0.8-0.9-2.2-0.9-4.1V238h-2.7V235.5z"/>
		<path fill="#727272" d="M705.1,251.4c0-0.6,0.2-1.1,0.5-1.5c0.4-0.4,0.8-0.5,1.5-0.5c0.6,0,1.1,0.2,1.5,0.5
			c0.4,0.4,0.6,0.9,0.6,1.5c0,0.6-0.2,1.1-0.6,1.5c-0.4,0.4-0.9,0.6-1.5,0.6c-0.6,0-1.1-0.2-1.5-0.6
			C705.3,252.5,705.1,252.1,705.1,251.4z"/>
		<path fill="#727272" d="M727.1,253.9c0,2.3-0.6,3.9-1.8,5c-1.2,1.1-3,1.6-5.3,1.6c-1.4,0-2.5-0.1-3.4-0.3
			c-0.9-0.2-1.6-0.4-2.2-0.7l0.7-2.4c0.5,0.2,1.1,0.4,1.8,0.6c0.7,0.2,1.5,0.3,2.6,0.3c1,0,1.8-0.1,2.4-0.3c0.6-0.2,1.1-0.5,1.5-0.9
			c0.4-0.4,0.6-0.9,0.8-1.6c0.1-0.6,0.2-1.4,0.2-2.3v-1.7h-0.1c-0.5,0.7-1.1,1.2-1.8,1.6c-0.7,0.4-1.7,0.5-2.8,0.5
			c-2.4,0-4.1-0.7-5.2-2.2c-1.1-1.5-1.7-3.8-1.7-6.9c0-3,0.7-5.3,2.1-6.8c1.4-1.6,3.5-2.3,6.3-2.3c1.3,0,2.5,0.1,3.4,0.3
			c0.9,0.2,1.8,0.5,2.5,0.7V253.9z M720,251c1.2,0,2.1-0.3,2.8-0.9c0.7-0.6,1.2-1.5,1.4-2.8v-9c-0.9-0.4-2.1-0.7-3.6-0.7
			c-1.6,0-2.8,0.5-3.8,1.6c-0.9,1.1-1.4,2.8-1.4,5.1c0,1,0.1,1.9,0.2,2.7c0.2,0.8,0.4,1.5,0.8,2.1c0.4,0.6,0.8,1,1.4,1.4
			C718.5,250.8,719.2,251,720,251z"/>
		<path fill="#727272" d="M732.5,230.2c0-0.5,0.2-1,0.5-1.4c0.4-0.4,0.8-0.6,1.4-0.6c0.6,0,1,0.2,1.4,0.6c0.4,0.4,0.6,0.8,0.6,1.4
			c0,0.5-0.2,1-0.6,1.3c-0.4,0.4-0.9,0.5-1.4,0.5c-0.6,0-1-0.2-1.4-0.5C732.6,231.2,732.5,230.7,732.5,230.2z M733.1,235.5h2.8v17.5
			h-2.8V235.5z"/>
		<path fill="#727272" d="M739.5,235.5h2.7v-3.5l2.8-0.8v4.3h4.8v2.5h-4.8v9.7c0,1.2,0.2,2.1,0.5,2.6c0.3,0.5,0.8,0.8,1.5,0.8
			c0.6,0,1.1-0.1,1.5-0.2c0.4-0.1,0.9-0.3,1.4-0.5l0.6,2.1c-0.6,0.3-1.3,0.6-2.1,0.7c-0.7,0.2-1.6,0.3-2.4,0.3c-1.4,0-2.4-0.4-3-1.2
			c-0.6-0.8-0.9-2.2-0.9-4.1V238h-2.7V235.5z"/>
		<path fill="#727272" d="M765,253.1v-10c0-0.9-0.1-1.7-0.2-2.4c-0.1-0.7-0.3-1.3-0.6-1.7c-0.3-0.5-0.7-0.8-1.1-1
			c-0.5-0.2-1.1-0.4-1.9-0.4c-1.1,0-2.1,0.4-3,1.1c-0.9,0.7-1.5,1.6-1.7,2.8v11.7h-2.8v-24.6h2.8v9h0.1c0.6-0.7,1.3-1.3,2.2-1.7
			c0.9-0.4,1.9-0.6,3.2-0.6c1,0,1.8,0.1,2.6,0.3c0.7,0.2,1.3,0.6,1.8,1.2c0.5,0.6,0.8,1.3,1.1,2.3c0.2,0.9,0.3,2.1,0.3,3.6v10.6H765
			z"/>
		<path fill="#727272" d="M775.5,235.5v10c0,0.9,0.1,1.7,0.2,2.4c0.1,0.7,0.3,1.3,0.5,1.7c0.3,0.5,0.6,0.8,1.1,1
			c0.4,0.2,1,0.4,1.7,0.4c0.6,0,1.2-0.1,1.7-0.3c0.5-0.2,0.9-0.5,1.3-0.8c0.4-0.4,0.7-0.8,1-1.2c0.3-0.5,0.5-0.9,0.7-1.5v-11.7h2.8
			v12.6c0,0.8,0,1.7,0.1,2.6c0.1,0.9,0.2,1.7,0.3,2.4h-1.9l-0.7-2.8H784c-0.5,0.9-1.3,1.7-2.2,2.3c-0.9,0.6-2.1,0.9-3.5,0.9
			c-0.9,0-1.8-0.1-2.5-0.3c-0.7-0.2-1.3-0.6-1.8-1.2c-0.5-0.6-0.8-1.3-1.1-2.3c-0.2-0.9-0.4-2.1-0.4-3.6v-10.6H775.5z"/>
		<path fill="#727272" d="M791.8,228.5h2.8v8.7h0.1c0.5-0.7,1.2-1.2,2.1-1.6c0.8-0.4,1.7-0.6,2.7-0.6c2.3,0,4,0.7,5.1,2.2
			c1.1,1.5,1.7,3.7,1.7,6.7c0,3.1-0.7,5.4-2.2,7c-1.5,1.6-3.6,2.4-6.3,2.4c-1.3,0-2.5-0.1-3.6-0.4c-1.1-0.3-1.9-0.6-2.4-0.9V228.5z
			 M799.1,237.6c-1.2,0-2.1,0.3-2.8,1c-0.7,0.7-1.3,1.6-1.6,2.8v8.8c0.4,0.3,1,0.5,1.6,0.6c0.6,0.1,1.3,0.2,2,0.2
			c1.6,0,2.9-0.6,3.8-1.7c0.9-1.1,1.4-2.9,1.4-5.3c0-0.9-0.1-1.8-0.2-2.6c-0.2-0.8-0.4-1.5-0.8-2c-0.4-0.6-0.8-1-1.4-1.3
			C800.5,237.7,799.9,237.6,799.1,237.6z"/>
		<path fill="#727272" d="M809.4,251.4c0-0.6,0.2-1.1,0.5-1.5c0.4-0.4,0.8-0.5,1.5-0.5c0.6,0,1.1,0.2,1.5,0.5
			c0.4,0.4,0.6,0.9,0.6,1.5c0,0.6-0.2,1.1-0.6,1.5c-0.4,0.4-0.9,0.6-1.5,0.6c-0.6,0-1.1-0.2-1.5-0.6
			C809.6,252.5,809.4,252.1,809.4,251.4z"/>
		<path fill="#727272" d="M829.8,251.9c-0.7,0.5-1.5,0.9-2.5,1.2c-1,0.3-2,0.4-3,0.4c-1.4,0-2.5-0.2-3.4-0.6
			c-0.9-0.4-1.7-1.1-2.3-1.9s-1-1.8-1.3-2.9c-0.3-1.1-0.4-2.4-0.4-3.8c0-3,0.7-5.2,2-6.8c1.3-1.6,3.2-2.4,5.6-2.4
			c1.1,0,2.1,0.1,2.9,0.3c0.8,0.2,1.5,0.4,2.1,0.8l-0.8,2.4c-0.5-0.3-1.1-0.5-1.8-0.7c-0.7-0.2-1.4-0.3-2.1-0.3c-3.3,0-5,2.2-5,6.7
			c0,0.9,0.1,1.7,0.3,2.5c0.2,0.8,0.5,1.5,0.9,2.1c0.4,0.6,0.9,1.1,1.6,1.5c0.7,0.4,1.5,0.6,2.5,0.6c0.8,0,1.6-0.1,2.3-0.4
			c0.7-0.3,1.2-0.5,1.6-0.9L829.8,251.9z"/>
		<path fill="#727272" d="M831.9,244.3c0-3,0.7-5.2,2-6.8c1.3-1.6,3.2-2.4,5.7-2.4c1.3,0,2.4,0.2,3.4,0.6c1,0.4,1.8,1.1,2.4,1.9
			c0.6,0.8,1.1,1.8,1.4,2.9c0.3,1.1,0.5,2.4,0.5,3.8c0,3-0.7,5.2-2,6.8c-1.3,1.6-3.2,2.4-5.7,2.4c-1.3,0-2.4-0.2-3.4-0.6
			c-1-0.4-1.8-1.1-2.4-1.9c-0.6-0.8-1.1-1.8-1.4-2.9C832,246.9,831.9,245.7,831.9,244.3z M834.8,244.3c0,0.9,0.1,1.7,0.3,2.6
			c0.2,0.8,0.4,1.5,0.8,2.1c0.4,0.6,0.9,1.1,1.5,1.5c0.6,0.4,1.3,0.6,2.2,0.6c3.2,0,4.8-2.2,4.8-6.7c0-0.9-0.1-1.8-0.3-2.6
			c-0.2-0.8-0.5-1.5-0.8-2.1c-0.4-0.6-0.9-1.1-1.5-1.5c-0.6-0.4-1.3-0.5-2.2-0.5C836.4,237.5,834.8,239.8,834.8,244.3z"/>
		<path fill="#727272" d="M862,253.1v-9.9c0-0.9,0-1.7-0.1-2.4c-0.1-0.7-0.2-1.3-0.5-1.7c-0.2-0.5-0.6-0.8-1-1.1
			c-0.4-0.2-1-0.4-1.7-0.4c-1.1,0-2,0.3-2.7,1c-0.7,0.7-1.2,1.5-1.5,2.5v12.1h-2.8v-17.5h2l0.5,2.1h0.1c0.6-0.7,1.4-1.4,2.2-1.8
			c0.8-0.5,1.9-0.7,3.2-0.7c1.1,0,2,0.2,2.8,0.6c0.7,0.4,1.3,1.2,1.7,2.3c0.5-0.9,1.3-1.6,2.2-2.1c0.9-0.5,2-0.8,3.2-0.8
			c1,0,1.8,0.1,2.5,0.3c0.7,0.2,1.2,0.6,1.7,1.2c0.4,0.6,0.8,1.3,1,2.3c0.2,1,0.3,2.2,0.3,3.6v10.5h-2.8v-10.6c0-0.8,0-1.6-0.1-2.2
			c-0.1-0.6-0.2-1.1-0.5-1.5c-0.2-0.4-0.6-0.7-1-0.9c-0.4-0.2-1-0.3-1.7-0.3c-1.2,0-2.1,0.3-2.7,1c-0.7,0.7-1.1,1.6-1.4,2.8v11.7
			H862z"/>
	</g>
	<g>
		<path fill="#24669B" d="M655.2,406.4h4.2c0.3,1.1,0.5,2.4,0.8,3.9c0.2,1.5,0.4,3.1,0.6,4.9c0.2,1.7,0.3,3.4,0.4,5.1
			c0.1,1.7,0.1,3.2,0.1,4.6c-2.4,1.5-5.3,2.5-8.9,3.1c-3.6,0.6-7.2,0.9-10.9,0.9c-5.6,0-10.7-0.7-15.3-2.1
			c-4.6-1.4-8.5-3.6-11.7-6.6c-3.2-3-5.7-6.8-7.5-11.5c-1.8-4.6-2.6-10.2-2.6-16.7c0-6.4,1-12,2.9-16.6c1.9-4.6,4.5-8.4,7.8-11.4
			c3.3-3,7-5.2,11.3-6.6c4.3-1.4,8.8-2.1,13.6-2.1c4.5,0,8.5,0.3,12.1,1c3.6,0.6,6.6,1.5,8.9,2.6c0,1.1-0.1,2.5-0.2,4.2
			c-0.1,1.7-0.3,3.5-0.5,5.3c-0.2,1.9-0.5,3.7-0.8,5.5c-0.3,1.8-0.6,3.3-0.9,4.5h-4.3l-5.6-15.3c-0.6-0.3-1.6-0.6-2.9-0.8
			c-1.4-0.2-2.7-0.3-4.2-0.3c-2.8,0-5.4,0.6-7.8,1.7c-2.4,1.1-4.6,2.9-6.5,5.3c-1.9,2.4-3.4,5.6-4.5,9.4c-1.1,3.8-1.6,8.4-1.6,13.8
			c0,9.7,1.9,17.1,5.8,22.3c3.9,5.2,9.1,7.8,15.7,7.8c1.9,0,3.5-0.2,4.8-0.5c1.3-0.3,2.2-0.7,2.7-1.3L655.2,406.4z"/>
		<path fill="#24669B" d="M674.7,356.6H708v3.9c-1.4,0.7-3,1.4-4.7,1.9c-1.7,0.5-3.4,0.9-5,1.1v57.7h19.6l6.8-18.2h4.2
			c0.3,1.6,0.5,3.4,0.8,5.5c0.2,2.1,0.4,4.3,0.6,6.6c0.1,2.3,0.2,4.6,0.3,6.8c0.1,2.2,0.1,4.2,0,5.9h-55.8v-3.9
			c1.6-0.8,3-1.5,4.4-1.9c1.4-0.5,2.7-0.8,3.9-1v-57.5c-3.3-0.5-6.1-1.5-8.3-2.9V356.6z"/>
		<path fill="#24669B" d="M765.1,427.7H740v-3.9c1.1-0.7,2.3-1.3,3.5-1.8c1.3-0.5,2.5-0.9,3.7-1.2l26.2-65.5h7.5l25.5,65.5
			c1.4,0.3,2.7,0.7,4.1,1.2c1.4,0.5,2.5,1.1,3.6,1.8v3.9h-31.8v-3.9c1.3-0.6,2.7-1.2,4.2-1.7c1.5-0.5,2.9-0.9,4.3-1.2l-5.9-16.1
			h-22.5l-6,16.1c3.1,0.4,6.1,1.4,8.8,2.9V427.7z M764.6,398.2h18l-6.6-19.4l-1.9-8.7h-0.2l-2.2,8.9L764.6,398.2z"/>
	</g>
	<circle fill="#C1C1C1" cx="538.6" cy="166.7" r="9.8"/>
	<circle fill="#C1C1C1" cx="568.1" cy="166.7" r="9.8"/>
	<circle fill="#C1C1C1" cx="596.7" cy="166.7" r="9.8"/>
	<g>
		<path fill="#24669B" d="M557.9,393.8l34.3-34.3c1.4-1.4,1.4-3.7,0-5.1l-2.6-2.6c-1.4-1.4-3.7-1.4-5.1,0l-39.2,39.2
			c-0.8,0.8-1.1,1.9-1,2.9c-0.1,1,0.3,2.1,1,2.9l39.2,39.2c1.4,1.4,3.7,1.4,5.1,0l2.6-2.6c1.4-1.4,1.4-3.7,0-5.1L557.9,393.8z"/>
		<path fill="#2C3E50" d="M557.9,393.8l-7.8,7.6l34.9,35c1.4,1.4,3.7,1.4,5.2,0l2.6-2.6c1.4-1.4,1.4-3.7,0-5.1L557.9,393.8z"/>
	</g>
	<g>
		<path fill="#24669B" d="M856.2,394.2l-34.3,34.3c-1.4,1.4-1.4,3.7,0,5.1l2.6,2.6c1.4,1.4,3.7,1.4,5.1,0l39.2-39.2
			c0.8-0.8,1.1-1.9,1-2.9c0.1-1-0.3-2.1-1-2.9l-39.2-39.2c-1.4-1.4-3.7-1.4-5.1,0l-2.6,2.6c-1.4,1.4-1.4,3.7,0,5.1L856.2,394.2z"/>
		<path fill="#2C3E50" d="M856.2,394.2l7.7-7.7L829.7,352c-1.4-1.4-3.7-1.4-5.1,0l-2.6,2.6c-1.8,1.5-1.4,4,0,5.4L856.2,394.2z"/>
	</g>
</g>
<g>
	<g>
		<g>
			<circle fill="#FFFFFF" cx="467.3" cy="135.5" r="102.4"/>
			<path fill="#39B54A" d="M467.3,23c-62,0-112.4,50.4-112.4,112.4s50.4,112.4,112.4,112.4s112.4-50.4,112.4-112.4
				S529.3,23,467.3,23z M467.3,227.9c-51,0-92.4-41.5-92.4-92.4S416.3,43,467.3,43s92.4,41.5,92.4,92.4S518.3,227.9,467.3,227.9z"/>
		</g>
	</g>
	
		<linearGradient id="SVGID_7_" gradientUnits="userSpaceOnUse" x1="-7950.3877" y1="-36899.6094" x2="-8041.4214" y2="-36791.1211" gradientTransform="matrix(0.1944 0 0 -0.1944 2019.1903 -7029.7451)">
		<stop  offset="0" style="stop-color:#FFFFFF;stop-opacity:0"/>
		<stop  offset="2.777451e-02" style="stop-color:#F0F0F0;stop-opacity:2.221961e-02"/>
		<stop  offset="0.1399" style="stop-color:#B8B8B8;stop-opacity:0.1119"/>
		<stop  offset="0.2557" style="stop-color:#878787;stop-opacity:0.2046"/>
		<stop  offset="0.3727" style="stop-color:#5E5E5E;stop-opacity:0.2981"/>
		<stop  offset="0.491" style="stop-color:#3C3C3C;stop-opacity:0.3928"/>
		<stop  offset="0.6113" style="stop-color:#212121;stop-opacity:0.489"/>
		<stop  offset="0.7343" style="stop-color:#0F0F0F;stop-opacity:0.5874"/>
		<stop  offset="0.8616" style="stop-color:#040404;stop-opacity:0.6893"/>
		<stop  offset="1" style="stop-color:#000000;stop-opacity:0.8"/>
	</linearGradient>
	<polygon opacity="0.53" fill="url(#SVGID_7_)" points="407.1,187.9 422.5,186.6 455.8,154.6 468.5,133.8 489.8,126.6 528.8,94.1 
		532.1,90 510,79.7 471.3,109.7 474,125.7 462.7,137 441.3,137.7 406,165.7 	"/>
	
		<linearGradient id="SVGID_8_" gradientUnits="userSpaceOnUse" x1="-7595.6875" y1="-37244.7383" x2="-8003.563" y2="-36836.8633" gradientTransform="matrix(0.1944 0 0 -0.1944 2019.1903 -7029.7451)">
		<stop  offset="0" style="stop-color:#FFFFFF;stop-opacity:0"/>
		<stop  offset="9.121197e-02" style="stop-color:#F1F1F1;stop-opacity:8.209077e-02"/>
		<stop  offset="0.2627" style="stop-color:#CDCDCD;stop-opacity:0.2364"/>
		<stop  offset="0.4961" style="stop-color:#939393;stop-opacity:0.4465"/>
		<stop  offset="0.7791" style="stop-color:#434343;stop-opacity:0.7012"/>
		<stop  offset="1" style="stop-color:#000000;stop-opacity:0.9"/>
	</linearGradient>
	<polygon opacity="0.71" fill="url(#SVGID_8_)" points="406.9,187.9 456.5,237.6 531.9,221.4 571.5,143.3 529.5,84.8 493.5,127.7 
		472.9,130 460.1,140.1 459,159.2 426.2,183 	"/>
	<g>
		<path fill="#39B54A" d="M434.3,188.5L434.3,188.5c-9.1,7.9-22.8,6.9-30.7-2.2c-3.8-4.3-5.7-10-5.3-15.8c0.4-5.8,3-11.1,7.4-14.9
			l26.7-23.2c9.1-7.9,22.8-6.9,30.7,2.2c3.8,4.3,5.7,10,5.3,15.8c-0.4,5.8-3,11.1-7.4,14.9L434.3,188.5z M441,142.3l-26.7,23.2
			c-1.7,1.5-2.7,3.6-2.9,5.9c-0.2,2.3,0.6,4.5,2.1,6.3c3.1,3.6,8.5,4,12.2,0.8l26.7-23.2c1.7-1.5,2.7-3.6,2.9-5.9
			c0.2-2.3-0.6-4.5-2.1-6.3C450,139.6,444.6,139.3,441,142.3z"/>
	</g>
	<g>
		<path fill="#39B54A" d="M498.6,132.6L498.6,132.6c-9.1,7.9-22.8,6.9-30.7-2.2c-3.8-4.3-5.7-10-5.3-15.8c0.4-5.8,3-11.1,7.4-14.9
			l26.7-23.2c9.1-7.9,22.8-6.9,30.7,2.2c3.8,4.3,5.7,10,5.3,15.8c-0.4,5.8-3,11.1-7.4,14.9L498.6,132.6z M505.4,86.4l-26.7,23.2
			c-1.7,1.5-2.7,3.6-2.9,5.9c-0.2,2.3,0.6,4.5,2.1,6.3c3.1,3.6,8.5,4,12.2,0.8l26.7-23.2c1.7-1.5,2.7-3.6,2.9-5.9
			c0.2-2.3-0.6-4.5-2.1-6.3C514.4,83.6,508.9,83.2,505.4,86.4z"/>
	</g>
	<path fill="#009245" d="M444.2,144.9l35.2-29.6c1.8-1.5,4.5-1.3,6,0.6l0,0c1.5,1.8,1.3,4.5-0.6,6l-35.1,29.6
		c-1.8,1.5-4.5,1.3-6-0.6l0,0C442.2,149,442.3,146.4,444.2,144.9z"/>
	<path fill="#009245" d="M551.6,61.1l-7.4,6.7l-7.5,6.7c14.3,16.3,23,37.6,23,60.9c0,51-41.5,92.4-92.4,92.4
		c-26.7,0-50.8-11.4-67.7-29.6l-7.5,6.7l-7.4,6.7c20.6,22.2,49.9,36.2,82.5,36.2c62,0,112.4-50.4,112.4-112.4
		C579.7,107,569.1,81,551.6,61.1z"/>
</g>
<linearGradient id="SVGID_9_" gradientUnits="userSpaceOnUse" x1="670.4561" y1="238.2568" x2="670.4561" y2="238.2568">
	<stop  offset="0" style="stop-color:#FFFFFF;stop-opacity:0"/>
	<stop  offset="9.537581e-02" style="stop-color:#F0F0F0;stop-opacity:6.676307e-02"/>
	<stop  offset="0.2801" style="stop-color:#C7C7C7;stop-opacity:0.196"/>
	<stop  offset="0.5356" style="stop-color:#868686;stop-opacity:0.3749"/>
	<stop  offset="0.8489" style="stop-color:#2D2D2D;stop-opacity:0.5942"/>
	<stop  offset="1" style="stop-color:#000000;stop-opacity:0.7"/>
</linearGradient>
<path fill="url(#SVGID_9_)" d="M670.5,238.3"/>
</svg>
