<?xml version="1.0" encoding="utf-8"?>
<!-- Generator: Adobe Illustrator 18.1.1, SVG Export Plug-In . SVG Version: 6.00 Build 0)  -->
<svg version="1.1" xmlns="http://www.w3.org/2000/svg" xmlns:xlink="http://www.w3.org/1999/xlink" x="0px" y="0px"
	 viewBox="0 0 956 708" enable-background="new 0 0 956 708" xml:space="preserve">
<g id="Layer_2" display="none">
</g>
<g id="Layer_1">
	<path fill="#E6E6E6" d="M618.7,613.1H295.5c-24.8,0-45-20.2-45-45V175c0-24.8,20.2-45,45-45h323.2c24.8,0,45,20.2,45,45v393.1
		C663.7,592.8,643.4,613.1,618.7,613.1z"/>
	<path fill="#878787" d="M629,613.2H284.9c-18.9,0-34.4-15.5-34.4-34.4V513l413.2,0l-0.3,65.7C663.4,597.7,647.9,613.2,629,613.2z"
		/>
	<g>
		<g>
			<path fill="#24669B" d="M376.9,282.9c12.5,0,22.9,10.1,24.8,21.1h13.9c-2-19-18.5-34.9-38.7-34.9S340.2,285,338.2,304h13.9
				C354,293,364.4,282.9,376.9,282.9z"/>
		</g>
		<g>
			<path fill="#24669B" d="M531.3,282.9c12.5,0,22.9,10.1,24.8,21.1h13.9c-2-19-18.5-34.9-38.7-34.9c-20.1,0-36.7,15.9-38.7,34.9
				h13.9C508.4,293,518.8,282.9,531.3,282.9z"/>
		</g>
	</g>
	<g>
		<path fill="#2C3E50" d="M365.9,358.9l0-0.4c-2.5,23,5.3,46.8,22.2,65.1c32.1,34.9,86.5,37.1,121.3,5.1
			c16-14.7,25.3-34.2,27.4-54.3L365.9,358.9z"/>
		<path fill="#24669B" d="M364,348.8c0,0-4.3,29.4,11.1,55.7l110.9,39.6c0,0,42-13.1,54.4-74.7L364,348.8z"/>
	</g>
	<linearGradient id="SVGID_1_" gradientUnits="userSpaceOnUse" x1="602.0401" y1="634.9893" x2="498.9667" y2="456.461">
		<stop  offset="0" style="stop-color:#FFFFFF;stop-opacity:0"/>
		<stop  offset="0.1062" style="stop-color:#DCDCDC;stop-opacity:7.434703e-02"/>
		<stop  offset="0.357" style="stop-color:#8F8F8F;stop-opacity:0.2499"/>
		<stop  offset="0.5808" style="stop-color:#525252;stop-opacity:0.4066"/>
		<stop  offset="0.7692" style="stop-color:#252525;stop-opacity:0.5384"/>
		<stop  offset="0.9148" style="stop-color:#0A0A0A;stop-opacity:0.6403"/>
		<stop  offset="1" style="stop-color:#000000;stop-opacity:0.7"/>
	</linearGradient>
	<path fill="url(#SVGID_1_)" d="M399.9,513.6l98.6,99.5l108.1-0.1l26-0.1c21.8,0,31-22.7,31-32.4l0-67.5L399.9,513.6z"/>
	<g>
		<g opacity="0.75">
			<path d="M575.2,575.2h1.6c0.1,0.4,0.2,0.9,0.3,1.5c0.1,0.6,0.2,1.2,0.2,1.9c0.1,0.7,0.1,1.3,0.1,2c0,0.7,0,1.3,0,1.8
				c-0.9,0.6-2.1,1-3.5,1.2c-1.4,0.2-2.8,0.4-4.3,0.4c-2.2,0-4.2-0.3-6-0.8c-1.8-0.5-3.3-1.4-4.6-2.6c-1.3-1.2-2.2-2.7-2.9-4.5
				c-0.7-1.8-1-4-1-6.5c0-2.5,0.4-4.7,1.1-6.5c0.8-1.8,1.8-3.3,3-4.5c1.3-1.2,2.8-2,4.4-2.6c1.7-0.5,3.5-0.8,5.3-0.8
				c1.7,0,3.3,0.1,4.8,0.4c1.4,0.3,2.6,0.6,3.5,1c0,0.4,0,1-0.1,1.6c0,0.7-0.1,1.4-0.2,2.1c-0.1,0.7-0.2,1.4-0.3,2.1
				c-0.1,0.7-0.2,1.3-0.3,1.8h-1.7l-2.2-6c-0.2-0.1-0.6-0.2-1.2-0.3c-0.5-0.1-1.1-0.1-1.6-0.1c-1.1,0-2.1,0.2-3.1,0.7
				c-1,0.4-1.8,1.1-2.5,2.1c-0.7,1-1.3,2.2-1.7,3.7c-0.4,1.5-0.6,3.3-0.6,5.4c0,3.8,0.8,6.7,2.3,8.7c1.5,2,3.6,3.1,6.2,3.1
				c0.7,0,1.4-0.1,1.9-0.2c0.5-0.1,0.9-0.3,1.1-0.5L575.2,575.2z"/>
			<path d="M582.8,555.7h13v1.5c-0.6,0.3-1.2,0.5-1.8,0.7c-0.7,0.2-1.3,0.3-2,0.4v22.6h7.7l2.7-7.1h1.6c0.1,0.6,0.2,1.3,0.3,2.1
				c0.1,0.8,0.2,1.7,0.2,2.6c0.1,0.9,0.1,1.8,0.1,2.7c0,0.9,0,1.6,0,2.3h-21.8V582c0.6-0.3,1.2-0.6,1.7-0.8c0.5-0.2,1.1-0.3,1.5-0.4
				v-22.5c-1.3-0.2-2.4-0.6-3.3-1.2V555.7z"/>
			<path d="M618.2,583.5h-9.8V582c0.4-0.3,0.9-0.5,1.4-0.7c0.5-0.2,1-0.4,1.5-0.5l10.3-25.7h2.9l10,25.7c0.5,0.1,1.1,0.3,1.6,0.5
				c0.5,0.2,1,0.4,1.4,0.7v1.5h-12.4V582c0.5-0.2,1-0.5,1.6-0.7c0.6-0.2,1.1-0.4,1.7-0.5l-2.3-6.3h-8.8l-2.3,6.3
				c1.2,0.2,2.4,0.5,3.5,1.2V583.5z M618,571.9h7l-2.6-7.6l-0.8-3.4h-0.1l-0.9,3.5L618,571.9z"/>
		</g>
		<g>
			<g>
				<path fill="#24669B" d="M573.2,573.2h1.6c0.1,0.4,0.2,0.9,0.3,1.5c0.1,0.6,0.2,1.2,0.2,1.9c0.1,0.7,0.1,1.3,0.1,2
					c0,0.7,0,1.3,0,1.8c-0.9,0.6-2.1,1-3.5,1.2c-1.4,0.2-2.8,0.4-4.3,0.4c-2.2,0-4.2-0.3-6-0.8c-1.8-0.5-3.3-1.4-4.6-2.6
					c-1.3-1.2-2.2-2.7-2.9-4.5c-0.7-1.8-1-4-1-6.5c0-2.5,0.4-4.7,1.1-6.5c0.8-1.8,1.8-3.3,3-4.5c1.3-1.2,2.8-2,4.4-2.6
					c1.7-0.5,3.5-0.8,5.3-0.8c1.7,0,3.3,0.1,4.8,0.4c1.4,0.3,2.6,0.6,3.5,1c0,0.4,0,1-0.1,1.6c0,0.7-0.1,1.4-0.2,2.1
					c-0.1,0.7-0.2,1.4-0.3,2.1c-0.1,0.7-0.2,1.3-0.3,1.8h-1.7l-2.2-6c-0.2-0.1-0.6-0.2-1.2-0.3c-0.5-0.1-1.1-0.1-1.6-0.1
					c-1.1,0-2.1,0.2-3.1,0.7c-1,0.4-1.8,1.1-2.5,2.1c-0.7,1-1.3,2.2-1.7,3.7c-0.4,1.5-0.6,3.3-0.6,5.4c0,3.8,0.8,6.7,2.3,8.7
					c1.5,2,3.6,3.1,6.2,3.1c0.7,0,1.4-0.1,1.9-0.2c0.5-0.1,0.9-0.3,1.1-0.5L573.2,573.2z"/>
				<path fill="#24669B" d="M580.8,553.7h13v1.5c-0.6,0.3-1.2,0.5-1.8,0.7c-0.7,0.2-1.3,0.3-2,0.4v22.6h7.7l2.7-7.1h1.6
					c0.1,0.6,0.2,1.3,0.3,2.1c0.1,0.8,0.2,1.7,0.2,2.6c0.1,0.9,0.1,1.8,0.1,2.7c0,0.9,0,1.6,0,2.3h-21.8V580
					c0.6-0.3,1.2-0.6,1.7-0.8c0.5-0.2,1.1-0.3,1.5-0.4v-22.5c-1.3-0.2-2.4-0.6-3.3-1.2V553.7z"/>
				<path fill="#24669B" d="M616.2,581.5h-9.8V580c0.4-0.3,0.9-0.5,1.4-0.7c0.5-0.2,1-0.4,1.5-0.5l10.3-25.7h2.9l10,25.7
					c0.5,0.1,1.1,0.3,1.6,0.5c0.5,0.2,1,0.4,1.4,0.7v1.5h-12.4V580c0.5-0.2,1-0.5,1.6-0.7c0.6-0.2,1.1-0.4,1.7-0.5l-2.3-6.3h-8.8
					l-2.3,6.3c1.2,0.2,2.4,0.5,3.5,1.2V581.5z M616,569.9h7l-2.6-7.6l-0.8-3.4h-0.1l-0.9,3.5L616,569.9z"/>
			</g>
		</g>
	</g>
	<polygon fill="#C1C1C1" points="250.5,513 438.5,552.7 452.3,513 	"/>
	<polygon fill="#C1C1C1" points="663.7,513 475.3,552.4 461.6,513 	"/>
	<linearGradient id="SVGID_2_" gradientUnits="userSpaceOnUse" x1="671.5226" y1="346.6787" x2="582.717" y2="192.8629">
		<stop  offset="0" style="stop-color:#FFFFFF;stop-opacity:0"/>
		<stop  offset="0.1541" style="stop-color:#DEDEDE;stop-opacity:0.1078"/>
		<stop  offset="0.4952" style="stop-color:#888888;stop-opacity:0.3466"/>
		<stop  offset="0.9961" style="stop-color:#010101;stop-opacity:0.6973"/>
		<stop  offset="1" style="stop-color:#000000;stop-opacity:0.7"/>
	</linearGradient>
	<polygon fill="url(#SVGID_2_)" points="534.1,221 665,350.4 665,223 	"/>
	<g>
		<g>
			<g>
				<circle fill="#FFFFFF" cx="607.8" cy="137.7" r="101.6"/>
				<path fill="#39B54A" d="M607.8,26.2c-61.5,0-111.5,50-111.5,111.5s50,111.5,111.5,111.5s111.5-50,111.5-111.5
					S669.3,26.2,607.8,26.2z M607.8,229.4c-50.6,0-91.7-41.1-91.7-91.7S557.2,46,607.8,46s91.7,41.1,91.7,91.7
					S658.4,229.4,607.8,229.4z"/>
			</g>
		</g>
	</g>
	<linearGradient id="SVGID_3_" gradientUnits="userSpaceOnUse" x1="686.273" y1="208.7145" x2="622.8168" y2="145.2583">
		<stop  offset="0" style="stop-color:#FFFFFF;stop-opacity:0"/>
		<stop  offset="0.1061" style="stop-color:#FAFAFA;stop-opacity:7.428008e-02"/>
		<stop  offset="0.2298" style="stop-color:#ECECEC;stop-opacity:0.1609"/>
		<stop  offset="0.3623" style="stop-color:#D5D5D5;stop-opacity:0.2536"/>
		<stop  offset="0.5011" style="stop-color:#B4B4B4;stop-opacity:0.3507"/>
		<stop  offset="0.6447" style="stop-color:#8A8A8A;stop-opacity:0.4513"/>
		<stop  offset="0.7923" style="stop-color:#565656;stop-opacity:0.5546"/>
		<stop  offset="0.9406" style="stop-color:#1A1A1A;stop-opacity:0.6584"/>
		<stop  offset="1" style="stop-color:#000000;stop-opacity:0.7"/>
	</linearGradient>
	<polygon fill="url(#SVGID_3_)" points="574.6,193.4 622.6,241.9 684.8,210.2 712.4,145 676.4,102 	"/>
	<g>
		<polygon fill="#009245" points="575,193.8 531,145.2 543,134.3 575.2,169.8 664.9,88.9 676.7,102 		"/>
		<polygon fill="#39B54A" points="586.9,183 575.2,169.8 664.9,88.9 676.7,102 		"/>
	</g>
	<path fill="#009245" d="M691.4,64l-7.3,6.6l-7.4,6.7c14.2,16.2,22.8,37.3,22.8,60.5c0,50.6-41.1,91.7-91.7,91.7
		c-26.5,0-50.4-11.3-67.2-29.3l-7.4,6.7l-7.3,6.6c20.4,22,49.5,35.9,81.9,35.9c61.5,0,111.5-50,111.5-111.5
		C719.3,109.5,708.8,83.6,691.4,64z"/>
</g>
</svg>
