<?xml version="1.0" encoding="utf-8"?>
<!-- Generator: Adobe Illustrator 18.1.1, SVG Export Plug-In . SVG Version: 6.00 Build 0)  -->
<svg version="1.1" xmlns="http://www.w3.org/2000/svg" xmlns:xlink="http://www.w3.org/1999/xlink" x="0px" y="0px"
	 viewBox="0 0 956 708" enable-background="new 0 0 956 708" xml:space="preserve">
<g id="Layer_2" display="none">
</g>
<g id="Layer_1">
	<g>
		<path fill="#878787" d="M888.1,136.2h-345c0,0-34.5,0-34.5,34.3v398c0,55,59.7,47.6,59.7,47.6l276.7-0.3
			c52.3,0,77.5-3.1,77.5-50.4V170.5C922.6,136.2,888.1,136.2,888.1,136.2z M681.1,273.3h-34.5v34.3h34.5V273.3z M681.1,204.8h-34.5
			v34.3h34.5V204.8z M681.1,410.4h-34.5v34.3h34.5V410.4z M681.1,341.9h-34.5v34.3h34.5V341.9z"/>
		<path fill="#E6E6E6" d="M874.4,616.5H556.7c-34.3,0-48.2-18.6-48.2-50.7v-45.1h414.3v49.1C922.7,600.9,905.1,616.5,874.4,616.5z"
			/>
		<linearGradient id="SVGID_1_" gradientUnits="userSpaceOnUse" x1="830.5316" y1="573.9208" x2="738.8751" y2="415.1672">
			<stop  offset="0" style="stop-color:#FFFFFF;stop-opacity:0"/>
			<stop  offset="9.537581e-02" style="stop-color:#F0F0F0;stop-opacity:6.676307e-02"/>
			<stop  offset="0.2801" style="stop-color:#C7C7C7;stop-opacity:0.196"/>
			<stop  offset="0.5356" style="stop-color:#868686;stop-opacity:0.3749"/>
			<stop  offset="0.8489" style="stop-color:#2D2D2D;stop-opacity:0.5942"/>
			<stop  offset="1" style="stop-color:#000000;stop-opacity:0.7"/>
		</linearGradient>
		<polygon fill="url(#SVGID_1_)" points="628.5,478.9 667.3,520.5 922.6,520.8 922.6,478.5 		"/>
		<path fill="#E6E6E6" d="M923,485.2H640.1c-19.9,0-35.9-16.1-35.9-35.9V135.8h285.3c18.5,0,33.5,15,33.5,33.5V485.2z"/>
		<g>
			<path fill="#727272" d="M647.5,414.6c-1.4,1.6-2.5,3.7-2.5,6v16c0,5.1,4.7,9.4,9.8,9.4h16c2.1,0,3.8-0.8,5.4-1.9L647.5,414.6z"/>
			<path fill="#727272" d="M680,436.6v-16c0-5.1-4.1-9.6-9.1-9.6h-16c-2.8,0-5.3,1.4-7,3.4l28.5,29.5
				C678.6,442.2,680,439.6,680,436.6z"/>
			<linearGradient id="SVGID_2_" gradientUnits="userSpaceOnUse" x1="724.659" y1="521.4155" x2="656.5345" y2="403.4204">
				<stop  offset="0" style="stop-color:#FFFFFF;stop-opacity:0"/>
				<stop  offset="9.537581e-02" style="stop-color:#F0F0F0;stop-opacity:6.676307e-02"/>
				<stop  offset="0.2801" style="stop-color:#C7C7C7;stop-opacity:0.196"/>
				<stop  offset="0.5356" style="stop-color:#868686;stop-opacity:0.3749"/>
				<stop  offset="0.8489" style="stop-color:#2D2D2D;stop-opacity:0.5942"/>
				<stop  offset="1" style="stop-color:#000000;stop-opacity:0.7"/>
			</linearGradient>
			<path fill="url(#SVGID_2_)" d="M680,436.6v-16c0-5.1-4.1-9.6-9.1-9.6h-16c-2.8,0-5.3,1.4-7,3.4l28.5,29.5
				C678.6,442.2,680,439.6,680,436.6z"/>
		</g>
		<g>
			<path fill="#727272" d="M647.5,346.2c-1.4,1.6-2.5,3.7-2.5,6v16c0,5.1,4.7,8.8,9.8,8.8h16c2.1,0,3.8-0.5,5.4-1.6L647.5,346.2z"/>
			<path fill="#727272" d="M680,368.2v-16c0-5.1-4.1-9.2-9.1-9.2h-16c-2.8,0-5.3,1.2-7,3.2l28.5,29.4
				C678.6,373.9,680,371.2,680,368.2z"/>
			<linearGradient id="SVGID_3_" gradientUnits="userSpaceOnUse" x1="724.4578" y1="452.8115" x2="656.5983" y2="335.2755">
				<stop  offset="0" style="stop-color:#FFFFFF;stop-opacity:0"/>
				<stop  offset="9.537581e-02" style="stop-color:#F0F0F0;stop-opacity:6.676307e-02"/>
				<stop  offset="0.2801" style="stop-color:#C7C7C7;stop-opacity:0.196"/>
				<stop  offset="0.5356" style="stop-color:#868686;stop-opacity:0.3749"/>
				<stop  offset="0.8489" style="stop-color:#2D2D2D;stop-opacity:0.5942"/>
				<stop  offset="1" style="stop-color:#000000;stop-opacity:0.7"/>
			</linearGradient>
			<path fill="url(#SVGID_3_)" d="M680,368.2v-16c0-5.1-4.1-9.2-9.1-9.2h-16c-2.8,0-5.3,1.2-7,3.2l28.5,29.4
				C678.6,373.9,680,371.2,680,368.2z"/>
		</g>
		<g>
			<path fill="#727272" d="M647.5,277.8c-1.4,1.6-2.5,3.7-2.5,6v16c0,5.1,4.7,9.2,9.8,9.2h16c2.1,0,3.8-0.7,5.4-1.8L647.5,277.8z"/>
			<path fill="#727272" d="M680,299.8v-16c0-5.1-4.1-9.7-9.1-9.7h-16c-2.8,0-5.3,1.5-7,3.5l28.5,29.5
				C678.6,305.4,680,302.8,680,299.8z"/>
			<linearGradient id="SVGID_4_" gradientUnits="userSpaceOnUse" x1="724.7473" y1="384.6741" x2="656.5066" y2="266.4778">
				<stop  offset="0" style="stop-color:#FFFFFF;stop-opacity:0"/>
				<stop  offset="9.537581e-02" style="stop-color:#F0F0F0;stop-opacity:6.676307e-02"/>
				<stop  offset="0.2801" style="stop-color:#C7C7C7;stop-opacity:0.196"/>
				<stop  offset="0.5356" style="stop-color:#868686;stop-opacity:0.3749"/>
				<stop  offset="0.8489" style="stop-color:#2D2D2D;stop-opacity:0.5942"/>
				<stop  offset="1" style="stop-color:#000000;stop-opacity:0.7"/>
			</linearGradient>
			<path fill="url(#SVGID_4_)" d="M680,299.8v-16c0-5.1-4.1-9.7-9.1-9.7h-16c-2.8,0-5.3,1.5-7,3.5l28.5,29.5
				C678.6,305.4,680,302.8,680,299.8z"/>
		</g>
		<g>
			<path fill="#727272" d="M647.5,207.8c-1.4,1.6-2.5,3.7-2.5,6v16c0,5.1,4.7,9.2,9.8,9.2h16c2.1,0,3.8-0.7,5.4-1.8L647.5,207.8z"/>
			<path fill="#727272" d="M680,229.8v-16c0-5.1-4.1-9.8-9.1-9.8h-16c-2.8,0-5.3,1.5-7,3.5l28.5,29.6
				C678.6,235.4,680,232.9,680,229.8z"/>
			<linearGradient id="SVGID_5_" gradientUnits="userSpaceOnUse" x1="724.7727" y1="314.7482" x2="656.4985" y2="196.4938">
				<stop  offset="0" style="stop-color:#FFFFFF;stop-opacity:0"/>
				<stop  offset="9.537581e-02" style="stop-color:#F0F0F0;stop-opacity:6.676307e-02"/>
				<stop  offset="0.2801" style="stop-color:#C7C7C7;stop-opacity:0.196"/>
				<stop  offset="0.5356" style="stop-color:#868686;stop-opacity:0.3749"/>
				<stop  offset="0.8489" style="stop-color:#2D2D2D;stop-opacity:0.5942"/>
				<stop  offset="1" style="stop-color:#000000;stop-opacity:0.7"/>
			</linearGradient>
			<path fill="url(#SVGID_5_)" d="M680,229.8v-16c0-5.1-4.1-9.8-9.1-9.8h-16c-2.8,0-5.3,1.5-7,3.5l28.5,29.6
				C678.6,235.4,680,232.9,680,229.8z"/>
		</g>
		
			<linearGradient id="SVGID_6_" gradientUnits="userSpaceOnUse" x1="7386.9141" y1="-6014.9927" x2="7351.0234" y2="-6077.1567" gradientTransform="matrix(-8.979300e-11 1 1 8.979300e-11 6776.2729 -6776.2729)">
			<stop  offset="0" style="stop-color:#FFFFFF;stop-opacity:0"/>
			<stop  offset="9.537581e-02" style="stop-color:#F0F0F0;stop-opacity:6.676307e-02"/>
			<stop  offset="0.2801" style="stop-color:#C7C7C7;stop-opacity:0.196"/>
			<stop  offset="0.5356" style="stop-color:#868686;stop-opacity:0.3749"/>
			<stop  offset="0.8489" style="stop-color:#2D2D2D;stop-opacity:0.5942"/>
			<stop  offset="1" style="stop-color:#000000;stop-opacity:0.7"/>
		</linearGradient>
		<path fill="url(#SVGID_6_)" d="M713.4,549.9l44.7,52.7l0.1,13.3c-0.2-0.1-44.7,0.1-44.7,0.1L713.4,549.9z"/>
		<g>
			<polygon fill="#2C3E50" points="611.9,550 714,550 714.1,687.8 663,636.1 613.3,683.6 			"/>
			<polygon fill="#24669B" points="714.3,584.8 611.5,687.8 611.5,550.1 714.2,550.1 			"/>
		</g>
	</g>
	<g>
		<g id="paper_14_">
			<g>
				<path fill="#E6E6E6" d="M415.1,136H55.2c-6.9,0-13.2,5.5-13.2,12.4v406.3v1.4c0,34.6,29.2,62.9,63.9,62.9c21.4,0,21.4,0,0,0
					h309.2c6.9,0,11.9-6,11.9-12.9V148.4C427,141.5,422,136,415.1,136z"/>
			</g>
		</g>
		<g>
			<path fill="#24669B" d="M191.4,223.3h3.7c0.2,1,0.5,2.1,0.7,3.5c0.2,1.3,0.4,2.8,0.5,4.3c0.1,1.5,0.3,3,0.3,4.5
				c0.1,1.5,0.1,2.8,0.1,4c-2.1,1.3-4.7,2.2-7.9,2.8c-3.1,0.5-6.4,0.8-9.6,0.8c-5,0-9.5-0.6-13.5-1.8c-4-1.2-7.5-3.2-10.3-5.8
				c-2.8-2.7-5-6-6.6-10.1c-1.6-4.1-2.3-9-2.3-14.8c0-5.7,0.9-10.6,2.6-14.7c1.7-4.1,4-7.5,6.9-10.1c2.9-2.6,6.2-4.6,10-5.8
				c3.8-1.2,7.8-1.8,12-1.8c3.9,0,7.5,0.3,10.7,0.9c3.2,0.6,5.8,1.3,7.9,2.3c0,1,0,2.2-0.1,3.7c-0.1,1.5-0.2,3.1-0.4,4.7
				c-0.2,1.6-0.4,3.3-0.7,4.8c-0.3,1.6-0.5,2.9-0.8,4h-3.8l-4.9-13.5c-0.5-0.3-1.4-0.5-2.6-0.7c-1.2-0.2-2.4-0.3-3.7-0.3
				c-2.5,0-4.8,0.5-6.9,1.5c-2.2,1-4.1,2.6-5.7,4.7c-1.7,2.2-3,4.9-3.9,8.3c-1,3.4-1.4,7.4-1.4,12.2c0,8.6,1.7,15.1,5.1,19.7
				c3.4,4.6,8,6.9,13.9,6.9c1.7,0,3.1-0.1,4.3-0.4c1.2-0.3,2-0.6,2.4-1.1L191.4,223.3z"/>
			<path fill="#24669B" d="M208.7,179.3h29.4v3.4c-1.3,0.7-2.6,1.2-4.2,1.7c-1.5,0.4-3,0.8-4.4,0.9v51h17.3l6-16.1h3.7
				c0.2,1.4,0.5,3,0.7,4.8c0.2,1.9,0.4,3.8,0.5,5.8c0.1,2,0.2,4,0.3,6c0.1,2,0.1,3.7,0,5.2h-49.3v-3.4c1.4-0.7,2.7-1.3,3.9-1.7
				c1.2-0.4,2.4-0.7,3.5-0.9v-50.8c-2.9-0.5-5.4-1.3-7.4-2.6V179.3z"/>
			<path fill="#24669B" d="M288.5,242.1h-22.2v-3.4c1-0.6,2-1.1,3.1-1.6c1.1-0.4,2.2-0.8,3.3-1l23.1-57.9h6.6l22.5,57.9
				c1.2,0.2,2.4,0.6,3.6,1c1.2,0.4,2.2,1,3.1,1.6v3.4h-28.1v-3.4c1.1-0.5,2.4-1,3.7-1.5c1.3-0.5,2.6-0.8,3.8-1.1l-5.2-14.3H286
				l-5.3,14.3c2.8,0.4,5.4,1.2,7.8,2.6V242.1z M288.2,216H304l-5.8-17.1l-1.7-7.7h-0.2l-2,7.9L288.2,216z"/>
		</g>
		<path id="line5_22_" fill="#C1C1C1" d="M296.2,401.9H154c-1.4,0-2.5-1.1-2.5-2.5V395c0-1.4,1.1-2.5,2.5-2.5h142.1
			c1.4,0,2.5,1.1,2.5,2.5v4.4C298.6,400.8,297.5,401.9,296.2,401.9z"/>
		<path id="line5_21_" fill="#727272" d="M352.1,502.2H191.7c-1.4,0-2.5-1.1-2.5-2.5v-4.4c0-1.4,1.1-2.5,2.5-2.5h160.4
			c1.4,0,2.5,1.1,2.5,2.5v4.4C354.6,501.1,353.4,502.2,352.1,502.2z"/>
		<path id="line5_20_" fill="#727272" d="M207.6,485.8l-14.2-14.2c-1-1-1-2.5,0-3.5l0.8-0.8c1-1,2.5-1,3.5,0l14.2,14.2
			c1,1,1,2.5,0,3.5l-0.8,0.8C210.1,486.8,208.5,486.8,207.6,485.8z"/>
		<path id="line4_16_" fill="#C1C1C1" d="M284.5,374H154c-1.4,0-2.5-1.1-2.5-2.5v-4.4c0-1.4,1.1-2.5,2.5-2.5h130.4
			c1.4,0,2.5,1.1,2.5,2.5v4.4C286.9,372.9,285.8,374,284.5,374z"/>
		<path id="line3_12_" fill="#C1C1C1" d="M312.4,346.1H154c-1.4,0-2.5-1.1-2.5-2.5v-4.4c0-1.4,1.1-2.5,2.5-2.5h158.3
			c1.4,0,2.5,1.1,2.5,2.5v4.4C314.8,345,313.7,346.1,312.4,346.1z"/>
		<path id="line2_16_" fill="#C1C1C1" d="M296.2,318.2H154c-1.4,0-2.5-1.1-2.5-2.5v-4.4c0-1.4,1.1-2.5,2.5-2.5h142.1
			c1.4,0,2.5,1.1,2.5,2.5v4.4C298.6,317.1,297.5,318.2,296.2,318.2z"/>
		<path id="line1_12_" fill="#C1C1C1" d="M330,290.3H154c-1.4,0-2.5-1.1-2.5-2.5v-4.4c0-1.4,1.1-2.5,2.5-2.5h176
			c1.4,0,2.5,1.1,2.5,2.5v4.4C332.5,289.2,331.4,290.3,330,290.3z"/>
		<g id="siegel_37_">
			<circle id="siegel_40_" fill="#C1C1C1" cx="104.3" cy="483.4" r="22"/>
			<g id="siegel_38_">
				<g>
					<g>
						<path fill="#24669B" d="M139,494.3c2.7-1.6,3.4-5.2,1.5-7.7v0c-1.4-1.9-1.4-4.5,0-6.3c1.9-2.5,1.2-6.1-1.5-7.7
							c-2-1.2-3-3.6-2.4-5.9c0.8-3-1.2-6.1-4.4-6.5c-2.3-0.3-4.2-2.2-4.5-4.5c-0.4-3.1-3.5-5.2-6.5-4.4h0c-2.3,0.6-4.7-0.4-5.9-2.4
							c-1.6-2.7-5.2-3.4-7.7-1.5c-1.9,1.4-4.5,1.4-6.3,0h0c-2.5-1.9-6.1-1.2-7.7,1.5c-1.2,2-3.6,3-5.9,2.4c-3-0.8-6.1,1.2-6.5,4.4
							c-0.3,2.3-2.2,4.2-4.5,4.5c-3.1,0.4-5.2,3.5-4.4,6.5c0.6,2.3-0.4,4.7-2.4,5.9c-2.7,1.6-3.4,5.2-1.5,7.7c1.4,1.9,1.4,4.5,0,6.3
							v0c-1.9,2.5-1.2,6.1,1.5,7.7c2,1.2,3,3.6,2.4,5.9c-0.8,3,1.2,6.1,4.4,6.5c1.9,0.3,3.5,1.6,4.2,3.4l-10.5,29.3l14.2-2.7l8.9,11
							l10.5-29.2c0.2,0,0.4,0,0.7,0l13.7,29.1l8.1-11.9l14.1,1.5l-12.6-26.8c0.6-1.9,2.3-3.3,4.3-3.6c3.1-0.4,5.2-3.5,4.4-6.5
							C136,497.8,137,495.4,139,494.3z M104.4,509.5c-14.4,0-26.1-11.7-26.1-26.1c0-14.4,11.7-26.1,26.1-26.1s26.1,11.7,26.1,26.1
							C130.6,497.8,118.9,509.5,104.4,509.5z"/>
					</g>
				</g>
				<circle id="siegel_39_" fill="#24669B" cx="104.4" cy="483.4" r="22"/>
			</g>
			<path fill="#2C3E50" d="M81.9,507.2l-7,19.5c9.3-4.2,27.6-4.2,27.6-4.2l1.5-4.2l0.6,0.2l2,4c0,0,21.5,0.3,29,4.2l-8.4-18l-24.6,4
				L81.9,507.2z"/>
			<g>
				<g>
					<path fill="#24669B" d="M69.8,472.5c-2.7,1.6-3.4,5.2-1.5,7.7v0c1.4,1.9,1.4,4.5,0,6.3c-1.9,2.5-1.2,6.1,1.5,7.7
						c2,1.2,3,3.6,2.4,5.9c-0.8,3,1.2,6.1,4.4,6.5c2.3,0.3,4.2,2.2,4.5,4.5c0.4,3.1,3.5,5.2,6.5,4.4h0c2.3-0.6,4.7,0.4,5.9,2.4
						c1.6,2.7,5.2,3.4,7.7,1.5c1.9-1.4,4.5-1.4,6.3,0h0c2.5,1.9,6.1,1.2,7.7-1.5c1.2-2,3.6-3,5.9-2.4c3,0.8,6.1-1.2,6.5-4.4
						c0.3-2.3,2.2-4.2,4.5-4.5c3.1-0.4,5.2-3.5,4.4-6.5c-0.6-2.3,0.4-4.7,2.4-5.9c2.7-1.6,3.4-5.2,1.5-7.7c-1.4-1.9-1.4-4.5,0-6.3v0
						c1.9-2.5,1.2-6.1-1.5-7.7c-2-1.2-3-3.6-2.4-5.9c0.8-3-1.2-6.1-4.4-6.5c-1.9-0.3-3.5-1.6-4.2-3.4l-47.1-0.2
						c-0.6,1.9-2.3,3.3-4.3,3.6c-3.1,0.4-5.2,3.5-4.4,6.5C72.8,468.9,71.8,471.3,69.8,472.5z M104.3,457.3
						c14.4,0,26.1,11.7,26.1,26.1c0,14.4-11.7,26.1-26.1,26.1s-26.1-11.7-26.1-26.1C78.2,469,89.9,457.3,104.3,457.3z"/>
				</g>
			</g>
		</g>
		<g>
			<path fill="#C1C1C1" d="M455.5,537.5L171,537.4c-7,0-7.8,3.5-7.8,7.3c0,0.4,0.7,10.7,0.7,11.4c0,32.8-25,59.9-57.1,63
				c0.6,0.1,1.1,0.2,1.7,0.2h306.8c30.1,0,54.8-24.6,54.8-54.8l-0.4-12.6C469.6,542.2,461.8,537.5,455.5,537.5z"/>
		</g>
		<path id="line5_19_" fill="#727272" d="M193.4,481.5l14.2-14.2c1-1,2.5-1,3.5,0l0.8,0.8c1,1,1,2.5,0,3.5l-14.2,14.2
			c-1,1-2.5,1-3.5,0l-0.8-0.8C192.4,484.1,192.4,482.5,193.4,481.5z"/>
	</g>
	<g>
		<g>
			<circle fill="#FFFFFF" cx="467.3" cy="135.5" r="102.4"/>
			<path fill="#39B54A" d="M467.3,23c-62,0-112.4,50.4-112.4,112.4s50.4,112.4,112.4,112.4s112.4-50.4,112.4-112.4
				S529.3,23,467.3,23z M467.3,227.9c-51,0-92.4-41.5-92.4-92.4S416.3,43,467.3,43s92.4,41.5,92.4,92.4S518.3,227.9,467.3,227.9z"/>
		</g>
	</g>
	
		<linearGradient id="SVGID_7_" gradientUnits="userSpaceOnUse" x1="-29109.209" y1="-30337.9102" x2="-29200.2422" y2="-30229.4219" gradientTransform="matrix(0.1944 0 0 -0.1944 6132.5605 -5754.1211)">
		<stop  offset="0" style="stop-color:#FFFFFF;stop-opacity:0"/>
		<stop  offset="2.777451e-02" style="stop-color:#F0F0F0;stop-opacity:2.221961e-02"/>
		<stop  offset="0.1399" style="stop-color:#B8B8B8;stop-opacity:0.1119"/>
		<stop  offset="0.2557" style="stop-color:#878787;stop-opacity:0.2046"/>
		<stop  offset="0.3727" style="stop-color:#5E5E5E;stop-opacity:0.2981"/>
		<stop  offset="0.491" style="stop-color:#3C3C3C;stop-opacity:0.3928"/>
		<stop  offset="0.6113" style="stop-color:#212121;stop-opacity:0.489"/>
		<stop  offset="0.7343" style="stop-color:#0F0F0F;stop-opacity:0.5874"/>
		<stop  offset="0.8616" style="stop-color:#040404;stop-opacity:0.6893"/>
		<stop  offset="1" style="stop-color:#000000;stop-opacity:0.8"/>
	</linearGradient>
	<polygon opacity="0.53" fill="url(#SVGID_7_)" points="407.1,187.9 422.5,186.6 455.8,154.6 468.5,133.8 489.8,126.6 528.8,94.1 
		532.1,90 510,79.7 471.3,109.7 474,125.7 462.7,137 441.3,137.7 406,165.7 	"/>
	
		<linearGradient id="SVGID_8_" gradientUnits="userSpaceOnUse" x1="-28754.5078" y1="-30683.0391" x2="-29162.3828" y2="-30275.1641" gradientTransform="matrix(0.1944 0 0 -0.1944 6132.5605 -5754.1211)">
		<stop  offset="0" style="stop-color:#FFFFFF;stop-opacity:0"/>
		<stop  offset="9.121197e-02" style="stop-color:#F1F1F1;stop-opacity:8.209077e-02"/>
		<stop  offset="0.2627" style="stop-color:#CDCDCD;stop-opacity:0.2364"/>
		<stop  offset="0.4961" style="stop-color:#939393;stop-opacity:0.4465"/>
		<stop  offset="0.7791" style="stop-color:#434343;stop-opacity:0.7012"/>
		<stop  offset="1" style="stop-color:#000000;stop-opacity:0.9"/>
	</linearGradient>
	<polygon opacity="0.71" fill="url(#SVGID_8_)" points="406.9,187.9 456.5,237.6 531.9,221.4 571.5,143.3 529.5,84.8 493.5,127.7 
		472.9,130 460.1,140.1 459,159.2 426.2,183 	"/>
	<g>
		<path fill="#39B54A" d="M434.3,188.5L434.3,188.5c-9.1,7.9-22.8,6.9-30.7-2.2c-3.8-4.3-5.7-10-5.3-15.8c0.4-5.8,3-11.1,7.4-14.9
			l26.7-23.2c9.1-7.9,22.8-6.9,30.7,2.2c3.8,4.3,5.7,10,5.3,15.8c-0.4,5.8-3,11.1-7.4,14.9L434.3,188.5z M441,142.3l-26.7,23.2
			c-1.7,1.5-2.7,3.6-2.9,5.9c-0.2,2.3,0.6,4.5,2.1,6.3c3.1,3.6,8.5,4,12.2,0.8l26.7-23.2c1.7-1.5,2.7-3.6,2.9-5.9
			c0.2-2.3-0.6-4.5-2.1-6.3C450,139.6,444.6,139.3,441,142.3z"/>
	</g>
	<g>
		<path fill="#39B54A" d="M498.6,132.6L498.6,132.6c-9.1,7.9-22.8,6.9-30.7-2.2c-3.8-4.3-5.7-10-5.3-15.8c0.4-5.8,3-11.1,7.4-14.9
			l26.7-23.2c9.1-7.9,22.8-6.9,30.7,2.2c3.8,4.3,5.7,10,5.3,15.8c-0.4,5.8-3,11.1-7.4,14.9L498.6,132.6z M505.4,86.4l-26.7,23.2
			c-1.7,1.5-2.7,3.6-2.9,5.9c-0.2,2.3,0.6,4.5,2.1,6.3c3.1,3.6,8.5,4,12.2,0.8l26.7-23.2c1.7-1.5,2.7-3.6,2.9-5.9
			c0.2-2.3-0.6-4.5-2.1-6.3C514.4,83.6,508.9,83.2,505.4,86.4z"/>
	</g>
	<path fill="#009245" d="M444.2,144.9l35.2-29.6c1.8-1.5,4.5-1.3,6,0.6l0,0c1.5,1.8,1.3,4.5-0.6,6l-35.1,29.6
		c-1.8,1.5-4.5,1.3-6-0.6l0,0C442.2,149,442.3,146.4,444.2,144.9z"/>
	<path fill="#009245" d="M551.6,61.1l-7.4,6.7l-7.5,6.7c14.3,16.3,23,37.6,23,60.9c0,51-41.5,92.4-92.4,92.4
		c-26.7,0-50.8-11.4-67.7-29.6l-7.5,6.7l-7.4,6.7c20.6,22.2,49.9,36.2,82.5,36.2c62,0,112.4-50.4,112.4-112.4
		C579.7,107,569.1,81,551.6,61.1z"/>
</g>
</svg>
