<?xml version="1.0" encoding="utf-8"?>
<!-- Generator: Adobe Illustrator 18.1.1, SVG Export Plug-In . SVG Version: 6.00 Build 0)  -->
<svg version="1.1" id="Layer_1" xmlns="http://www.w3.org/2000/svg" xmlns:xlink="http://www.w3.org/1999/xlink" x="0px" y="0px"
	 viewBox="0 0 685 900" enable-background="new 0 0 685 900" xml:space="preserve">
<path fill="#878787" d="M532.1,738.9h-452c-15.4,0-27.9-12.5-27.9-27.9V114.6c0-15.4,12.5-27.9,27.9-27.9h452
	c15.4,0,27.9,12.5,27.9,27.9V711C560,726.4,547.5,738.9,532.1,738.9z"/>
<linearGradient id="SVGID_1_" gradientUnits="userSpaceOnUse" x1="429.7656" y1="800.1274" x2="316.4165" y2="603.801">
	<stop  offset="0" style="stop-color:#FFFFFF;stop-opacity:0"/>
	<stop  offset="9.537581e-02" style="stop-color:#F0F0F0;stop-opacity:6.676307e-02"/>
	<stop  offset="0.2801" style="stop-color:#C7C7C7;stop-opacity:0.196"/>
	<stop  offset="0.5356" style="stop-color:#868686;stop-opacity:0.3749"/>
	<stop  offset="0.8489" style="stop-color:#2D2D2D;stop-opacity:0.5942"/>
	<stop  offset="1" style="stop-color:#000000;stop-opacity:0.7"/>
</linearGradient>
<path fill="url(#SVGID_1_)" d="M170.1,688.3l50,50.5l292.8,0.2c44.2,0,46.3-19.4,46.9-26.7l0.1-24.3L170.1,688.3z"/>
<g>
	<g id="paper_4_">
		<g>
			<path fill="#E6E6E6" d="M550,111H116.7c-8.3,0-15.7,6.2-15.7,14.5v489.1v1.7c0,41.6,35,75.7,76.7,75.7c25.7,0,25.8,0,0,0H550
				c8.3,0,13-7.2,13-15.5V125.5C563,117.2,558.3,111,550,111z"/>
			<g>
				<path fill="#C1C1C1" d="M598.6,593.9l-342.5-0.1c-8.5,0-9.4,4.3-9.4,8.8c0,0.5,0.8,12.8,0.8,13.8c0,39.5-30.1,72.1-68.7,75.8
					c0.7,0.1,1.3,0.2,2,0.2h369.3c36.3,0,65.9-29.7,65.9-65.9l-0.5-15.2C615.5,599.6,606.2,593.9,598.6,593.9z"/>
			</g>
		</g>
	</g>
	<g>
		<path id="line5_4_" fill="#727272" d="M355.4,503.9H185.9c-1.4,0-2.5-1.1-2.5-2.5v-12.2c0-1.4,1.1-2.5,2.5-2.5h169.4
			c1.4,0,2.5,1.1,2.5,2.5v12.2C357.8,502.8,356.7,503.9,355.4,503.9z"/>
		<path id="line4_4_" fill="#727272" d="M267,443.5h-81.1c-1.4,0-2.5-1.1-2.5-2.5v-12.2c0-1.4,1.1-2.5,2.5-2.5H267
			c1.4,0,2.5,1.1,2.5,2.5V441C269.5,442.4,268.4,443.5,267,443.5z"/>
		<path id="line3_4_" fill="#727272" d="M273.5,383h-87.5c-1.4,0-2.5-1.1-2.5-2.5v-12.2c0-1.4,1.1-2.5,2.5-2.5h87.5
			c1.4,0,2.5,1.1,2.5,2.5v12.2C275.9,381.9,274.8,383,273.5,383z"/>
		<path id="line2_4_" fill="#727272" d="M329.6,322.6H185.9c-1.4,0-2.5-1.1-2.5-2.5v-12.2c0-1.4,1.1-2.5,2.5-2.5h143.6
			c1.4,0,2.5,1.1,2.5,2.5v12.2C332,321.5,330.9,322.6,329.6,322.6z"/>
		<path id="line1_4_" fill="#727272" d="M417,262.2H185.9c-1.4,0-2.5-1.1-2.5-2.5v-12.2c0-1.4,1.1-2.5,2.5-2.5H417
			c1.4,0,2.5,1.1,2.5,2.5v12.2C419.5,261.1,418.4,262.2,417,262.2z"/>
	</g>
</g>
<linearGradient id="SVGID_2_" gradientUnits="userSpaceOnUse" x1="597.5833" y1="550.75" x2="471.4167" y2="424.5833">
	<stop  offset="0" style="stop-color:#FFFFFF;stop-opacity:0"/>
	<stop  offset="9.537581e-02" style="stop-color:#F0F0F0;stop-opacity:6.676307e-02"/>
	<stop  offset="0.2801" style="stop-color:#C7C7C7;stop-opacity:0.196"/>
	<stop  offset="0.5356" style="stop-color:#868686;stop-opacity:0.3749"/>
	<stop  offset="0.8489" style="stop-color:#2D2D2D;stop-opacity:0.5942"/>
	<stop  offset="1" style="stop-color:#000000;stop-opacity:0.7"/>
</linearGradient>
<polygon fill="url(#SVGID_2_)" points="466.3,508.7 563.3,585 563,427 467.3,428.7 "/>
<g>
	<path fill="#C1C1C1" d="M464.5,149H183.2c-10.6,0-19.2-8.6-19.2-19.2V85c0-10.6,8.6-19.2,19.2-19.2h95.9c0-24.7,20-44.8,44.8-44.8
		c24.7,0,44.8,20,44.8,44.8h95.9c10.6,0,19.2,8.6,19.2,19.2v44.8C483.7,140.4,475.1,149,464.5,149z M323.8,46.7
		c-10.6,0-19.2,8.6-19.2,19.2c0,10.6,8.6,19.2,19.2,19.2S343,76.4,343,65.9C343,55.3,334.4,46.7,323.8,46.7z"/>
	<path fill="#878787" d="M464.5,149H183.2c-10.6,0-19.2-8.6-19.2-19.2V117c0,10.6,8.6,19.2,19.2,19.2h281.3
		c10.6,0,19.2-8.6,19.2-19.2v12.8C483.7,140.4,475.1,149,464.5,149z"/>
	<path fill="#878787" d="M323.8,57.7c8.3,0,15.4,5.4,18,12.8c0.7-2,1.2-4.1,1.2-6.4c0-10.6-8.6-19.2-19.2-19.2
		c-10.6,0-19.2,8.6-19.2,19.2c0,2.3,0.5,4.4,1.2,6.4C308.5,63.1,315.5,57.7,323.8,57.7z"/>
</g>
<g>
	<polygon fill="#D32F2F" points="468.5,360 468.5,284.4 317.5,397.7 468.5,511 468.5,435.5 657.3,435.5 657.3,360 	"/>
	<polygon fill="#E74C3C" points="468.5,360 468.5,284.5 317.5,397.7 468.5,511 468.5,435.5 657.3,360 	"/>
</g>
</svg>
