<?xml version="1.0" encoding="utf-8"?>
<!-- Generator: Adobe Illustrator 18.1.1, SVG Export Plug-In . SVG Version: 6.00 Build 0)  -->
<svg version="1.1" id="Layer_1" xmlns="http://www.w3.org/2000/svg" xmlns:xlink="http://www.w3.org/1999/xlink" x="0px" y="0px"
	 viewBox="0 0 948 1183.1" enable-background="new 0 0 948 1183.1" xml:space="preserve">
<g>
	<path fill="#878787" d="M852.6,536h-345c0,0-34.5,0-34.5,34.3v398c0,55,59.7,47.6,59.7,47.6l276.7-0.3c52.3,0,77.5-3.1,77.5-50.4
		V570.3C887.1,536,852.6,536,852.6,536z M645.6,673.1h-34.5v34.3h34.5V673.1z M645.6,604.6h-34.5v34.3h34.5V604.6z M645.6,810.2
		h-34.5v34.3h34.5V810.2z M645.6,741.7h-34.5v34.3h34.5V741.7z"/>
	<path fill="#E6E6E6" d="M838.9,1016.3H521.2c-34.3,0-48.2-18.6-48.2-50.7v-45.1h414.3v49.1C887.2,1000.7,869.7,1016.3,838.9,1016.3
		z"/>
	<linearGradient id="SVGID_1_" gradientUnits="userSpaceOnUse" x1="795.0554" y1="973.715" x2="703.399" y2="814.9614">
		<stop  offset="0" style="stop-color:#FFFFFF;stop-opacity:0"/>
		<stop  offset="9.537581e-02" style="stop-color:#F0F0F0;stop-opacity:6.676307e-02"/>
		<stop  offset="0.2801" style="stop-color:#C7C7C7;stop-opacity:0.196"/>
		<stop  offset="0.5356" style="stop-color:#868686;stop-opacity:0.3749"/>
		<stop  offset="0.8489" style="stop-color:#2D2D2D;stop-opacity:0.5942"/>
		<stop  offset="1" style="stop-color:#000000;stop-opacity:0.7"/>
	</linearGradient>
	<polygon fill="url(#SVGID_1_)" points="593.1,878.7 631.8,920.3 887.1,920.6 887.1,878.3 	"/>
	<path fill="#E6E6E6" d="M887.5,885H614.8c-25.4,0-46.1-20.6-46.1-46.1V535.6h318.8V885z"/>
	<g>
		<path fill="#727272" d="M612.4,814.4c-1.4,1.6-2.4,3.7-2.4,6v16c0,5.1,4.5,9.6,9.6,9.6h16c2.1,0,3.9-0.9,5.4-2L612.4,814.4z"/>
		<path fill="#727272" d="M645,836.4v-16c0-5.1-4.3-9.4-9.4-9.4h-16c-2.8,0-5.3,1.3-7,3.3l28.6,29.5
			C643.5,842.1,645,839.4,645,836.4z"/>
		<linearGradient id="SVGID_2_" gradientUnits="userSpaceOnUse" x1="689.4852" y1="921.2374" x2="621.3981" y2="803.3071">
			<stop  offset="0" style="stop-color:#FFFFFF;stop-opacity:0"/>
			<stop  offset="9.537581e-02" style="stop-color:#F0F0F0;stop-opacity:6.676307e-02"/>
			<stop  offset="0.2801" style="stop-color:#C7C7C7;stop-opacity:0.196"/>
			<stop  offset="0.5356" style="stop-color:#868686;stop-opacity:0.3749"/>
			<stop  offset="0.8489" style="stop-color:#2D2D2D;stop-opacity:0.5942"/>
			<stop  offset="1" style="stop-color:#000000;stop-opacity:0.7"/>
		</linearGradient>
		<path fill="url(#SVGID_2_)" d="M645,836.4v-16c0-5.1-4.3-9.4-9.4-9.4h-16c-2.8,0-5.3,1.3-7,3.3l28.6,29.5
			C643.5,842.1,645,839.4,645,836.4z"/>
	</g>
	<g>
		<path fill="#727272" d="M612.4,746c-1.4,1.6-2.4,3.7-2.4,6v16c0,5.1,4.5,9,9.6,9h16c2.1,0,3.9-0.6,5.4-1.7L612.4,746z"/>
		<path fill="#727272" d="M645,768v-16c0-5.1-4.3-9-9.4-9h-16c-2.8,0-5.3,1.1-7,3.1l28.6,29.4C643.5,773.8,645,771,645,768z"/>
		<linearGradient id="SVGID_3_" gradientUnits="userSpaceOnUse" x1="689.2918" y1="852.642" x2="621.4612" y2="735.156">
			<stop  offset="0" style="stop-color:#FFFFFF;stop-opacity:0"/>
			<stop  offset="9.537581e-02" style="stop-color:#F0F0F0;stop-opacity:6.676307e-02"/>
			<stop  offset="0.2801" style="stop-color:#C7C7C7;stop-opacity:0.196"/>
			<stop  offset="0.5356" style="stop-color:#868686;stop-opacity:0.3749"/>
			<stop  offset="0.8489" style="stop-color:#2D2D2D;stop-opacity:0.5942"/>
			<stop  offset="1" style="stop-color:#000000;stop-opacity:0.7"/>
		</linearGradient>
		<path fill="url(#SVGID_3_)" d="M645,768v-16c0-5.1-4.3-9-9.4-9h-16c-2.8,0-5.3,1.1-7,3.1l28.6,29.4C643.5,773.8,645,771,645,768z"
			/>
	</g>
	<g>
		<path fill="#727272" d="M612.4,677.5c-1.4,1.6-2.4,3.7-2.4,6v16c0,5.1,4.5,9.4,9.6,9.4h16c2.1,0,3.9-0.8,5.4-1.9L612.4,677.5z"/>
		<path fill="#727272" d="M645,699.6v-16c0-5.1-4.3-9.5-9.4-9.5h-16c-2.8,0-5.3,1.4-7,3.4l28.6,29.5
			C643.5,705.2,645,702.6,645,699.6z"/>
		<linearGradient id="SVGID_4_" gradientUnits="userSpaceOnUse" x1="689.57" y1="784.4922" x2="621.3704" y2="666.3671">
			<stop  offset="0" style="stop-color:#FFFFFF;stop-opacity:0"/>
			<stop  offset="9.537581e-02" style="stop-color:#F0F0F0;stop-opacity:6.676307e-02"/>
			<stop  offset="0.2801" style="stop-color:#C7C7C7;stop-opacity:0.196"/>
			<stop  offset="0.5356" style="stop-color:#868686;stop-opacity:0.3749"/>
			<stop  offset="0.8489" style="stop-color:#2D2D2D;stop-opacity:0.5942"/>
			<stop  offset="1" style="stop-color:#000000;stop-opacity:0.7"/>
		</linearGradient>
		<path fill="url(#SVGID_4_)" d="M645,699.6v-16c0-5.1-4.3-9.5-9.4-9.5h-16c-2.8,0-5.3,1.4-7,3.4l28.6,29.5
			C643.5,705.2,645,702.6,645,699.6z"/>
	</g>
	<g>
		<path fill="#727272" d="M612.4,607.6c-1.4,1.6-2.4,3.7-2.4,6v16c0,5.1,4.5,9.4,9.6,9.4h16c2.1,0,3.9-0.8,5.4-1.9L612.4,607.6z"/>
		<path fill="#727272" d="M645,629.6v-16c0-5.1-4.3-9.6-9.4-9.6h-16c-2.8,0-5.3,1.4-7,3.4l28.6,29.5
			C643.5,635.2,645,632.7,645,629.6z"/>
		<linearGradient id="SVGID_5_" gradientUnits="userSpaceOnUse" x1="689.5945" y1="714.5652" x2="621.3624" y2="596.3839">
			<stop  offset="0" style="stop-color:#FFFFFF;stop-opacity:0"/>
			<stop  offset="9.537581e-02" style="stop-color:#F0F0F0;stop-opacity:6.676307e-02"/>
			<stop  offset="0.2801" style="stop-color:#C7C7C7;stop-opacity:0.196"/>
			<stop  offset="0.5356" style="stop-color:#868686;stop-opacity:0.3749"/>
			<stop  offset="0.8489" style="stop-color:#2D2D2D;stop-opacity:0.5942"/>
			<stop  offset="1" style="stop-color:#000000;stop-opacity:0.7"/>
		</linearGradient>
		<path fill="url(#SVGID_5_)" d="M645,629.6v-16c0-5.1-4.3-9.6-9.4-9.6h-16c-2.8,0-5.3,1.4-7,3.4l28.6,29.5
			C643.5,635.2,645,632.7,645,629.6z"/>
	</g>
	
		<linearGradient id="SVGID_6_" gradientUnits="userSpaceOnUse" x1="3666.708" y1="-1930.4688" x2="3630.8176" y2="-1992.6329" gradientTransform="matrix(-8.979300e-11 1 1 8.979300e-11 2656.2729 -2656.2729)">
		<stop  offset="0" style="stop-color:#FFFFFF;stop-opacity:0"/>
		<stop  offset="9.537581e-02" style="stop-color:#F0F0F0;stop-opacity:6.676307e-02"/>
		<stop  offset="0.2801" style="stop-color:#C7C7C7;stop-opacity:0.196"/>
		<stop  offset="0.5356" style="stop-color:#868686;stop-opacity:0.3749"/>
		<stop  offset="0.8489" style="stop-color:#2D2D2D;stop-opacity:0.5942"/>
		<stop  offset="1" style="stop-color:#000000;stop-opacity:0.7"/>
	</linearGradient>
	<path fill="url(#SVGID_6_)" d="M678,949.7l44.7,52.7l0.1,13.3c-0.2-0.1-44.7,0.1-44.7,0.1L678,949.7z"/>
	<g>
		<polygon fill="#727272" points="576.7,950 678.8,950 678.9,1087.7 627.8,1036 578.1,1083.5 		"/>
		<polygon fill="#878787" points="678.8,985 576,1088 576,950.3 678.8,950.3 		"/>
	</g>
</g>
<linearGradient id="SVGID_2_" gradientUnits="userSpaceOnUse" x1="597.5833" y1="550.75" x2="471.4167" y2="424.5833">
	<stop  offset="0" style="stop-color:#FFFFFF;stop-opacity:0"/>
	<stop  offset="9.537581e-02" style="stop-color:#F0F0F0;stop-opacity:6.676307e-02"/>
	<stop  offset="0.2801" style="stop-color:#C7C7C7;stop-opacity:0.196"/>
	<stop  offset="0.5356" style="stop-color:#868686;stop-opacity:0.3749"/>
	<stop  offset="0.8489" style="stop-color:#2D2D2D;stop-opacity:0.5942"/>
	<stop  offset="1" style="stop-color:#000000;stop-opacity:0.7"/>
</linearGradient>
<polygon fill="url(#SVGID_2_)" points="466.3,508.7 563.3,585 563,427 467.3,428.7 "/>
<g>
	<path fill="#E6E6E6" d="M419,561.1h-323c-24.8,0-45-20.2-45-45V123.2c0-24.8,20.2-45,45-45h323c24.8,0,45,20.3,45,45v392.9
		C464,540.8,443.8,561.1,419,561.1z"/>
	<g>
		<path fill="#878787" d="M102,335.8l47.8-47.8c2-2,2-5.2,0-7.1l-3.6-3.6c-2-2-5.2-2-7.1,0l-54.5,54.5c-1.1,1.1-1.6,2.6-1.5,4
			c-0.1,1.4,0.4,2.9,1.5,4l54.5,54.5c2,2,5.2,2,7.1,0l3.6-3.6c2-2,2-5.2,0-7.1L102,335.8z"/>
		<path fill="#727272" d="M102,335.8l-10.9,10.6l48.6,48.7c2,2,5.2,2,7.2,0l3.6-3.6c2-2,2-5.2,0-7.2L102,335.8z"/>
	</g>
	<g>
		<path fill="#878787" d="M416.4,337.3l-47.8,47.8c-2,2-2,5.2,0,7.1l3.6,3.6c2,2,5.2,2,7.1,0l54.5-54.5c1.1-1.1,1.6-2.6,1.5-4
			c0.1-1.4-0.4-2.9-1.5-4l-54.5-54.5c-2-2-5.2-2-7.1,0l-3.6,3.6c-2,2-2,5.2,0,7.1L416.4,337.3z"/>
		<path fill="#727272" d="M416.4,337.3l10.7-10.7l-47.6-48c-2-2-5.2-2-7.1,0l-3.6,3.6c-2.4,2.1-2,5.5,0,7.5L416.4,337.3z"/>
	</g>
	<path fill="#878787" d="M99,73.1h317c33.1,0,48.1,10.5,48.1,43.8v15.2H50.8v-19.3C50.8,82,68.3,73.1,99,73.1z"/>
	<path fill="#FFFFFF" d="M433.8,210.2H76.6c-6.6,0-12-5.4-12-12V167c0-6.6,5.4-12,12-12h357.1c6.6,0,12,5.4,12,12v31.2
		C445.8,204.8,440.4,210.2,433.8,210.2z"/>
	<rect x="81.3" y="170.3" fill="none" width="357.9" height="40.8"/>
	<text transform="matrix(1 0 0 1 81.3451 194.9816)"><tspan x="0" y="0" fill="#727272" font-family="'PTSans-Regular'" font-size="35.2292">https</tspan><tspan x="77" y="0" fill="#727272" font-family="'PTSans-Regular'" font-size="35.2292" letter-spacing="3">:</tspan><tspan x="88.3" y="0" fill="#727272" font-family="'PTSans-Regular'" font-size="35.2292" letter-spacing="-2">/</tspan><tspan x="98.6" y="0" fill="#727272" font-family="'PTSans-Regular'" font-size="35.2292">/gist.github.com</tspan></text>
	<g>
		<path fill="#878787" d="M209.4,348.6h4.2c0.3,1.1,0.5,2.4,0.8,3.9c0.2,1.5,0.4,3.2,0.6,4.9c0.2,1.7,0.3,3.5,0.4,5.2
			c0.1,1.7,0.1,3.2,0.1,4.6c-2.4,1.5-5.4,2.6-8.9,3.2c-3.6,0.6-7.2,0.9-11,0.9c-5.6,0-10.8-0.7-15.4-2.1c-4.6-1.4-8.5-3.6-11.7-6.6
			c-3.2-3-5.7-6.9-7.5-11.5c-1.8-4.7-2.7-10.3-2.7-16.8c0-6.5,1-12,2.9-16.7c1.9-4.7,4.5-8.5,7.8-11.5c3.3-3,7.1-5.2,11.4-6.6
			c4.3-1.4,8.9-2.1,13.6-2.1c4.5,0,8.6,0.3,12.2,1c3.6,0.6,6.6,1.5,8.9,2.6c0,1.1-0.1,2.5-0.2,4.2c-0.1,1.7-0.3,3.5-0.5,5.4
			c-0.2,1.9-0.5,3.7-0.8,5.5c-0.3,1.8-0.6,3.3-0.9,4.5h-4.3l-5.6-15.4c-0.6-0.3-1.6-0.6-3-0.8c-1.4-0.2-2.8-0.3-4.2-0.3
			c-2.8,0-5.4,0.6-7.9,1.7c-2.4,1.1-4.6,2.9-6.5,5.4c-1.9,2.4-3.4,5.6-4.5,9.4c-1.1,3.8-1.6,8.5-1.6,13.8c0,9.7,1.9,17.2,5.8,22.4
			c3.9,5.2,9.1,7.9,15.8,7.9c1.9,0,3.5-0.2,4.8-0.5s2.2-0.7,2.7-1.3L209.4,348.6z"/>
		<path fill="#878787" d="M229,298.6h33.5v3.9c-1.4,0.7-3,1.4-4.7,1.9c-1.7,0.5-3.4,0.9-5.1,1.1v57.9h19.7l6.8-18.3h4.2
			c0.3,1.6,0.5,3.4,0.8,5.5c0.2,2.1,0.4,4.3,0.6,6.6c0.1,2.3,0.2,4.6,0.3,6.8c0.1,2.2,0.1,4.2,0,5.9h-56v-3.9c1.6-0.8,3-1.5,4.4-1.9
			c1.4-0.5,2.7-0.8,3.9-1v-57.7c-3.3-0.5-6.1-1.5-8.4-3V298.6z"/>
		<path fill="#878787" d="M319.8,370h-25.2v-3.9c1.1-0.7,2.3-1.3,3.5-1.8c1.3-0.5,2.5-0.9,3.7-1.2l26.3-65.8h7.5l25.6,65.8
			c1.4,0.3,2.7,0.7,4.1,1.2c1.4,0.5,2.6,1.1,3.6,1.8v3.9H337v-3.9c1.3-0.6,2.7-1.2,4.2-1.7c1.5-0.5,2.9-1,4.3-1.2l-5.9-16.2h-22.6
			l-6,16.2c3.1,0.4,6.1,1.4,8.9,3V370z M319.4,340.3h18.1l-6.6-19.5l-1.9-8.8h-0.2l-2.2,9L319.4,340.3z"/>
	</g>
	<circle fill="#C1C1C1" cx="82.6" cy="108.3" r="9.8"/>
	<circle fill="#C1C1C1" cx="112.2" cy="108.3" r="9.8"/>
	<circle fill="#C1C1C1" cx="140.9" cy="108.3" r="9.8"/>
</g>
<g>
	<g>
		<circle fill="#FFFFFF" cx="471.6" cy="533.7" r="104.7"/>
		<path fill="#E74C3C" d="M471.6,648.6c-63.4,0-115-51.6-115-115s51.6-115,115-115s115,51.6,115,115S535,648.6,471.6,648.6z
			 M471.6,439.2c-52.1,0-94.5,42.4-94.5,94.5s42.4,94.5,94.5,94.5c52.1,0,94.5-42.4,94.5-94.5S523.7,439.2,471.6,439.2z"/>
	</g>
	<linearGradient id="SVGID_7_" gradientUnits="userSpaceOnUse" x1="547.376" y1="610.1667" x2="468.9218" y2="531.7124">
		<stop  offset="0" style="stop-color:#FFFFFF;stop-opacity:0"/>
		<stop  offset="9.537581e-02" style="stop-color:#F0F0F0;stop-opacity:4.768791e-02"/>
		<stop  offset="0.2801" style="stop-color:#C7C7C7;stop-opacity:0.14"/>
		<stop  offset="0.5356" style="stop-color:#868686;stop-opacity:0.2678"/>
		<stop  offset="0.8489" style="stop-color:#2D2D2D;stop-opacity:0.4244"/>
		<stop  offset="1" style="stop-color:#000000;stop-opacity:0.5"/>
	</linearGradient>
	<polygon fill="url(#SVGID_7_)" points="413.9,586.8 462.9,636 537.5,620 580.5,552 537.5,490 499.5,527.3 479.2,529.6 466.5,539.6 
		460.9,554.3 	"/>
	<path fill="#D32F2F" d="M557.7,457.7l-7.6,6.8l-7.6,6.9c14.6,16.6,23.5,38.5,23.5,62.3c0,52.1-42.4,94.5-94.5,94.5
		c-27.3,0-51.9-11.6-69.2-30.2l-7.6,6.9l-7.5,6.8c21,22.7,51.1,37,84.4,37c63.4,0,115-51.6,115-115
		C586.5,504.6,575.6,477.9,557.7,457.7z"/>
	<g>
		<g>
			<path fill="#E74C3C" d="M436.6,585.4L436.6,585.4c-9.4,7.3-22.9,5.5-30.2-3.9c-3.5-4.5-5-10.2-4.3-15.9
				c0.7-5.7,3.6-10.8,8.2-14.3l27.7-21.4c9.4-7.3,22.9-5.5,30.2,3.9c3.5,4.5,5,10.2,4.3,15.9c-0.7,5.7-3.6,10.8-8.2,14.3
				L436.6,585.4z M445.9,540.2l-27.7,21.4c-1.8,1.4-2.9,3.4-3.2,5.7c-0.3,2.3,0.3,4.5,1.7,6.3c2.9,3.7,8.2,4.4,12,1.5l27.7-21.4
				c1.8-1.4,2.9-3.4,3.2-5.7c0.3-2.3-0.3-4.5-1.7-6.3C455,538,449.7,537.4,445.9,540.2z"/>
		</g>
		<g>
			<path fill="#E74C3C" d="M503.3,533.9L503.3,533.9c-9.4,7.3-22.9,5.5-30.2-3.9c-3.5-4.5-5-10.2-4.3-15.9
				c0.7-5.7,3.6-10.8,8.2-14.3l27.7-21.4c9.4-7.3,22.9-5.5,30.2,3.9c3.5,4.5,5,10.2,4.3,15.9c-0.7,5.7-3.6,10.8-8.2,14.3
				L503.3,533.9z M512.7,488.7L485,510.1c-1.8,1.4-2.9,3.4-3.2,5.7c-0.3,2.3,0.3,4.5,1.7,6.3c2.9,3.7,8.2,4.4,12,1.5l27.7-21.4
				c1.8-1.4,2.9-3.4,3.2-5.7c0.3-2.3-0.3-4.5-1.7-6.3C521.8,486.5,516.4,485.8,512.7,488.7z"/>
		</g>
		<path fill="#D32F2F" d="M448.9,542.9l36.5-27.2c1.9-1.4,4.5-1,5.9,0.9l0,0c1.4,1.9,1,4.5-0.9,5.9L454,549.7
			c-1.9,1.4-4.5,1-5.9-0.9h0C446.7,546.9,447,544.3,448.9,542.9z"/>
	</g>
</g>
</svg>
