<?xml version="1.0" encoding="utf-8"?>
<!-- Generator: Adobe Illustrator 18.1.1, SVG Export Plug-In . SVG Version: 6.00 Build 0)  -->
<svg version="1.1" id="Layer_1" xmlns="http://www.w3.org/2000/svg" xmlns:xlink="http://www.w3.org/1999/xlink" x="0px" y="0px"
	 viewBox="0 0 736 887" enable-background="new 0 0 736 887" xml:space="preserve">
<path fill="#E6E6E6" d="M544.1,742.1H93.6c-24.8,0-45-20.2-45-45v-542c0-24.8,20.3-45,45-45h450.5c24.8,0,45,20.2,45,45v542
	C589.1,721.8,568.8,742.1,544.1,742.1z"/>
<path fill="#878787" d="M543.7,742H93.5c-24.7,0-45-20.3-45-45v-86l540.5,0l-0.4,86C588.7,721.8,568.4,742,543.7,742z"/>
<g>
	<g>
		<path fill="#39B54A" d="M213.8,297.3c16.3,0,29.9,12.7,32.4,27.7h18.1c-2.6-25-24.2-45.7-50.6-45.7s-48,20.7-50.6,45.7h18.1
			C183.9,310,197.5,297.3,213.8,297.3z"/>
	</g>
	<g>
		<path fill="#39B54A" d="M415.8,297.3c16.3,0,29.9,12.7,32.4,27.7h18.1c-2.6-25-24.2-45.7-50.6-45.7s-48,20.7-50.6,45.7h18.1
			C385.9,310,399.5,297.3,415.8,297.3z"/>
	</g>
</g>
<g>
	<path fill="#009245" d="M199.5,409.6l0-0.5c-3.3,30.1,7,61.2,29,85.2c42,45.6,113.1,48.6,158.7,6.6c21-19.3,33.1-44.7,35.8-71
		L199.5,409.6z"/>
	<path fill="#39B54A" d="M197,396.3c0,0-5.6,38.5,14.5,72.9l145,51.7c0,0,55-17.1,71.1-97.8L197,396.3z"/>
</g>
<linearGradient id="SVGID_1_" gradientUnits="userSpaceOnUse" x1="508.3459" y1="770.2768" x2="373.507" y2="536.7291">
	<stop  offset="0" style="stop-color:#FFFFFF;stop-opacity:0"/>
	<stop  offset="0.1062" style="stop-color:#DCDCDC;stop-opacity:7.434703e-02"/>
	<stop  offset="0.357" style="stop-color:#8F8F8F;stop-opacity:0.2499"/>
	<stop  offset="0.5808" style="stop-color:#525252;stop-opacity:0.4066"/>
	<stop  offset="0.7692" style="stop-color:#252525;stop-opacity:0.5384"/>
	<stop  offset="0.9148" style="stop-color:#0A0A0A;stop-opacity:0.6403"/>
	<stop  offset="1" style="stop-color:#000000;stop-opacity:0.7"/>
</linearGradient>
<path fill="url(#SVGID_1_)" d="M244,611.5l129,130.2l141.4-0.2l34.1-0.2c28.5,0,40.5-29.7,40.5-42.3l0-88L244,611.5z"/>
<linearGradient id="SVGID_2_" gradientUnits="userSpaceOnUse" x1="595.54" y1="364.7241" x2="506.0374" y2="209.701">
	<stop  offset="0" style="stop-color:#FFFFFF;stop-opacity:0"/>
	<stop  offset="0.1541" style="stop-color:#DEDEDE;stop-opacity:0.1078"/>
	<stop  offset="0.4952" style="stop-color:#888888;stop-opacity:0.3466"/>
	<stop  offset="0.9961" style="stop-color:#010101;stop-opacity:0.6973"/>
	<stop  offset="1" style="stop-color:#000000;stop-opacity:0.7"/>
</linearGradient>
<polygon fill="url(#SVGID_2_)" points="457,238 589,368.5 589,240.1 "/>
<g>
	<g>
		<g>
			<circle fill="#FFFFFF" cx="531.3" cy="154.1" r="102.4"/>
			<path fill="#39B54A" d="M531.3,41.7c-62,0-112.4,50.4-112.4,112.4s50.4,112.4,112.4,112.4s112.4-50.4,112.4-112.4
				S593.3,41.7,531.3,41.7z M531.3,246.5c-51,0-92.4-41.5-92.4-92.4s41.5-92.4,92.4-92.4s92.4,41.5,92.4,92.4
				S582.3,246.5,531.3,246.5z"/>
		</g>
	</g>
</g>
<g>
	<g opacity="0.75">
		<path fill="#333333" d="M472.6,694.9h2.1c0.1,0.6,0.3,1.2,0.4,2c0.1,0.8,0.2,1.6,0.3,2.5c0.1,0.9,0.1,1.8,0.2,2.6
			c0,0.9,0.1,1.6,0.1,2.3c-1.2,0.8-2.7,1.3-4.6,1.6c-1.8,0.3-3.7,0.5-5.6,0.5c-2.9,0-5.5-0.4-7.8-1.1c-2.3-0.7-4.3-1.8-6-3.4
			c-1.6-1.5-2.9-3.5-3.8-5.9c-0.9-2.4-1.4-5.2-1.4-8.6c0-3.3,0.5-6.1,1.5-8.5c1-2.4,2.3-4.3,4-5.9c1.7-1.5,3.6-2.6,5.8-3.4
			c2.2-0.7,4.5-1.1,6.9-1.1c2.3,0,4.4,0.2,6.2,0.5c1.9,0.3,3.4,0.8,4.6,1.3c0,0.6,0,1.3-0.1,2.1c-0.1,0.9-0.1,1.8-0.3,2.7
			c-0.1,1-0.3,1.9-0.4,2.8c-0.2,0.9-0.3,1.7-0.4,2.3h-2.2l-2.9-7.9c-0.3-0.2-0.8-0.3-1.5-0.4c-0.7-0.1-1.4-0.2-2.1-0.2
			c-1.4,0-2.8,0.3-4,0.9c-1.2,0.6-2.4,1.5-3.3,2.7c-1,1.2-1.7,2.9-2.3,4.8c-0.6,2-0.8,4.3-0.8,7c0,5,1,8.8,3,11.4c2,2.7,4.7,4,8.1,4
			c1,0,1.8-0.1,2.5-0.2c0.7-0.2,1.1-0.4,1.4-0.7L472.6,694.9z"/>
		<path fill="#333333" d="M482.6,669.4h17.1v2c-0.7,0.4-1.5,0.7-2.4,1c-0.9,0.3-1.7,0.4-2.6,0.5v29.6h10l3.5-9.3h2.1
			c0.1,0.8,0.3,1.7,0.4,2.8c0.1,1.1,0.2,2.2,0.3,3.4c0.1,1.2,0.1,2.3,0.2,3.5c0,1.1,0,2.2,0,3h-28.6v-2c0.8-0.4,1.6-0.7,2.3-1
			c0.7-0.2,1.4-0.4,2-0.5v-29.4c-1.7-0.3-3.1-0.8-4.3-1.5V669.4z"/>
		<path fill="#333333" d="M528.9,705.8h-12.9v-2c0.6-0.3,1.2-0.7,1.8-0.9c0.6-0.3,1.3-0.5,1.9-0.6l13.4-33.6h3.8l13.1,33.6
			c0.7,0.1,1.4,0.3,2.1,0.6c0.7,0.3,1.3,0.6,1.8,0.9v2h-16.3v-2c0.7-0.3,1.4-0.6,2.1-0.9c0.8-0.3,1.5-0.5,2.2-0.6l-3-8.3h-11.5
			l-3.1,8.3c1.6,0.2,3.1,0.7,4.5,1.5V705.8z M528.7,690.6h9.2l-3.4-9.9l-1-4.5h-0.1l-1.1,4.6L528.7,690.6z"/>
	</g>
	<g>
		<g>
			<path fill="#FFFFFF" d="M470.6,692.9h2.1c0.1,0.6,0.3,1.2,0.4,2c0.1,0.8,0.2,1.6,0.3,2.5c0.1,0.9,0.1,1.8,0.2,2.6
				c0,0.9,0.1,1.6,0.1,2.3c-1.2,0.8-2.7,1.3-4.6,1.6c-1.8,0.3-3.7,0.5-5.6,0.5c-2.9,0-5.5-0.4-7.8-1.1c-2.3-0.7-4.3-1.8-6-3.4
				c-1.6-1.5-2.9-3.5-3.8-5.9c-0.9-2.4-1.4-5.2-1.4-8.6c0-3.3,0.5-6.1,1.5-8.5c1-2.4,2.3-4.3,4-5.9c1.7-1.5,3.6-2.6,5.8-3.4
				c2.2-0.7,4.5-1.1,6.9-1.1c2.3,0,4.4,0.2,6.2,0.5c1.9,0.3,3.4,0.8,4.6,1.3c0,0.6,0,1.3-0.1,2.1c-0.1,0.9-0.1,1.8-0.3,2.7
				c-0.1,1-0.3,1.9-0.4,2.8c-0.2,0.9-0.3,1.7-0.4,2.3h-2.2l-2.9-7.9c-0.3-0.2-0.8-0.3-1.5-0.4c-0.7-0.1-1.4-0.2-2.1-0.2
				c-1.4,0-2.8,0.3-4,0.9c-1.2,0.6-2.4,1.5-3.3,2.7c-1,1.2-1.7,2.9-2.3,4.8c-0.6,2-0.8,4.3-0.8,7c0,5,1,8.8,3,11.4
				c2,2.7,4.7,4,8.1,4c1,0,1.8-0.1,2.5-0.2c0.7-0.2,1.1-0.4,1.4-0.7L470.6,692.9z"/>
			<path fill="#FFFFFF" d="M480.6,667.4h17.1v2c-0.7,0.4-1.5,0.7-2.4,1c-0.9,0.3-1.7,0.4-2.6,0.5v29.6h10l3.5-9.3h2.1
				c0.1,0.8,0.3,1.7,0.4,2.8c0.1,1.1,0.2,2.2,0.3,3.4c0.1,1.2,0.1,2.3,0.2,3.5c0,1.1,0,2.2,0,3h-28.6v-2c0.8-0.4,1.6-0.7,2.3-1
				c0.7-0.2,1.4-0.4,2-0.5v-29.4c-1.7-0.3-3.1-0.8-4.3-1.5V667.4z"/>
			<path fill="#FFFFFF" d="M526.9,703.8h-12.9v-2c0.6-0.3,1.2-0.7,1.8-0.9c0.6-0.3,1.3-0.5,1.9-0.6l13.4-33.6h3.8l13.1,33.6
				c0.7,0.1,1.4,0.3,2.1,0.6c0.7,0.3,1.3,0.6,1.8,0.9v2h-16.3v-2c0.7-0.3,1.4-0.6,2.1-0.9c0.8-0.3,1.5-0.5,2.2-0.6l-3-8.3h-11.5
				l-3.1,8.3c1.6,0.2,3.1,0.7,4.5,1.5V703.8z M526.7,688.6h9.2l-3.4-9.9l-1-4.5h-0.1l-1.1,4.6L526.7,688.6z"/>
		</g>
	</g>
</g>
<polygon fill="#C1C1C1" points="48.7,611 294.5,662.5 312.5,611 "/>
<polygon fill="#C1C1C1" points="589,611 342.7,662.5 324.7,611 "/>
<linearGradient id="SVGID_3_" gradientUnits="userSpaceOnUse" x1="610.4062" y1="225.6771" x2="546.452" y2="161.7228">
	<stop  offset="0" style="stop-color:#FFFFFF;stop-opacity:0"/>
	<stop  offset="0.1061" style="stop-color:#FAFAFA;stop-opacity:7.428008e-02"/>
	<stop  offset="0.2298" style="stop-color:#ECECEC;stop-opacity:0.1609"/>
	<stop  offset="0.3623" style="stop-color:#D5D5D5;stop-opacity:0.2536"/>
	<stop  offset="0.5011" style="stop-color:#B4B4B4;stop-opacity:0.3507"/>
	<stop  offset="0.6447" style="stop-color:#8A8A8A;stop-opacity:0.4513"/>
	<stop  offset="0.7923" style="stop-color:#565656;stop-opacity:0.5546"/>
	<stop  offset="0.9406" style="stop-color:#1A1A1A;stop-opacity:0.6584"/>
	<stop  offset="1" style="stop-color:#000000;stop-opacity:0.7"/>
</linearGradient>
<polygon fill="url(#SVGID_3_)" points="497.9,210.3 546.2,259.2 608.9,227.2 636.8,161.5 600.5,118.1 "/>
<g>
	<polygon fill="#009245" points="498.2,210.6 453.9,161.6 466,150.7 498.4,186.5 588.9,104.9 600.8,118.1 	"/>
	<polygon fill="#39B54A" points="510.2,199.8 498.5,186.5 588.9,104.9 600.8,118.1 	"/>
</g>
<path fill="#009245" d="M615.6,79.8l-7.4,6.7l-7.5,6.7c14.3,16.3,23,37.6,23,60.9c0,51-41.5,92.4-92.4,92.4
	c-26.7,0-50.8-11.4-67.7-29.6l-7.5,6.7l-7.4,6.7c20.6,22.2,49.9,36.2,82.5,36.2c62,0,112.4-50.4,112.4-112.4
	C643.7,125.7,633.1,99.6,615.6,79.8z"/>
</svg>
