<?xml version="1.0" encoding="utf-8"?>
<!-- Generator: Adobe Illustrator 18.1.1, SVG Export Plug-In . SVG Version: 6.00 Build 0)  -->
<svg version="1.1" id="Layer_1" xmlns="http://www.w3.org/2000/svg" xmlns:xlink="http://www.w3.org/1999/xlink" x="0px" y="0px"
	 viewBox="0 0 736 887" enable-background="new 0 0 736 887" xml:space="preserve">
<path fill="#878787" d="M601.9,680.9H151.4c-24.7,0-45-20.2-45-45v-542c0-24.8,20.2-45,45-45h450.5c24.8,0,45,20.3,45,45v542
	C646.9,660.6,626.6,680.9,601.9,680.9z"/>
<path fill="#727272" d="M587.6,146.6l58.9,58.7v434c0,23.1-18.7,41.7-41.7,41.7h-16.3L587.6,146.6z"/>
<path fill="#E6E6E6" d="M544.1,742.1H93.6c-24.8,0-45-20.2-45-45v-542c0-24.8,20.3-45,45-45h450.5c24.8,0,45,20.2,45,45v542
	C589.1,721.8,568.8,742.1,544.1,742.1z"/>
<path fill="#009245" d="M190.5,484.6l0-0.5c-3.3,30.1,7,61.2,29,85.2c42,45.6,113.1,48.6,158.7,6.6c21-19.3,33.1-44.7,35.8-71
	L190.5,484.6z"/>
<g>
	<path fill="#009245" d="M204.8,362.3c16.3,0,29.9,12.7,32.4,27.7h18.1c-2.6-25-24.2-45.7-50.6-45.7s-48,20.7-50.6,45.7h18.1
		C174.9,375,188.5,362.3,204.8,362.3z"/>
</g>
<g>
	<path fill="#009245" d="M406.8,362.3c16.3,0,29.9,12.7,32.4,27.7h18.1c-2.6-25-24.2-45.7-50.6-45.7s-48,20.7-50.6,45.7h18.1
		C376.9,375,390.5,362.3,406.8,362.3z"/>
</g>
<polygon fill="#009245" points="526.9,232.1 448.9,154.1 463.1,140 526.9,203.9 680.8,50 694.9,64.1 "/>
<path fill="#02A049" d="M190.5,484.6c0,0-5.5,38.9,18.5,70.7L359,590c0,0,48.5-26.8,55.1-85.1L190.5,484.6z"/>
<polygon fill="#02A049" points="541.1,218.1 527,203.9 680.8,50 695,64.1 "/>
</svg>
