<?xml version="1.0" encoding="utf-8"?>
<!-- Generator: Adobe Illustrator 18.1.1, SVG Export Plug-In . SVG Version: 6.00 Build 0)  -->
<svg version="1.1" id="Layer_1" xmlns="http://www.w3.org/2000/svg" xmlns:xlink="http://www.w3.org/1999/xlink" x="0px" y="0px"
	 viewBox="0 0 685 900" enable-background="new 0 0 685 900" xml:space="preserve">
<path fill="#878787" d="M601.9,680.9H151.4c-24.7,0-45-20.2-45-45v-542c0-24.8,20.2-45,45-45h450.5c24.8,0,45,20.3,45,45v542
	C646.9,660.6,626.6,680.9,601.9,680.9z"/>
<path fill="#727272" d="M587.6,146.6l58.9,58.7v434c0,23.1-18.7,41.7-41.7,41.7h-16.3L587.6,146.6z"/>
<path fill="#E6E6E6" d="M544.1,742.1H93.6c-24.8,0-45-20.2-45-45v-542c0-24.8,20.3-45,45-45h450.5c24.8,0,45,20.2,45,45v542
	C589.1,721.8,568.8,742.1,544.1,742.1z"/>
<g>
	<path fill="#E74C3C" d="M217.6,489.4l67.5-67.5c2.8-2.8,2.8-7.3,0-10.1l-5.1-5.1c-2.8-2.8-7.3-2.8-10.1,0l-77,77
		c-1.5,1.5-2.2,3.6-2.1,5.7c-0.2,2,0.5,4.1,2.1,5.7l77,77c2.8,2.8,7.3,2.8,10.1,0l5.1-5.1c2.8-2.8,2.8-7.3,0-10.1L217.6,489.4z"/>
	<path fill="#E74C3C" d="M403.8,489.4L336.3,557c-2.8,2.8-2.8,7.3,0,10.1l5.1,5.1c2.8,2.8,7.3,2.8,10.1,0l77-77
		c1.5-1.5,2.2-3.6,2.1-5.7c0.2-2-0.5-4.1-2.1-5.7l-77-77c-2.8-2.8-7.3-2.8-10.1,0l-5.1,5.1c-2.8,2.8-2.8,7.3,0,10.1L403.8,489.4z"/>
</g>
<g>
	<path fill="#727272" d="M265.2,204.7c1.5-10.5,1.4-11.8-9-14.1c-10.2-2.2-20.7-3.7-31.1-3.8c-22.1-0.2-38.4,11.3-45.3,32.2
		c-8.2,24.8-8.1,50,0,74.8c5.1,15.5,15.5,26.6,31.8,30.3c18.1,4.1,36.1,2.2,53.6-3.8c1.6-0.6,3.8-2.8,3.8-4.3
		c0.2-20.8,0.2-41.5,0.2-62.7c-13.8,0-27,0-40.3,0c0,3.8,0,7.2,0,11.2c9.6,0,18.7,0,28.1,0c0,14.7,0.2,28.7-0.2,42.7
		c0,1.8-2.6,4.6-4.4,4.9c-7.3,1.3-14.7,2.1-22.1,2.4c-20.1,0.7-32.8-8.2-38.8-27.4c-5.8-18.6-5.8-37.6-1.5-56.4
		c5.4-23.5,18.9-34,42.8-32.3C243.6,199.2,254.2,202.4,265.2,204.7z"/>
	<path fill="#727272" d="M386.7,245.6c1.2-9.7,1.3-10.4-9.2-11.8c-8.8-1.2-17.9-1.8-26.7-0.8c-14.7,1.6-23.8,12.3-23.8,25.9
		c0,12.8,6.7,19.5,22.6,22.5c6.4,1.2,13,1.8,19.4,3.2c5.9,1.3,9.7,5,10.2,11.3c0.6,6.6-1.2,12.3-7.4,15.5c-2.7,1.4-5.8,2.7-8.7,2.7
		c-11.5-0.1-23-0.8-34.7-1.2c0,2,0,5.2,0,8.4c10.7,4.7,28.1,6.2,40,3.5c15.8-3.5,23.5-13.2,22.9-28.8c-0.5-13.2-7.9-20.1-24.2-22.6
		c-6.3-1-12.6-1.5-18.8-2.9c-7.4-1.7-10.4-6.7-9.3-14.2c1.1-8.1,6.4-12.8,17.1-12.8C366.3,243.3,376.5,244.8,386.7,245.6z"/>
	<path fill="#727272" d="M433.2,243.4c9.5,0,18.4,0,27.5,0c0-3.5,0-6.2,0-9.7c-9.1,0-18,0-27.7,0c0-9.9,0-19.1,0-28.5
		c-12.8,2.1-12.8,2.1-12.8,13.4c0,13.6,0,13.7-13.6,17.9c-3.2,1-5.9,2-3.7,6.9c5.3,0,10.9,0,17,0c0.1,2.8,0.3,4.9,0.3,7.1
		c0,15.8,0,31.5,0,47.3c0,21.2,15.8,32.9,36.8,27c0-2.9,0-5.9,0-9.4c-3.8,0-7.3,0.3-10.7-0.1c-7.9-0.7-12.8-4.9-12.9-12.3
		C433,283.6,433.2,264.1,433.2,243.4z"/>
	<path fill="#727272" d="M292.6,234c0,26.1-0.3,51.4,0.2,76.7c0.2,10.5,7.8,15.8,19.2,14.7c0-2.9,0-5.9,0-9.4
		c-7.2-0.2-7.5-5.2-7.5-10.6c0.1-21.4,0-42.9,0-64.3c0-2.3,0-4.6,0-7.1C300.2,234,296.8,234,292.6,234z"/>
	<path fill="#727272" d="M298.5,197.4c-4.8,0-8.7,3.8-8.9,8.7c-0.2,5.3,3.6,9.4,8.8,9.4c4.9,0,8.7-3.7,8.9-8.6
		C307.5,201.7,303.5,197.4,298.5,197.4z"/>
</g>
<path fill="#D32F2F" d="M217.6,489.4l-15.4,14.9l68.7,68.9c2.8,2.8,7.3,2.8,10.1,0l5.1-5.1c2.8-2.8,2.8-7.3,0-10.1L217.6,489.4z"/>
<path fill="#D32F2F" d="M403.8,489.4l15.2-15.1l-67.3-67.8c-2.8-2.8-7.3-2.8-10.1,0l-5.1,5.1c-3.5,3-2.8,7.8,0,10.6L403.8,489.4z"/>
</svg>
