<?xml version="1.0" encoding="utf-8"?>
<!-- Generator: Adobe Illustrator 18.1.1, SVG Export Plug-In . SVG Version: 6.00 Build 0)  -->
<svg version="1.1" id="Layer_1" xmlns="http://www.w3.org/2000/svg" xmlns:xlink="http://www.w3.org/1999/xlink" x="0px" y="0px"
	 viewBox="0 0 685 900" enable-background="new 0 0 685 900" xml:space="preserve">
<g>
	<path fill="#878787" d="M601.4,680.9H150.9c-24.7,0-45-20.2-45-45v-542c0-24.8,20.2-45,45-45h450.5c24.8,0,45,20.3,45,45v542
		C646.4,660.6,626.1,680.9,601.4,680.9z"/>
	
		<linearGradient id="SVGID_1_" gradientUnits="userSpaceOnUse" x1="4001.5681" y1="-2771.1907" x2="3849.5144" y2="-3034.5557" gradientTransform="matrix(-8.979300e-11 1 1 8.979300e-11 3504.2729 -3504.2729)">
		<stop  offset="0" style="stop-color:#FFFFFF;stop-opacity:0"/>
		<stop  offset="9.537581e-02" style="stop-color:#F0F0F0;stop-opacity:6.676307e-02"/>
		<stop  offset="0.2801" style="stop-color:#C7C7C7;stop-opacity:0.196"/>
		<stop  offset="0.5356" style="stop-color:#868686;stop-opacity:0.3749"/>
		<stop  offset="0.8489" style="stop-color:#2D2D2D;stop-opacity:0.5942"/>
		<stop  offset="1" style="stop-color:#000000;stop-opacity:0.7"/>
	</linearGradient>
	<path fill="url(#SVGID_1_)" d="M585.6,144.5l60.2,71l0.3,420.2c0,26.2-21.2,45.2-47.4,45.2l-13.5-1.5L585.6,144.5z"/>
</g>
<g>
	<path fill="#E6E6E6" d="M542.3,733.1H93.7c-24.8,0-45-20.2-45-45V148.3c0-24.7,20.2-45,45-45h448.5c24.8,0,45,20.2,45,45v539.8
		C587.3,712.8,567,733.1,542.3,733.1z"/>
	<g>
		<path fill="#E74C3C" d="M115.2,439.3l62.3-62.3c2.6-2.6,2.6-6.8,0-9.3l-4.7-4.7c-2.6-2.6-6.8-2.6-9.3,0l-71.1,71.1
			c-1.4,1.4-2.1,3.4-1.9,5.2c-0.2,1.9,0.5,3.8,1.9,5.2l71.1,71.1c2.6,2.6,6.8,2.6,9.3,0l4.7-4.7c2.6-2.6,2.6-6.8,0-9.3L115.2,439.3z
			"/>
		<path fill="#D32F2F" d="M115.2,439.3L101,453.1l63.4,63.6c2.6,2.6,6.8,2.6,9.3,0l4.7-4.7c2.6-2.6,2.6-6.8,0-9.3L115.2,439.3z"/>
	</g>
	<g>
		<path fill="#E74C3C" d="M525.2,441.3l-62.3,62.3c-2.6,2.6-2.6,6.8,0,9.3l4.7,4.7c2.6,2.6,6.8,2.6,9.3,0l71.1-71.1
			c1.4-1.4,2.1-3.4,1.9-5.2c0.2-1.9-0.5-3.8-1.9-5.2L476.9,365c-2.6-2.6-6.8-2.6-9.3,0l-4.7,4.7c-2.6,2.6-2.6,6.8,0,9.3L525.2,441.3
			z"/>
		<path fill="#D32F2F" d="M525.2,441.3l14-13.9l-62.1-62.5c-2.6-2.6-6.8-2.6-9.3,0l-4.7,4.7c-3.2,2.8-2.6,7.2,0,9.8L525.2,441.3z"/>
	</g>
	<path fill="#C1C1C1" d="M111.3,96.8h413.4c43.1,0,62.8,13.7,62.8,57.1v19.8H48.4v-25.2C48.4,108.3,71.3,96.8,111.3,96.8z"/>
	<path fill="#FFFFFF" d="M551.4,275.6h-473c-6.6,0-12-5.4-12-12v-48c0-6.6,5.4-12,12-12h473c6.6,0,12,5.4,12,12v48
		C563.4,270.2,558,275.6,551.4,275.6z"/>
	<rect x="88.2" y="223.5" fill="none" width="466.7" height="53.2"/>
	<text transform="matrix(1 0 0 1 88.2207 255.6524)"><tspan x="0" y="0" fill="#727272" font-family="'PTSans-Regular'" font-size="45.9428">https</tspan><tspan x="100.5" y="0" fill="#727272" font-family="'PTSans-Regular'" font-size="45.9428" letter-spacing="4">:</tspan><tspan x="115.1" y="0" fill="#727272" font-family="'PTSans-Regular'" font-size="45.9428" letter-spacing="-2">/</tspan><tspan x="128.6" y="0" fill="#727272" font-family="'PTSans-Regular'" font-size="45.9428">/gist.github.com</tspan></text>
	<g>
		<path fill="#E74C3C" d="M255.2,456h5.5c0.4,1.4,0.7,3.1,1,5.1c0.3,2,0.6,4.1,0.8,6.4c0.2,2.3,0.4,4.5,0.5,6.7
			c0.1,2.2,0.1,4.2,0.1,6c-3.1,2-7,3.3-11.6,4.1c-4.7,0.8-9.4,1.2-14.3,1.2c-7.4,0-14-0.9-20-2.7c-6-1.8-11.1-4.7-15.3-8.6
			c-4.2-3.9-7.5-9-9.8-15c-2.3-6.1-3.5-13.4-3.5-21.9c0-8.4,1.3-15.7,3.8-21.8c2.5-6.1,5.9-11.1,10.2-15c4.3-3.9,9.2-6.8,14.8-8.6
			c5.6-1.8,11.6-2.7,17.8-2.7c5.9,0,11.2,0.4,15.9,1.3c4.7,0.8,8.6,2,11.6,3.4c0,1.4-0.1,3.2-0.2,5.5s-0.4,4.5-0.7,7
			c-0.3,2.4-0.7,4.8-1.1,7.2c-0.4,2.4-0.8,4.3-1.1,5.9H254l-7.3-20.1c-0.8-0.4-2.1-0.8-3.9-1.1c-1.8-0.3-3.6-0.4-5.5-0.4
			c-3.6,0-7.1,0.7-10.2,2.2c-3.2,1.5-6,3.8-8.5,7c-2.5,3.2-4.4,7.3-5.9,12.3c-1.4,5-2.1,11-2.1,18c0,12.7,2.5,22.4,7.6,29.3
			c5.1,6.8,11.9,10.2,20.6,10.2c2.5,0,4.6-0.2,6.3-0.6c1.7-0.4,2.9-1,3.5-1.7L255.2,456z"/>
		<path fill="#E74C3C" d="M280.8,390.8h43.6v5.1c-1.9,1-3.9,1.8-6.2,2.5c-2.3,0.7-4.5,1.1-6.6,1.4v75.6h25.7l8.9-23.8h5.5
			c0.4,2,0.7,4.4,1,7.2c0.3,2.8,0.6,5.6,0.7,8.6c0.2,3,0.3,6,0.4,8.9c0.1,2.9,0.1,5.5,0,7.7h-73v-5.1c2-1.1,4-1.9,5.8-2.5
			c1.8-0.6,3.5-1.1,5.1-1.3v-75.3c-4.3-0.7-8-2-10.9-3.9V390.8z"/>
		<path fill="#E74C3C" d="M399.2,483.9h-32.9v-5.1c1.4-0.9,2.9-1.7,4.6-2.3c1.6-0.7,3.3-1.2,4.9-1.5l34.3-85.8h9.8l33.4,85.8
			c1.8,0.4,3.5,0.9,5.3,1.5c1.8,0.7,3.3,1.4,4.7,2.3v5.1h-41.6v-5.1c1.7-0.8,3.5-1.6,5.5-2.3c2-0.7,3.8-1.2,5.6-1.6l-7.7-21.2h-29.5
			l-7.8,21.2c4.1,0.5,7.9,1.8,11.6,3.9V483.9z M398.6,445.2h23.5l-8.6-25.4l-2.5-11.4h-0.3l-2.9,11.7L398.6,445.2z"/>
	</g>
	<circle fill="#878787" cx="89.9" cy="142.6" r="12.8"/>
	<circle fill="#878787" cx="128.5" cy="142.6" r="12.8"/>
	<circle fill="#878787" cx="165.9" cy="142.6" r="12.8"/>
</g>
</svg>
