<?xml version="1.0" encoding="utf-8"?>
<!-- Generator: Adobe Illustrator 18.1.1, SVG Export Plug-In . SVG Version: 6.00 Build 0)  -->
<svg version="1.1" id="Layer_1" xmlns="http://www.w3.org/2000/svg" xmlns:xlink="http://www.w3.org/1999/xlink" x="0px" y="0px"
	 viewBox="0 0 685 789.1" enable-background="new 0 0 685 789.1" xml:space="preserve">
<path fill="#E6E6E6" d="M536.1,755.8H93c-24.8,0-45-20.2-45-45V177.3c0-24.8,20.3-45,45-45h443.2c24.8,0,45,20.3,45,45v533.5
	C581.1,735.6,560.9,755.8,536.1,755.8z"/>
<path fill="#878787" d="M109.9,125.9h409.3c42.7,0,62.1,13.6,62.1,56.6V202H47.6v-24.9C47.6,137.3,70.3,125.9,109.9,125.9z"/>
<path fill="#FFFFFF" d="M545.6,302.9H77.5c-6.6,0-12-5.4-12-12v-47.3c0-6.6,5.4-12,12-12h468.1c6.6,0,12,5.4,12,12v47.3
	C557.6,297.5,552.2,302.9,545.6,302.9z"/>
<rect x="87.1" y="251.3" fill="none" width="462.1" height="52.7"/>
<text transform="matrix(1 0 0 1 87.0695 283.1707)"><tspan x="0" y="0" fill="#727272" font-family="'PTSans-Regular'" font-size="45.4846">https</tspan><tspan x="99.5" y="0" fill="#727272" font-family="'PTSans-Regular'" font-size="45.4846" letter-spacing="4">:</tspan><tspan x="114" y="0" fill="#727272" font-family="'PTSans-Regular'" font-size="45.4846" letter-spacing="-2">/</tspan><tspan x="127.4" y="0" fill="#727272" font-family="'PTSans-Regular'" font-size="45.4846">/gist.github.com</tspan></text>
<circle fill="#C1C1C1" cx="88.7" cy="171.2" r="12.6"/>
<circle fill="#C1C1C1" cx="126.9" cy="171.2" r="12.6"/>
<circle fill="#C1C1C1" cx="164" cy="171.2" r="12.6"/>
<g>
	<g>
		<g>
			<circle fill="#FFFFFF" cx="553.6" cy="132.7" r="104.7"/>
			<path fill="#E74C3C" d="M553.6,247.6c-63.4,0-115-51.6-115-115s51.6-115,115-115s115,51.6,115,115S617,247.6,553.6,247.6z
				 M553.6,38.2c-52.1,0-94.5,42.4-94.5,94.5s42.4,94.5,94.5,94.5s94.5-42.4,94.5-94.5S605.7,38.2,553.6,38.2z"/>
		</g>
		<path fill="#D32F2F" d="M639.7,56.7l-7.6,6.8l-7.6,6.9c14.6,16.6,23.5,38.5,23.5,62.3c0,52.1-42.4,94.5-94.5,94.5
			c-27.3,0-51.9-11.6-69.2-30.2l-7.6,6.9l-7.5,6.8c21,22.7,51.1,37,84.4,37c63.4,0,115-51.6,115-115
			C668.5,103.6,657.6,76.9,639.7,56.7z"/>
	</g>
	<linearGradient id="SVGID_1_" gradientUnits="userSpaceOnUse" x1="633.3234" y1="215.719" x2="553.5522" y2="135.9478">
		<stop  offset="0" style="stop-color:#FFFFFF;stop-opacity:0"/>
		<stop  offset="9.537581e-02" style="stop-color:#F0F0F0;stop-opacity:4.768791e-02"/>
		<stop  offset="0.2801" style="stop-color:#C7C7C7;stop-opacity:0.14"/>
		<stop  offset="0.5356" style="stop-color:#868686;stop-opacity:0.2678"/>
		<stop  offset="0.8489" style="stop-color:#2D2D2D;stop-opacity:0.4244"/>
		<stop  offset="1" style="stop-color:#000000;stop-opacity:0.5"/>
	</linearGradient>
	<polygon fill="url(#SVGID_1_)" points="504.4,187.8 553.4,237 628,221 656.2,164 604.2,85.3 	"/>
	<path fill="#FFFFFF" stroke="#D32F2F" stroke-width="11" stroke-miterlimit="10" d="M586.8,165.1h-44.1c-6.6,0-12-5.4-12-12V87.2
		c0-6.6,5.4-12,12-12h44.1c6.6,0,12,5.4,12,12v65.9C598.8,159.7,593.4,165.1,586.8,165.1z"/>
	<linearGradient id="SVGID_2_" gradientUnits="userSpaceOnUse" x1="632.5" y1="206.8333" x2="551.1667" y2="125.5">
		<stop  offset="0" style="stop-color:#FFFFFF;stop-opacity:0"/>
		<stop  offset="9.537581e-02" style="stop-color:#F0F0F0;stop-opacity:4.768791e-02"/>
		<stop  offset="0.2801" style="stop-color:#C7C7C7;stop-opacity:0.14"/>
		<stop  offset="0.5356" style="stop-color:#868686;stop-opacity:0.2678"/>
		<stop  offset="0.8489" style="stop-color:#2D2D2D;stop-opacity:0.4244"/>
		<stop  offset="1" style="stop-color:#000000;stop-opacity:0.5"/>
	</linearGradient>
	<polygon fill="url(#SVGID_2_)" points="543.4,159.4 603.7,220.3 635.7,203.7 572.3,104.3 	"/>
	<path fill="#FFFFFF" stroke="#E74C3C" stroke-width="11" stroke-miterlimit="10" d="M560,188.9h-44.1c-6.6,0-12-5.4-12-12V111
		c0-6.6,5.4-12,12-12H560c6.6,0,12,5.4,12,12v65.9C572,183.5,566.6,188.9,560,188.9z"/>
</g>
<g>
	<path fill="#E74C3C" d="M122.3,489.4l57.6-57.6c2.4-2.4,2.4-6.2,0-8.6l-4.3-4.3c-2.4-2.4-6.2-2.4-8.6,0l-65.7,65.7
		c-1.3,1.3-1.9,3.1-1.8,4.8c-0.1,1.7,0.4,3.5,1.8,4.8l65.7,65.7c2.4,2.4,6.2,2.4,8.6,0l4.3-4.3c2.4-2.4,2.4-6.2,0-8.6L122.3,489.4z"
		/>
	<path fill="#D32F2F" d="M122.3,489.4l-13.1,12.7l58.6,58.7c2.4,2.4,6.3,2.4,8.6,0l4.3-4.3c2.4-2.4,2.4-6.3,0-8.6L122.3,489.4z"/>
</g>
<g>
	<path fill="#E74C3C" d="M537.3,491.2l-57.6,57.6c-2.4,2.4-2.4,6.2,0,8.6l4.3,4.3c2.4,2.4,6.2,2.4,8.6,0l65.7-65.7
		c1.3-1.3,1.9-3.1,1.8-4.8c0.1-1.7-0.4-3.5-1.8-4.8l-65.7-65.7c-2.4-2.4-6.2-2.4-8.6,0l-4.3,4.3c-2.4,2.4-2.4,6.2,0,8.6L537.3,491.2
		z"/>
	<path fill="#D32F2F" d="M537.3,491.2l12.9-12.9l-57.4-57.8c-2.4-2.4-6.2-2.4-8.6,0l-4.3,4.3c-2.9,2.6-2.4,6.7,0,9.1L537.3,491.2z"
		/>
</g>
<g>
	<path fill="#727272" d="M265.7,504.8h5c0.3,1.3,0.6,2.9,0.9,4.7c0.3,1.8,0.5,3.8,0.7,5.9c0.2,2.1,0.3,4.2,0.4,6.2
		c0.1,2.1,0.1,3.9,0.1,5.5c-2.9,1.8-6.5,3.1-10.8,3.8c-4.3,0.7-8.7,1.1-13.2,1.1c-6.8,0-13-0.8-18.5-2.5c-5.5-1.7-10.2-4.3-14.1-8
		c-3.9-3.6-6.9-8.3-9-13.9c-2.1-5.6-3.2-12.4-3.2-20.2c0-7.8,1.2-14.5,3.5-20.1c2.3-5.6,5.5-10.2,9.4-13.8c3.9-3.6,8.5-6.2,13.7-7.9
		c5.2-1.7,10.7-2.5,16.4-2.5c5.4,0,10.3,0.4,14.7,1.2c4.4,0.8,8,1.8,10.8,3.1c0,1.3-0.1,3-0.2,5c-0.1,2-0.3,4.2-0.6,6.5
		c-0.3,2.3-0.6,4.5-1,6.6c-0.4,2.2-0.7,4-1,5.5h-5.2l-6.8-18.6c-0.7-0.4-1.9-0.7-3.6-1c-1.6-0.2-3.3-0.4-5-0.4c-3.4,0-6.5,0.7-9.5,2
		c-3,1.4-5.6,3.5-7.9,6.5c-2.3,3-4.1,6.7-5.4,11.4c-1.3,4.6-2,10.2-2,16.7c0,11.7,2.3,20.7,7,27.1c4.7,6.3,11,9.5,19.1,9.5
		c2.3,0,4.2-0.2,5.8-0.6c1.6-0.4,2.7-0.9,3.3-1.5L265.7,504.8z"/>
	<path fill="#727272" d="M289.4,444.5h40.3v4.7c-1.7,0.9-3.6,1.7-5.7,2.3c-2.1,0.6-4.1,1-6.1,1.3v69.8h23.7l8.2-22h5
		c0.3,1.9,0.6,4.1,0.9,6.6c0.3,2.5,0.5,5.2,0.7,8c0.2,2.8,0.3,5.5,0.4,8.2c0.1,2.7,0.1,5.1,0,7.1h-67.5v-4.7c1.9-1,3.7-1.8,5.3-2.3
		c1.7-0.6,3.3-1,4.7-1.2v-69.6c-4-0.7-7.4-1.8-10.1-3.6V444.5z"/>
	<path fill="#727272" d="M398.8,530.6h-30.4v-4.7c1.3-0.8,2.7-1.5,4.2-2.2c1.5-0.6,3-1.1,4.5-1.4l31.7-79.3h9.1l30.9,79.3
		c1.6,0.3,3.3,0.8,4.9,1.4c1.6,0.6,3.1,1.3,4.3,2.2v4.7h-38.5v-4.7c1.6-0.7,3.2-1.4,5-2.1c1.8-0.7,3.5-1.1,5.2-1.5l-7.1-19.5h-27.3
		l-7.3,19.5c3.8,0.5,7.3,1.7,10.7,3.6V530.6z M398.3,494.8h21.8l-8-23.5l-2.3-10.6h-0.2l-2.7,10.8L398.3,494.8z"/>
</g>
</svg>
