<?xml version="1.0" encoding="utf-8"?>
<!-- Generator: Adobe Illustrator 18.1.1, SVG Export Plug-In . SVG Version: 6.00 Build 0)  -->
<svg version="1.1" id="Layer_1" xmlns="http://www.w3.org/2000/svg" xmlns:xlink="http://www.w3.org/1999/xlink" x="0px" y="0px"
	 viewBox="0 0 685 900" enable-background="new 0 0 685 900" xml:space="preserve">
<path fill="#878787" d="M548.5,110.1H99.7c0,0-44.9,0-44.9,44.6v517.7c0,71.5,77.7,62,77.7,62l360-0.4c68,0,100.9-4,100.9-65.6
	V154.6C593.4,110.1,548.5,110.1,548.5,110.1z M279.2,288.4h-44.9V333h44.9V288.4z M279.2,199.2h-44.9v44.6h44.9V199.2z M279.2,466.8
	h-44.9v44.6h44.9V466.8z M279.2,377.6h-44.9v44.6h44.9V377.6z"/>
<path fill="#E6E6E6" d="M593.6,564.1H225.2c-25.4,0-46.1-20.6-46.1-46.1V109.9h414.4V564.1z"/>
<path fill="#727272" d="M267.2,244.7h-20.9c-6.6,0-12-5.4-12-12v-20.9c0-6.6,5.4-12,12-12h20.9c6.6,0,12,5.4,12,12v20.9
	C279.2,239.3,273.8,244.7,267.2,244.7z"/>
<path fill="#727272" d="M267.2,334.7h-20.9c-6.6,0-12-5.4-12-12v-20.9c0-6.6,5.4-12,12-12h20.9c6.6,0,12,5.4,12,12v20.9
	C279.2,329.3,273.8,334.7,267.2,334.7z"/>
<path fill="#727272" d="M267.2,423.9h-20.9c-6.6,0-12-5.4-12-12V391c0-6.6,5.4-12,12-12h20.9c6.6,0,12,5.4,12,12v20.9
	C279.2,418.5,273.8,423.9,267.2,423.9z"/>
<path fill="#727272" d="M267.2,513.8h-20.9c-6.6,0-12-5.4-12-12V481c0-6.6,5.4-12,12-12h20.9c6.6,0,12,5.4,12,12v20.9
	C279.2,508.4,273.8,513.8,267.2,513.8z"/>
<path fill="#E6E6E6" d="M537.8,738.4H107.3c-29.1,0-52.7-23.6-52.7-52.7v-75.3h538.9v72.3C593.5,713.4,568.6,738.4,537.8,738.4z"/>
<g>
	<polygon fill="#D32F2F" points="189.5,649 323.5,649 323.5,828 256.5,760.5 189.2,828.1 	"/>
	<polygon fill="#E74C3C" points="323.1,690.9 189.2,828.1 189.5,649 323.1,649 	"/>
</g>
<polygon fill="#727272" points="264.7,610.1 593.5,610.3 593.5,564 218.5,564 "/>
<polygon fill="#C1C1C1" points="465.9,229.2 593.5,357 593.5,246 "/>
<g>
	<g>
		<g>
			<circle fill="#FFFFFF" cx="548.3" cy="153.1" r="102.4"/>
			<path fill="#E74C3C" d="M548.3,265.5c-62,0-112.4-50.4-112.4-112.4S486.3,40.7,548.3,40.7s112.4,50.4,112.4,112.4
				S610.3,265.5,548.3,265.5z M548.3,60.7c-51,0-92.4,41.5-92.4,92.4s41.5,92.4,92.4,92.4s92.4-41.5,92.4-92.4
				S599.3,60.7,548.3,60.7z"/>
		</g>
		<g>
			<path fill="#E74C3C" d="M604.4,146h-49.9V97c0-4.1-3.4-7.5-7.5-7.5s-7.5,3.4-7.5,7.5v49h-47.3c-4.1,0-7.5,3.4-7.5,7.5l0,0
				c0,4.1,3.4,7.5,7.5,7.5h47.3v48.2c0,4.1,3.4,7.5,7.5,7.5s7.5-3.4,7.5-7.5V161h49.9c4.1,0,7.5-3.4,7.5-7.5l0,0
				C612,149.4,608.6,146,604.4,146z"/>
		</g>
	</g>
	<g>
		<path fill="#D32F2F" d="M554.5,146v63.1c0,4.2-3.4,7.6-7.5,7.6l0,0c-4.1,0-7.5-3.4-7.5-7.6V161L554.5,146z"/>
	</g>
	<g>
		<path fill="#D32F2F" d="M632.6,78.8l-7.4,6.7c15.9,18,25.5,41.7,25.5,67.7c0,56.6-45.9,102.4-102.4,102.4
			c-29.7,0-56.4-12.6-75.1-32.8l-7.4,6.7c20.6,22.2,49.9,36.2,82.5,36.2c62,0,112.4-50.4,112.4-112.4
			C660.7,124.7,650.1,98.6,632.6,78.8z"/>
		<path fill="#D32F2F" d="M640.7,153.1c0,51-41.5,92.4-92.4,92.4c-26.7,0-50.8-11.4-67.7-29.6l-7.5,6.7
			c18.7,20.2,45.4,32.8,75.1,32.8c56.6,0,102.4-45.9,102.4-102.4c0-25.9-9.6-49.6-25.5-67.7l-7.5,6.7
			C632,108.5,640.7,129.8,640.7,153.1z"/>
	</g>
</g>
</svg>
