<?xml version="1.0" encoding="utf-8"?>
<!-- Generator: Adobe Illustrator 18.1.1, SVG Export Plug-In . SVG Version: 6.00 Build 0)  -->
<svg version="1.1" id="Layer_1" xmlns="http://www.w3.org/2000/svg" xmlns:xlink="http://www.w3.org/1999/xlink" x="0px" y="0px"
	 viewBox="0 0 685 900" enable-background="new 0 0 685 900" xml:space="preserve">
<path fill="#878787" d="M548,110.1H99.2c0,0-44.9,0-44.9,44.6v517.7c0,71.5,77.7,62,77.7,62l360-0.4c68,0,100.9-4,100.9-65.6V154.6
	C592.9,110.1,548,110.1,548,110.1z M278.7,288.4h-44.9V333h44.9V288.4z M278.7,199.2h-44.9v44.6h44.9V199.2z M278.7,466.8h-44.9
	v44.6h44.9V466.8z M278.7,377.6h-44.9v44.6h44.9V377.6z"/>
<path fill="#E6E6E6" d="M537.3,738.4H106.8c-29.1,0-52.7-23.6-52.7-52.7v-75.3H593v72.3C593,713.4,568.1,738.4,537.3,738.4z"/>
<g>
	<polygon fill="#D32F2F" points="189,649 321.8,649 322,828 255.5,760.5 190.9,822.5 	"/>
	<polygon fill="#E74C3C" points="321.9,694.2 188.1,828.1 188.1,649 321.8,649 	"/>
</g>
<linearGradient id="SVGID_1_" gradientUnits="userSpaceOnUse" x1="469.7523" y1="681.3942" x2="347.1813" y2="469.0951">
	<stop  offset="0" style="stop-color:#FFFFFF;stop-opacity:0"/>
	<stop  offset="9.537581e-02" style="stop-color:#F0F0F0;stop-opacity:6.676307e-02"/>
	<stop  offset="0.2801" style="stop-color:#C7C7C7;stop-opacity:0.196"/>
	<stop  offset="0.5356" style="stop-color:#868686;stop-opacity:0.3749"/>
	<stop  offset="0.8489" style="stop-color:#2D2D2D;stop-opacity:0.5942"/>
	<stop  offset="1" style="stop-color:#000000;stop-opacity:0.7"/>
</linearGradient>
<polygon fill="url(#SVGID_1_)" points="199.6,554.3 251.5,610 592.8,610.3 592.8,553.9 "/>
<path fill="#E6E6E6" d="M593.1,564.1H224.7c-25.4,0-46.1-20.6-46.1-46.1V109.9h414.4V564.1z"/>
<linearGradient id="SVGID_2_" gradientUnits="userSpaceOnUse" x1="602.7425" y1="355.9943" x2="514.3635" y2="202.9174">
	<stop  offset="0" style="stop-color:#FFFFFF;stop-opacity:0"/>
	<stop  offset="9.537581e-02" style="stop-color:#F0F0F0;stop-opacity:6.676307e-02"/>
	<stop  offset="0.2801" style="stop-color:#C7C7C7;stop-opacity:0.196"/>
	<stop  offset="0.5356" style="stop-color:#868686;stop-opacity:0.3749"/>
	<stop  offset="0.8489" style="stop-color:#2D2D2D;stop-opacity:0.5942"/>
	<stop  offset="1" style="stop-color:#000000;stop-opacity:0.7"/>
</linearGradient>
<polygon fill="url(#SVGID_2_)" points="467,230.3 593.9,361.1 593.4,230.4 "/>
<g>
	<path fill="#727272" d="M235.8,472.2c-1.8,2.1-2.8,4.8-2.8,7.8v20.9c0,6.6,5.2,12.2,11.8,12.2h20.9c2.7,0,5.2-1,7.2-2.5
		L235.8,472.2z"/>
	<path fill="#727272" d="M278,500.8V480c0-6.6-5.7-12-12.3-12h-20.9c-3.6,0-6.9,1.6-9.1,4.2l37.3,38.3
		C275.9,508.3,278,504.8,278,500.8z"/>
	<linearGradient id="SVGID_3_" gradientUnits="userSpaceOnUse" x1="335.7346" y1="611.1533" x2="247.2502" y2="457.894">
		<stop  offset="0" style="stop-color:#FFFFFF;stop-opacity:0"/>
		<stop  offset="9.537581e-02" style="stop-color:#F0F0F0;stop-opacity:6.676307e-02"/>
		<stop  offset="0.2801" style="stop-color:#C7C7C7;stop-opacity:0.196"/>
		<stop  offset="0.5356" style="stop-color:#868686;stop-opacity:0.3749"/>
		<stop  offset="0.8489" style="stop-color:#2D2D2D;stop-opacity:0.5942"/>
		<stop  offset="1" style="stop-color:#000000;stop-opacity:0.7"/>
	</linearGradient>
	<path fill="url(#SVGID_3_)" d="M278,500.8V480c0-6.6-5.7-12-12.3-12h-20.9c-3.6,0-6.9,1.6-9.1,4.2l37.3,38.3
		C275.9,508.3,278,504.8,278,500.8z"/>
</g>
<g>
	<path fill="#727272" d="M235.8,383.2c-1.8,2.1-2.8,4.8-2.8,7.8v20.9c0,6.6,5.2,12.2,11.8,12.2h20.9c2.7,0,5.2-1,7.2-2.5
		L235.8,383.2z"/>
	<path fill="#727272" d="M278,411.8V391c0-6.6-5.7-12-12.3-12h-20.9c-3.6,0-6.9,1.6-9.1,4.2l37.3,38.3
		C275.9,419.3,278,415.8,278,411.8z"/>
	<linearGradient id="SVGID_4_" gradientUnits="userSpaceOnUse" x1="335.7346" y1="522.1533" x2="247.2502" y2="368.894">
		<stop  offset="0" style="stop-color:#FFFFFF;stop-opacity:0"/>
		<stop  offset="9.537581e-02" style="stop-color:#F0F0F0;stop-opacity:6.676307e-02"/>
		<stop  offset="0.2801" style="stop-color:#C7C7C7;stop-opacity:0.196"/>
		<stop  offset="0.5356" style="stop-color:#868686;stop-opacity:0.3749"/>
		<stop  offset="0.8489" style="stop-color:#2D2D2D;stop-opacity:0.5942"/>
		<stop  offset="1" style="stop-color:#000000;stop-opacity:0.7"/>
	</linearGradient>
	<path fill="url(#SVGID_4_)" d="M278,411.8V391c0-6.6-5.7-12-12.3-12h-20.9c-3.6,0-6.9,1.6-9.1,4.2l37.3,38.3
		C275.9,419.3,278,415.8,278,411.8z"/>
</g>
<g>
	<path fill="#727272" d="M235.8,294.2c-1.8,2.1-2.8,4.8-2.8,7.8v20.9c0,6.6,5.2,12.2,11.8,12.2h20.9c2.7,0,5.2-1,7.2-2.5
		L235.8,294.2z"/>
	<path fill="#727272" d="M278,322.8V302c0-6.6-5.7-12-12.3-12h-20.9c-3.6,0-6.9,1.6-9.1,4.2l37.3,38.3
		C275.9,330.3,278,326.8,278,322.8z"/>
	<linearGradient id="SVGID_5_" gradientUnits="userSpaceOnUse" x1="335.7346" y1="433.1533" x2="247.2502" y2="279.894">
		<stop  offset="0" style="stop-color:#FFFFFF;stop-opacity:0"/>
		<stop  offset="9.537581e-02" style="stop-color:#F0F0F0;stop-opacity:6.676307e-02"/>
		<stop  offset="0.2801" style="stop-color:#C7C7C7;stop-opacity:0.196"/>
		<stop  offset="0.5356" style="stop-color:#868686;stop-opacity:0.3749"/>
		<stop  offset="0.8489" style="stop-color:#2D2D2D;stop-opacity:0.5942"/>
		<stop  offset="1" style="stop-color:#000000;stop-opacity:0.7"/>
	</linearGradient>
	<path fill="url(#SVGID_5_)" d="M278,322.8V302c0-6.6-5.7-12-12.3-12h-20.9c-3.6,0-6.9,1.6-9.1,4.2l37.3,38.3
		C275.9,330.3,278,326.8,278,322.8z"/>
</g>
<g>
	<path fill="#727272" d="M235.8,203.2c-1.8,2.1-2.8,4.8-2.8,7.8v20.9c0,6.6,5.2,12.2,11.8,12.2h20.9c2.7,0,5.2-1,7.2-2.5
		L235.8,203.2z"/>
	<path fill="#727272" d="M278,231.8V211c0-6.6-5.7-12-12.3-12h-20.9c-3.6,0-6.9,1.6-9.1,4.2l37.3,38.3
		C275.9,239.3,278,235.8,278,231.8z"/>
	<linearGradient id="SVGID_6_" gradientUnits="userSpaceOnUse" x1="335.7346" y1="342.1533" x2="247.2502" y2="188.894">
		<stop  offset="0" style="stop-color:#FFFFFF;stop-opacity:0"/>
		<stop  offset="9.537581e-02" style="stop-color:#F0F0F0;stop-opacity:6.676307e-02"/>
		<stop  offset="0.2801" style="stop-color:#C7C7C7;stop-opacity:0.196"/>
		<stop  offset="0.5356" style="stop-color:#868686;stop-opacity:0.3749"/>
		<stop  offset="0.8489" style="stop-color:#2D2D2D;stop-opacity:0.5942"/>
		<stop  offset="1" style="stop-color:#000000;stop-opacity:0.7"/>
	</linearGradient>
	<path fill="url(#SVGID_6_)" d="M278,231.8V211c0-6.6-5.7-12-12.3-12h-20.9c-3.6,0-6.9,1.6-9.1,4.2l37.3,38.3
		C275.9,239.3,278,235.8,278,231.8z"/>
</g>
<g>
	<circle fill="#FFFFFF" cx="547.8" cy="153.1" r="102.4"/>
	<path fill="#E74C3C" d="M547.8,265.5c-62,0-112.4-50.4-112.4-112.4S485.8,40.7,547.8,40.7s112.4,50.4,112.4,112.4
		S609.8,265.5,547.8,265.5z M547.8,60.7c-51,0-92.4,41.5-92.4,92.4s41.5,92.4,92.4,92.4s92.4-41.5,92.4-92.4S598.8,60.7,547.8,60.7z
		"/>
</g>
<linearGradient id="SVGID_7_" gradientUnits="userSpaceOnUse" x1="617.7812" y1="224.7188" x2="540.3438" y2="147.2812">
	<stop  offset="0" style="stop-color:#FFFFFF;stop-opacity:0"/>
	<stop  offset="9.537581e-02" style="stop-color:#F0F0F0;stop-opacity:6.676307e-02"/>
	<stop  offset="0.2801" style="stop-color:#C7C7C7;stop-opacity:0.196"/>
	<stop  offset="0.5356" style="stop-color:#868686;stop-opacity:0.3749"/>
	<stop  offset="0.8489" style="stop-color:#2D2D2D;stop-opacity:0.5942"/>
	<stop  offset="1" style="stop-color:#000000;stop-opacity:0.7"/>
</linearGradient>
<polygon fill="url(#SVGID_7_)" points="539,212.8 577.5,252.5 649.5,193 609.8,148.6 538.5,149.1 "/>
<g>
	<g>
		<path fill="#E74C3C" d="M603.9,146H553V97c0-4.1-3.4-7.5-7.5-7.5S538,92.9,538,97v49h-46.3c-4.1,0-7.5,3.4-7.5,7.5l0,0
			c0,4.1,3.4,7.5,7.5,7.5H538v48.2c0,4.1,3.4,7.5,7.5,7.5s7.5-3.4,7.5-7.5V161h50.9c4.1,0,7.5-3.4,7.5-7.5l0,0
			C611.5,149.4,608.1,146,603.9,146z"/>
	</g>
	<g>
		<path fill="#D32F2F" d="M553,146v63.1c0,4.2-3.4,7.6-7.5,7.6l0,0c-4.1,0-7.5-3.4-7.5-7.6V161L553,146z"/>
	</g>
</g>
<path fill="#D32F2F" d="M632.1,78.8l-7.4,6.7l-7.5,6.7c14.3,16.3,23,37.6,23,60.9c0,51-41.5,92.4-92.4,92.4
	c-26.7,0-50.8-11.4-67.7-29.6l-7.5,6.7l-7.4,6.7c20.6,22.2,49.9,36.2,82.5,36.2c62,0,112.4-50.4,112.4-112.4
	C660.2,124.7,649.6,98.6,632.1,78.8z"/>
</svg>
