<?xml version="1.0" encoding="utf-8"?>
<!-- Generator: Adobe Illustrator 18.1.1, SVG Export Plug-In . SVG Version: 6.00 Build 0)  -->
<svg version="1.1" id="Layer_1" xmlns="http://www.w3.org/2000/svg" xmlns:xlink="http://www.w3.org/1999/xlink" x="0px" y="0px"
	 viewBox="0 0 229.5 230" enable-background="new 0 0 229.5 230" xml:space="preserve">
<g>
	<g>
		<circle fill="#FFFFFF" cx="113.3" cy="114.5" r="102.4"/>
		<path fill="#39B54A" d="M113.3,2C51.3,2,0.9,52.5,0.9,114.5s50.4,112.4,112.4,112.4s112.4-50.4,112.4-112.4S175.3,2,113.3,2z
			 M113.3,206.9c-51,0-92.4-41.5-92.4-92.4S62.3,22,113.3,22s92.4,41.5,92.4,92.4S164.3,206.9,113.3,206.9z"/>
	</g>
</g>
<linearGradient id="SVGID_1_" gradientUnits="userSpaceOnUse" x1="-8378.9785" y1="-42468.5625" x2="-8470.0117" y2="-42360.0742" gradientTransform="matrix(0.1944 0 0 -0.1944 1748.5103 -8133.3745)">
	<stop  offset="0" style="stop-color:#FFFFFF;stop-opacity:0"/>
	<stop  offset="2.777451e-02" style="stop-color:#F0F0F0;stop-opacity:2.221961e-02"/>
	<stop  offset="0.1399" style="stop-color:#B8B8B8;stop-opacity:0.1119"/>
	<stop  offset="0.2557" style="stop-color:#878787;stop-opacity:0.2046"/>
	<stop  offset="0.3727" style="stop-color:#5E5E5E;stop-opacity:0.2981"/>
	<stop  offset="0.491" style="stop-color:#3C3C3C;stop-opacity:0.3928"/>
	<stop  offset="0.6113" style="stop-color:#212121;stop-opacity:0.489"/>
	<stop  offset="0.7343" style="stop-color:#0F0F0F;stop-opacity:0.5874"/>
	<stop  offset="0.8616" style="stop-color:#040404;stop-opacity:0.6893"/>
	<stop  offset="1" style="stop-color:#000000;stop-opacity:0.8"/>
</linearGradient>
<polygon opacity="0.53" fill="url(#SVGID_1_)" points="53.1,166.9 68.5,165.6 101.8,133.6 114.5,112.8 135.8,105.6 174.8,73.1 
	178.1,69 156,58.7 117.3,88.7 120,104.7 108.7,116 87.3,116.7 52,144.7 "/>
<linearGradient id="SVGID_2_" gradientUnits="userSpaceOnUse" x1="-8024.2783" y1="-42813.6914" x2="-8432.1533" y2="-42405.8164" gradientTransform="matrix(0.1944 0 0 -0.1944 1748.5103 -8133.3745)">
	<stop  offset="0" style="stop-color:#FFFFFF;stop-opacity:0"/>
	<stop  offset="9.121197e-02" style="stop-color:#F1F1F1;stop-opacity:8.209077e-02"/>
	<stop  offset="0.2627" style="stop-color:#CDCDCD;stop-opacity:0.2364"/>
	<stop  offset="0.4961" style="stop-color:#939393;stop-opacity:0.4465"/>
	<stop  offset="0.7791" style="stop-color:#434343;stop-opacity:0.7012"/>
	<stop  offset="1" style="stop-color:#000000;stop-opacity:0.9"/>
</linearGradient>
<polygon opacity="0.71" fill="url(#SVGID_2_)" points="52.9,166.9 102.5,216.6 177.9,200.4 217.5,122.3 175.5,63.8 139.5,106.7 
	118.9,109 106.1,119.1 105,138.2 72.2,162 "/>
<g>
	<path fill="#39B54A" d="M80.3,167.5L80.3,167.5c-9.1,7.9-22.8,6.9-30.7-2.2c-3.8-4.3-5.7-10-5.3-15.8c0.4-5.8,3-11.1,7.4-14.9
		l26.7-23.2c9.1-7.9,22.8-6.9,30.7,2.2c3.8,4.3,5.7,10,5.3,15.8c-0.4,5.8-3,11.1-7.4,14.9L80.3,167.5z M87,121.3l-26.7,23.2
		c-1.7,1.5-2.7,3.6-2.9,5.9c-0.2,2.3,0.6,4.5,2.1,6.3c3.1,3.6,8.5,4,12.2,0.8l26.7-23.2c1.7-1.5,2.7-3.6,2.9-5.9
		c0.2-2.3-0.6-4.5-2.1-6.3C96,118.6,90.6,118.3,87,121.3z"/>
</g>
<g>
	<path fill="#39B54A" d="M144.6,111.6L144.6,111.6c-9.1,7.9-22.8,6.9-30.7-2.2c-3.8-4.3-5.7-10-5.3-15.8c0.4-5.8,3-11.1,7.4-14.9
		l26.7-23.2c9.1-7.9,22.8-6.9,30.7,2.2c3.8,4.3,5.7,10,5.3,15.8c-0.4,5.8-3,11.1-7.4,14.9L144.6,111.6z M151.4,65.4l-26.7,23.2
		c-1.7,1.5-2.7,3.6-2.9,5.9c-0.2,2.3,0.6,4.5,2.1,6.3c3.1,3.6,8.5,4,12.2,0.8l26.7-23.2c1.7-1.5,2.7-3.6,2.9-5.9
		c0.2-2.3-0.6-4.5-2.1-6.3C160.4,62.6,154.9,62.2,151.4,65.4z"/>
</g>
<path fill="#009245" d="M90.2,123.9l35.2-29.6c1.8-1.5,4.5-1.3,6,0.6l0,0c1.5,1.8,1.3,4.5-0.6,6l-35.1,29.6c-1.8,1.5-4.5,1.3-6-0.6
	l0,0C88.2,128,88.3,125.4,90.2,123.9z"/>
<path fill="#009245" d="M197.6,40.1l-7.4,6.7l-7.5,6.7c14.3,16.3,23,37.6,23,60.9c0,51-41.5,92.4-92.4,92.4
	c-26.7,0-50.8-11.4-67.7-29.6l-7.5,6.7l-7.4,6.7c20.6,22.2,49.9,36.2,82.5,36.2c62,0,112.4-50.4,112.4-112.4
	C225.7,86,215.1,60,197.6,40.1z"/>
</svg>
