<?xml version="1.0" encoding="utf-8"?>
<!-- Generator: Adobe Illustrator 18.1.1, SVG Export Plug-In . SVG Version: 6.00 Build 0)  -->
<svg version="1.1" xmlns="http://www.w3.org/2000/svg" xmlns:xlink="http://www.w3.org/1999/xlink" x="0px" y="0px"
	 viewBox="0 0 21.5 21.5" enable-background="new 0 0 21.5 21.5" xml:space="preserve">
<g id="Layer_2">
	<rect x="-347.2" y="-100.3" fill="#F2F2F2" width="621.3" height="595.1"/>
</g>
<g id="Layer_1">
	<rect x="-231.5" y="4.2" fill="none" width="237.8" height="22"/>
	<text transform="matrix(1 0 0 1 -231.501 16.3783)" fill="#2C3E50" font-family="'OpenSans'" font-size="16">reponame/reporeporepo1232</text>
	<g>
		<g>
			<path fill="#2C3E50" d="M10.8,0C4.8,0,0,4.8,0,10.8s4.8,10.8,10.8,10.8s10.8-4.8,10.8-10.8S16.7,0,10.8,0z M10.8,19.6
				c-4.9,0-8.9-4-8.9-8.9c0-4.9,4-8.9,8.9-8.9c4.9,0,8.9,4,8.9,8.9C19.6,15.6,15.7,19.6,10.8,19.6z"/>
		</g>
		<g>
			<path fill="#2C3E50" d="M7.6,15.8L7.6,15.8c-0.9,0.8-2.2,0.7-2.9-0.2c-0.4-0.4-0.5-1-0.5-1.5s0.3-1.1,0.7-1.4l2.6-2.2
				c0.9-0.8,2.2-0.7,2.9,0.2c0.4,0.4,0.5,1,0.5,1.5c0,0.6-0.3,1.1-0.7,1.4L7.6,15.8z M8.2,11.4l-2.6,2.2c-0.2,0.1-0.3,0.3-0.3,0.6
				c0,0.2,0.1,0.4,0.2,0.6c0.3,0.3,0.8,0.4,1.2,0.1l2.6-2.2c0.2-0.1,0.3-0.3,0.3-0.6c0-0.2-0.1-0.4-0.2-0.6
				C9.1,11.2,8.6,11.1,8.2,11.4z"/>
		</g>
		<g>
			<path fill="#2C3E50" d="M13.8,10.5L13.8,10.5c-0.9,0.8-2.2,0.7-2.9-0.2c-0.4-0.4-0.5-1-0.5-1.5s0.3-1.1,0.7-1.4l2.6-2.2
				c0.9-0.8,2.2-0.7,2.9,0.2c0.4,0.4,0.5,1,0.5,1.5c0,0.6-0.3,1.1-0.7,1.4L13.8,10.5z M14.4,6.1l-2.6,2.2c-0.2,0.1-0.3,0.3-0.3,0.6
				c0,0.2,0.1,0.4,0.2,0.6c0.3,0.3,0.8,0.4,1.2,0.1l2.6-2.2c0.2-0.1,0.3-0.3,0.3-0.6c0-0.2-0.1-0.4-0.2-0.6
				C15.3,5.8,14.8,5.8,14.4,6.1z"/>
		</g>
		<path fill="#2C3E50" d="M8.6,11.7l3.4-2.8c0.2-0.1,0.4-0.1,0.6,0.1l0,0c0.1,0.2,0.1,0.4-0.1,0.6l-3.4,2.8
			c-0.2,0.1-0.4,0.1-0.6-0.1l0,0C8.4,12.1,8.4,11.8,8.6,11.7z"/>
	</g>
</g>
</svg>
