<?xml version="1.0" encoding="utf-8"?>
<!-- Generator: Adobe Illustrator 18.1.1, SVG Export Plug-In . SVG Version: 6.00 Build 0)  -->
<svg version="1.1" id="Layer_1" xmlns="http://www.w3.org/2000/svg" xmlns:xlink="http://www.w3.org/1999/xlink" x="0px" y="0px"
	 viewBox="0 0 228.5 228" enable-background="new 0 0 228.5 228" xml:space="preserve">
<g>
	<g>
		<path fill="#C1C1C1" d="M114.8,2C52.8,2,2.4,52.5,2.4,114.5s50.4,112.4,112.4,112.4s112.4-50.4,112.4-112.4S176.8,2,114.8,2z
			 M114.8,206.9c-51,0-92.4-41.5-92.4-92.4S63.8,22,114.8,22s92.4,41.5,92.4,92.4S165.8,206.9,114.8,206.9z"/>
	</g>
</g>
<linearGradient id="SVGID_1_" gradientUnits="userSpaceOnUse" x1="-8302.8877" y1="-42321.1094" x2="-8393.9209" y2="-42212.6211" gradientTransform="matrix(0.1944 0 0 -0.1944 1735.2179 -8104.709)">
	<stop  offset="0" style="stop-color:#FFFFFF;stop-opacity:0"/>
	<stop  offset="2.777451e-02" style="stop-color:#F0F0F0;stop-opacity:2.221961e-02"/>
	<stop  offset="0.1399" style="stop-color:#B8B8B8;stop-opacity:0.1119"/>
	<stop  offset="0.2557" style="stop-color:#878787;stop-opacity:0.2046"/>
	<stop  offset="0.3727" style="stop-color:#5E5E5E;stop-opacity:0.2981"/>
	<stop  offset="0.491" style="stop-color:#3C3C3C;stop-opacity:0.3928"/>
	<stop  offset="0.6113" style="stop-color:#212121;stop-opacity:0.489"/>
	<stop  offset="0.7343" style="stop-color:#0F0F0F;stop-opacity:0.5874"/>
	<stop  offset="0.8616" style="stop-color:#040404;stop-opacity:0.6893"/>
	<stop  offset="1" style="stop-color:#000000;stop-opacity:0.8"/>
</linearGradient>
<polygon opacity="0.53" fill="url(#SVGID_1_)" points="54.6,166.9 70,165.6 103.2,133.6 116,112.8 137.2,105.6 176.2,73.1 179.6,69 
	157.5,58.7 118.8,88.7 121.5,104.7 110.2,116 88.8,116.7 53.5,144.7 "/>
<linearGradient id="SVGID_2_" gradientUnits="userSpaceOnUse" x1="-7948.1875" y1="-42666.2383" x2="-8356.0635" y2="-42258.3633" gradientTransform="matrix(0.1944 0 0 -0.1944 1735.2179 -8104.709)">
	<stop  offset="0" style="stop-color:#FFFFFF;stop-opacity:0"/>
	<stop  offset="9.121197e-02" style="stop-color:#F1F1F1;stop-opacity:8.209077e-02"/>
	<stop  offset="0.2627" style="stop-color:#CDCDCD;stop-opacity:0.2364"/>
	<stop  offset="0.4961" style="stop-color:#939393;stop-opacity:0.4465"/>
	<stop  offset="0.7791" style="stop-color:#434343;stop-opacity:0.7012"/>
	<stop  offset="1" style="stop-color:#000000;stop-opacity:0.9"/>
</linearGradient>
<polygon opacity="0.71" fill="url(#SVGID_2_)" points="54.4,166.9 104,216.6 179.4,200.4 219,122.3 177,63.8 141,106.7 120.4,109 
	107.6,119.1 106.5,138.2 73.7,162 "/>
<g>
	<path fill="#C1C1C1" d="M81.8,167.5L81.8,167.5c-9.1,7.9-22.8,6.9-30.7-2.2c-3.8-4.3-5.7-10-5.3-15.8c0.4-5.8,3-11.1,7.4-14.9
		l26.7-23.2c9.1-7.9,22.8-6.9,30.7,2.2c3.8,4.3,5.7,10,5.3,15.8c-0.4,5.8-3,11.1-7.4,14.9L81.8,167.5z M88.5,121.3l-26.7,23.2
		c-1.7,1.5-2.7,3.6-2.9,5.9c-0.2,2.3,0.6,4.5,2.1,6.3c3.1,3.6,8.5,4,12.2,0.8l26.7-23.2c1.7-1.5,2.7-3.6,2.9-5.9
		c0.2-2.3-0.6-4.5-2.1-6.3C97.5,118.6,92.1,118.3,88.5,121.3z"/>
</g>
<g>
	<path fill="#C1C1C1" d="M146.1,111.6L146.1,111.6c-9.1,7.9-22.8,6.9-30.7-2.2c-3.8-4.3-5.7-10-5.3-15.8c0.4-5.8,3-11.1,7.4-14.9
		l26.7-23.2c9.1-7.9,22.8-6.9,30.7,2.2c3.8,4.3,5.7,10,5.3,15.8c-0.4,5.8-3,11.1-7.4,14.9L146.1,111.6z M152.9,65.4l-26.7,23.2
		c-1.7,1.5-2.7,3.6-2.9,5.9c-0.2,2.3,0.6,4.5,2.1,6.3c3.1,3.6,8.5,4,12.2,0.8l26.7-23.2c1.7-1.5,2.7-3.6,2.9-5.9
		c0.2-2.3-0.6-4.5-2.1-6.3C161.9,62.6,156.4,62.2,152.9,65.4z"/>
</g>
<path fill="#727272" d="M91.7,123.9l35.2-29.6c1.8-1.5,4.5-1.3,6,0.6l0,0c1.5,1.8,1.3,4.5-0.6,6l-35.1,29.6c-1.8,1.5-4.5,1.3-6-0.6
	l0,0C89.7,128,89.8,125.4,91.7,123.9z"/>
<path fill="#727272" d="M199.1,40.1l-7.4,6.7l-7.5,6.7c14.3,16.3,23,37.6,23,60.9c0,51-41.5,92.4-92.4,92.4
	c-26.7,0-50.8-11.4-67.7-29.6l-7.5,6.7l-7.4,6.7c20.6,22.2,49.9,36.2,82.5,36.2c62,0,112.4-50.4,112.4-112.4
	C227.2,86,216.6,60,199.1,40.1z"/>
</svg>
