<?xml version="1.0" encoding="utf-8"?>
<!-- Generator: Adobe Illustrator 18.1.1, SVG Export Plug-In . SVG Version: 6.00 Build 0)  -->
<svg version="1.1" id="Layer_1" xmlns="http://www.w3.org/2000/svg" xmlns:xlink="http://www.w3.org/1999/xlink" x="0px" y="0px"
	 viewBox="0 0 229.5 230" enable-background="new 0 0 229.5 230" xml:space="preserve">
<g>
	<g>
		<path fill="#FFFFFF" d="M114.3,2C52.3,2,1.9,52.5,1.9,114.5s50.4,112.4,112.4,112.4s112.4-50.4,112.4-112.4S176.3,2,114.3,2z
			 M114.3,206.9c-51,0-92.4-41.5-92.4-92.4S63.3,22,114.3,22s92.4,41.5,92.4,92.4S165.3,206.9,114.3,206.9z"/>
	</g>
</g>
<g>
	<path fill="#FFFFFF" d="M81.3,167.5L81.3,167.5c-9.1,7.9-22.8,6.9-30.7-2.2c-3.8-4.3-5.7-10-5.3-15.8c0.4-5.8,3-11.1,7.4-14.9
		l26.7-23.2c9.1-7.9,22.8-6.9,30.7,2.2c3.8,4.3,5.7,10,5.3,15.8c-0.4,5.8-3,11.1-7.4,14.9L81.3,167.5z M88,121.3l-26.7,23.2
		c-1.7,1.5-2.7,3.6-2.9,5.9c-0.2,2.3,0.6,4.5,2.1,6.3c3.1,3.6,8.5,4,12.2,0.8l26.7-23.2c1.7-1.5,2.7-3.6,2.9-5.9
		c0.2-2.3-0.6-4.5-2.1-6.3C97,118.6,91.6,118.3,88,121.3z"/>
</g>
<g>
	<path fill="#FFFFFF" d="M145.6,111.6L145.6,111.6c-9.1,7.9-22.8,6.9-30.7-2.2c-3.8-4.3-5.7-10-5.3-15.8c0.4-5.8,3-11.1,7.4-14.9
		l26.7-23.2c9.1-7.9,22.8-6.9,30.7,2.2c3.8,4.3,5.7,10,5.3,15.8c-0.4,5.8-3,11.1-7.4,14.9L145.6,111.6z M152.4,65.4l-26.7,23.2
		c-1.7,1.5-2.7,3.6-2.9,5.9c-0.2,2.3,0.6,4.5,2.1,6.3c3.1,3.6,8.5,4,12.2,0.8l26.7-23.2c1.7-1.5,2.7-3.6,2.9-5.9
		c0.2-2.3-0.6-4.5-2.1-6.3C161.4,62.6,155.9,62.2,152.4,65.4z"/>
</g>
<path fill="#FFFFFF" d="M91.2,123.9l35.2-29.6c1.8-1.5,4.5-1.3,6,0.6l0,0c1.5,1.8,1.3,4.5-0.6,6l-35.1,29.6c-1.8,1.5-4.5,1.3-6-0.6
	l0,0C89.2,128,89.3,125.4,91.2,123.9z"/>
</svg>
