<?xml version="1.0" encoding="utf-8"?>
<!-- Generator: Adobe Illustrator 18.1.1, SVG Export Plug-In . SVG Version: 6.00 Build 0)  -->
<svg version="1.1" id="Layer_1" xmlns="http://www.w3.org/2000/svg" xmlns:xlink="http://www.w3.org/1999/xlink" x="0px" y="0px"
	 viewBox="0 0 960 560" enable-background="new 0 0 960 560" xml:space="preserve">
<rect x="81.5" y="-2.3" fill="none" width="818.9" height="388.2"/>
<g enable-background="new    ">
	<path fill="#2C3E50" d="M291.2,208h15.9c1,4.1,2,9.1,2.9,14.9c0.9,5.8,1.7,12,2.3,18.6c0.6,6.6,1.1,13.1,1.4,19.6
		c0.3,6.5,0.4,12.3,0.4,17.5c-9.1,5.7-20.4,9.7-34,12c-13.6,2.3-27.5,3.5-41.7,3.5c-21.5,0-40.9-2.7-58.4-8
		c-17.5-5.3-32.3-13.7-44.6-25.2c-12.3-11.5-21.8-26.1-28.5-43.9c-6.7-17.7-10.1-39-10.1-63.8c0-24.6,3.7-45.7,11.1-63.5
		c7.4-17.7,17.3-32.3,29.7-43.7c12.4-11.4,26.8-19.7,43.3-25c16.4-5.3,33.7-8,51.8-8c17.1,0,32.5,1.2,46.4,3.7
		c13.8,2.5,25.2,5.8,34,9.9c0,4.1-0.2,9.4-0.6,15.9c-0.4,6.5-1,13.3-1.9,20.4c-0.9,7.1-1.9,14.1-3.1,21c-1.2,6.9-2.3,12.6-3.3,17.3
		h-16.3l-21.3-58.6c-2.3-1.3-6.1-2.3-11.3-3.1c-5.2-0.8-10.5-1.2-15.9-1.2c-10.6,0-20.6,2.1-29.9,6.4c-9.3,4.3-17.6,11.1-24.8,20.4
		c-7.2,9.3-12.9,21.3-17.1,35.9c-4.1,14.6-6.2,32.2-6.2,52.6c0,37,7.4,65.5,22.1,85.4C198,259,218.1,269,243.4,269
		c7.2,0,13.4-0.6,18.4-1.7c5-1.2,8.5-2.8,10.3-4.9L291.2,208z"/>
</g>
<g enable-background="new    ">
	<path fill="#2C3E50" d="M342.4,17.9h127.3v14.7c-5.4,2.8-11.4,5.2-18,7.2c-6.6,1.9-13,3.3-19.2,4.1v220.4h74.9l26-69.5h15.9
		c1,6,2,12.9,2.9,21c0.9,8,1.6,16.4,2.1,25.2c0.5,8.8,0.9,17.5,1.2,26c0.3,8.5,0.3,16,0,22.5H342.4v-14.7c5.9-3.1,11.6-5.6,16.9-7.4
		c5.3-1.8,10.3-3.1,14.9-3.9V43.9c-12.7-2.1-23.3-5.8-31.8-11.3V17.9z"/>
</g>
<g enable-background="new    ">
	<path fill="#2C3E50" d="M672.3,289.5h-95.9v-14.7c4.1-2.6,8.6-4.9,13.4-6.8c4.8-1.9,9.5-3.4,14.2-4.5L704.1,13.2h28.7l97.4,250.3
		c5.2,1,10.3,2.5,15.5,4.5c5.2,1.9,9.7,4.2,13.6,6.8v14.7H737.9v-14.7c4.9-2.3,10.2-4.5,15.9-6.6c5.7-2.1,11.1-3.6,16.3-4.7
		l-22.5-61.7h-86.2l-22.9,61.7c11.9,1.6,23.2,5.3,33.8,11.3V289.5z M670.7,176.6h68.7l-25.2-74.1l-7.4-33.4H706l-8.5,34.2
		L670.7,176.6z"/>
</g>
<g enable-background="new    ">
	<path fill="#2C3E50" d="M186.4,517.4c0,2.8,0.1,5.3,0.2,7.4c0.1,2.1,0.3,4.3,0.4,6.6l13.4,1.9v4.1c-3.2,1.7-6.8,3.2-10.7,4.5
		c-3.9,1.3-7.7,2.3-11.3,2.9h-4.8c-1.3-3-2.1-6.2-2.3-9.8c-0.3-3.5-0.5-7.5-0.6-11.7h-1c-0.5,2.6-1.5,5.2-3,7.8
		c-1.5,2.6-3.4,5-5.8,7.1c-2.4,2.1-5.2,3.7-8.4,5c-3.2,1.3-6.9,1.9-11,1.9c-7.9,0-14.3-2.4-19.3-7.2c-5-4.8-7.5-11-7.5-18.8
		c0-5.9,1.2-10.8,3.6-14.6c2.4-3.8,5.9-6.8,10.6-9c4.6-2.2,10.4-3.8,17.2-4.7c6.8-1,14.8-1.7,23.8-2.2c0.5-5.5,0.7-10.6,0.5-15
		c-0.2-4.5-0.9-8.3-2.1-11.4c-1.2-3.2-3-5.6-5.4-7.4c-2.4-1.7-5.5-2.6-9.4-2.6c-1.8,0-3.8,0.1-6.1,0.3c-2.3,0.2-4.5,0.7-6.7,1.6
		l-9.1,23.2h-5c-1.3-3.9-2.4-7.9-3.4-12c-1-4.1-1.6-8.2-1.8-12.2c4.9-3,10.4-5.3,16.4-7c6-1.7,12.7-2.5,20-2.5
		c6.6,0,11.8,0.9,15.8,2.8c3.9,1.9,6.9,4.3,9,7.3c2.1,3,3.4,6.3,4.1,9.9c0.6,3.6,1,7.2,1,10.8c0,7.7-0.2,15.2-0.5,22.4
		C186.5,503.9,186.4,510.8,186.4,517.4z M149,533.1c3.2,0,6.1-0.6,8.5-1.9c2.5-1.3,4.5-2.8,6.2-4.6c1.7-1.8,3-3.6,4.1-5.5
		c1-1.9,1.7-3.5,2.1-4.7v-20.3c-7.5,0-13.6,0.4-18.4,1.2c-4.8,0.8-8.5,2-11.2,3.7c-2.7,1.7-4.6,3.8-5.6,6.3c-1,2.5-1.5,5.4-1.5,8.6
		c0,5.6,1.4,9.8,4.3,12.9C140.2,531.6,144.1,533.1,149,533.1z"/>
	<path fill="#2C3E50" d="M261.9,520.7c0-3.6-1.1-6.7-3.4-9.2c-2.3-2.5-5.1-4.9-8.6-7.1c-3.5-2.2-7.2-4.3-11.1-6.4
		c-3.9-2.1-7.6-4.5-11.1-7.3c-3.5-2.8-6.4-6-8.6-9.6c-2.3-3.6-3.4-8.1-3.4-13.4c0-3.5,0.8-6.7,2.4-9.7c1.6-3,3.8-5.5,6.5-7.6
		c2.7-2.1,5.9-3.8,9.5-5c3.6-1.2,7.5-1.8,11.6-1.8c7,0,12.7,0.4,17.1,1.2c4.5,0.8,8.7,1.9,12.9,3.3c-0.5,4.1-1.1,8.3-1.8,12.5
		c-0.7,4.2-1.7,8.5-3,12.9H266l-7.4-19.8c-1.5-0.6-3.3-1.1-5.2-1.3s-3.9-0.3-6-0.3c-2.3,0-4.4,0.4-6.1,1.3c-1.7,0.8-3.2,1.9-4.5,3.2
		c-1.2,1.3-2.2,2.8-2.8,4.5c-0.6,1.7-1,3.4-1,5c0,3.5,1.1,6.5,3.4,9c2.3,2.5,5.1,4.8,8.6,7c3.5,2.1,7.2,4.2,11.1,6.3
		c3.9,2.1,7.6,4.4,11.1,7c3.5,2.6,6.4,5.6,8.6,9c2.3,3.4,3.4,7.5,3.4,12.3c0,4.4-0.9,8.3-2.8,11.8c-1.9,3.5-4.5,6.5-7.7,8.9
		c-3.3,2.5-7.1,4.4-11.4,5.7c-4.3,1.4-8.9,2-13.8,2c-5.6,0-10.7-0.5-15.3-1.5c-4.6-1-9.5-2.4-14.5-4.2c0.3-4.6,0.8-9.1,1.7-13.5
		c0.9-4.3,2.1-8.5,3.5-12.5h4.8l8.5,21.1c1.4,1,3.1,1.6,5.1,1.7c2,0.1,3.8,0.2,5.5,0.2c5.7,0,10.3-1.5,13.8-4.6
		S261.9,525.1,261.9,520.7z"/>
	<path fill="#2C3E50" d="M345.7,520.7c0-3.6-1.1-6.7-3.4-9.2c-2.3-2.5-5.1-4.9-8.6-7.1c-3.5-2.2-7.2-4.3-11.1-6.4
		c-3.9-2.1-7.6-4.5-11.1-7.3c-3.5-2.8-6.4-6-8.6-9.6c-2.3-3.6-3.4-8.1-3.4-13.4c0-3.5,0.8-6.7,2.4-9.7c1.6-3,3.8-5.5,6.5-7.6
		c2.7-2.1,5.9-3.8,9.5-5c3.6-1.2,7.5-1.8,11.6-1.8c7,0,12.7,0.4,17.1,1.2c4.5,0.8,8.7,1.9,12.9,3.3c-0.5,4.1-1.1,8.3-1.8,12.5
		c-0.7,4.2-1.7,8.5-3,12.9h-4.8l-7.4-19.8c-1.5-0.6-3.3-1.1-5.2-1.3s-3.9-0.3-6-0.3c-2.3,0-4.4,0.4-6.1,1.3
		c-1.7,0.8-3.2,1.9-4.5,3.2c-1.2,1.3-2.2,2.8-2.8,4.5c-0.6,1.7-1,3.4-1,5c0,3.5,1.1,6.5,3.4,9c2.3,2.5,5.1,4.8,8.6,7
		c3.5,2.1,7.2,4.2,11.1,6.3c3.9,2.1,7.6,4.4,11.1,7c3.5,2.6,6.4,5.6,8.6,9c2.3,3.4,3.4,7.5,3.4,12.3c0,4.4-0.9,8.3-2.8,11.8
		c-1.9,3.5-4.5,6.5-7.7,8.9c-3.3,2.5-7.1,4.4-11.4,5.7c-4.3,1.4-8.9,2-13.8,2c-5.6,0-10.7-0.5-15.3-1.5c-4.6-1-9.5-2.4-14.5-4.2
		c0.3-4.6,0.8-9.1,1.7-13.5c0.9-4.3,2.1-8.5,3.5-12.5h4.8l8.5,21.1c1.4,1,3.1,1.6,5.1,1.7c2,0.1,3.8,0.2,5.5,0.2
		c5.7,0,10.3-1.5,13.8-4.6S345.7,525.1,345.7,520.7z"/>
	<path fill="#2C3E50" d="M423.4,542.8h-43v-4.8c1.9-1,3.9-1.9,6-2.6c2.1-0.7,4.3-1.4,6.8-2v-76.1l-12.8-1.5v-5
		c3.7-1.5,7.8-2.9,12.2-4.1c4.4-1.2,8.8-2.1,13.2-2.9h4.8v89.7c2.6,0.6,4.9,1.3,7,2c2.1,0.7,4,1.6,5.8,2.6V542.8z M389.5,413
		c0-3.5,1.1-6.3,3.4-8.3c2.3-2.1,5.3-3.1,9-3.1c3.7,0,6.7,1,8.9,3.1c2.2,2.1,3.3,4.8,3.3,8.3s-1.1,6.2-3.3,8.2c-2.2,2-5.2,3-8.9,3
		c-3.7,0-6.7-1-9-3C390.6,419.2,389.5,416.5,389.5,413z"/>
	<path fill="#2C3E50" d="M487.9,520.7c0-3.6-1.1-6.7-3.4-9.2c-2.3-2.5-5.1-4.9-8.6-7.1c-3.5-2.2-7.2-4.3-11.1-6.4
		c-3.9-2.1-7.6-4.5-11.1-7.3c-3.5-2.8-6.4-6-8.6-9.6c-2.3-3.6-3.4-8.1-3.4-13.4c0-3.5,0.8-6.7,2.4-9.7c1.6-3,3.8-5.5,6.5-7.6
		c2.7-2.1,5.9-3.8,9.5-5c3.6-1.2,7.5-1.8,11.6-1.8c7,0,12.7,0.4,17.1,1.2c4.5,0.8,8.7,1.9,12.9,3.3c-0.5,4.1-1.1,8.3-1.8,12.5
		c-0.7,4.2-1.7,8.5-3,12.9H492l-7.4-19.8c-1.5-0.6-3.3-1.1-5.2-1.3c-1.9-0.2-3.9-0.3-6-0.3c-2.3,0-4.4,0.4-6.1,1.3
		c-1.7,0.8-3.2,1.9-4.5,3.2c-1.2,1.3-2.2,2.8-2.8,4.5c-0.6,1.7-1,3.4-1,5c0,3.5,1.1,6.5,3.4,9c2.3,2.5,5.1,4.8,8.6,7
		c3.5,2.1,7.2,4.2,11.1,6.3c3.9,2.1,7.6,4.4,11.1,7c3.5,2.6,6.4,5.6,8.6,9c2.3,3.4,3.4,7.5,3.4,12.3c0,4.4-0.9,8.3-2.8,11.8
		c-1.9,3.5-4.5,6.5-7.7,8.9c-3.3,2.5-7.1,4.4-11.4,5.7c-4.3,1.4-8.9,2-13.8,2c-5.6,0-10.7-0.5-15.3-1.5c-4.6-1-9.5-2.4-14.5-4.2
		c0.3-4.6,0.8-9.1,1.7-13.5c0.9-4.3,2.1-8.5,3.5-12.5h4.8l8.5,21.1c1.4,1,3.1,1.6,5.1,1.7c2,0.1,3.8,0.2,5.5,0.2
		c5.7,0,10.3-1.5,13.7-4.6C486.1,528.8,487.9,525.1,487.9,520.7z"/>
	<path fill="#2C3E50" d="M517.5,450.8c4.9-3.2,10.1-5.5,15.5-6.8v-16.5c1.7-1.3,3.6-2.5,5.9-3.8c2.3-1.2,4.5-2.3,6.7-3.2h4.8v25.4
		h29.1V456h-29.1v55.9c0,7.7,1.2,13.2,3.7,16.4c2.5,3.2,6.1,4.8,11,4.8c2.3,0,5.2-0.2,8.7-0.5c3.5-0.3,6.5-0.9,8.9-1.8l1.4,2.9
		c-1,1.2-2.5,2.4-4.4,3.7c-1.9,1.3-4,2.5-6.4,3.7c-2.4,1.2-5,2.1-7.8,2.9c-2.8,0.8-5.7,1.2-8.7,1.2c-7.7,0-13.7-2.2-17.7-6.6
		c-4.1-4.4-6.1-11.4-6.1-21.2V456h-15.5V450.8z"/>
	<path fill="#2C3E50" d="M665.9,517.4c0,2.8,0.1,5.3,0.2,7.4c0.1,2.1,0.3,4.3,0.4,6.6l13.4,1.9v4.1c-3.2,1.7-6.8,3.2-10.7,4.5
		c-3.9,1.3-7.7,2.3-11.3,2.9h-4.8c-1.3-3-2.1-6.2-2.3-9.8c-0.3-3.5-0.5-7.5-0.6-11.7h-1c-0.5,2.6-1.5,5.2-3,7.8
		c-1.5,2.6-3.4,5-5.8,7.1c-2.4,2.1-5.2,3.7-8.4,5c-3.2,1.3-6.9,1.9-11,1.9c-7.9,0-14.3-2.4-19.3-7.2c-5-4.8-7.5-11-7.5-18.8
		c0-5.9,1.2-10.8,3.6-14.6c2.4-3.8,5.9-6.8,10.6-9c4.6-2.2,10.4-3.8,17.2-4.7c6.8-1,14.8-1.7,23.8-2.2c0.5-5.5,0.7-10.6,0.5-15
		c-0.2-4.5-0.9-8.3-2.1-11.4c-1.2-3.2-3-5.6-5.4-7.4c-2.4-1.7-5.5-2.6-9.4-2.6c-1.8,0-3.8,0.1-6.1,0.3c-2.3,0.2-4.5,0.7-6.7,1.6
		l-9.1,23.2h-5c-1.3-3.9-2.4-7.9-3.4-12c-1-4.1-1.6-8.2-1.8-12.2c4.9-3,10.4-5.3,16.4-7c6-1.7,12.7-2.5,20-2.5
		c6.6,0,11.8,0.9,15.8,2.8c3.9,1.9,6.9,4.3,9,7.3c2.1,3,3.4,6.3,4.1,9.9c0.6,3.6,1,7.2,1,10.8c0,7.7-0.2,15.2-0.5,22.4
		C666,503.9,665.9,510.8,665.9,517.4z M628.5,533.1c3.2,0,6.1-0.6,8.5-1.9c2.5-1.3,4.5-2.8,6.2-4.6c1.7-1.8,3-3.6,4.1-5.5
		c1-1.9,1.7-3.5,2.1-4.7v-20.3c-7.5,0-13.6,0.4-18.4,1.2c-4.8,0.8-8.5,2-11.2,3.7c-2.7,1.7-4.6,3.8-5.6,6.3c-1,2.5-1.5,5.4-1.5,8.6
		c0,5.6,1.4,9.8,4.3,12.9C619.7,531.6,623.6,533.1,628.5,533.1z"/>
	<path fill="#2C3E50" d="M796,542.8h-41.6v-4.8c3.5-1.8,7.3-3.4,11.4-4.6v-45.9c0-9.8-1.4-17.6-4.3-23.2c-2.8-5.7-8-8.5-15.5-8.5
		c-3.2,0-6.2,0.6-9,1.7c-2.8,1.2-5.2,2.7-7.4,4.7c-2.1,2-4,4.3-5.5,6.8c-1.5,2.5-2.8,5.1-3.7,7.8v56.6c4,0.8,7.9,2.3,11.6,4.6v4.8
		h-41.8v-4.8c3.2-1.7,7.5-3.2,12.8-4.6v-76.1l-12.8-1.5v-5c3.4-1.4,7.2-2.7,11.6-3.9c4.4-1.2,9-2.2,13.8-3.1h4.8v21.7h0.2
		c2.7-5.9,6.6-11,11.7-15.3c5.1-4.3,11.3-6.4,18.5-6.4c5.2,0,9.8,0.6,13.8,1.8c4.1,1.2,7.5,3.4,10.2,6.5c2.7,3.1,4.8,7.3,6.2,12.5
		c1.4,5.2,2.1,11.8,2.1,19.9v49c5.2,0.9,9.4,2.5,12.8,4.6V542.8z"/>
	<path fill="#2C3E50" d="M802.2,450.8c4.9-3.2,10.1-5.5,15.5-6.8v-16.5c1.7-1.3,3.6-2.5,5.9-3.8c2.3-1.2,4.5-2.3,6.7-3.2h4.8v25.4
		h29.1V456h-29.1v55.9c0,7.7,1.2,13.2,3.7,16.4c2.5,3.2,6.1,4.8,11,4.8c2.3,0,5.2-0.2,8.7-0.5c3.5-0.3,6.5-0.9,8.9-1.8l1.4,2.9
		c-1,1.2-2.5,2.4-4.4,3.7c-1.9,1.3-4,2.5-6.4,3.7c-2.4,1.2-5,2.1-7.8,2.9c-2.8,0.8-5.7,1.2-8.7,1.2c-7.7,0-13.7-2.2-17.7-6.6
		c-4.1-4.4-6.1-11.4-6.1-21.2V456h-15.5V450.8z"/>
</g>
<rect x="108.3" y="356.9" fill="#2C3E50" width="761.6" height="8"/>
</svg>
