<?xml version="1.0" encoding="utf-8"?>
<!-- Generator: Adobe Illustrator 18.1.1, SVG Export Plug-In . SVG Version: 6.00 Build 0)  -->
<svg version="1.1" xmlns="http://www.w3.org/2000/svg" xmlns:xlink="http://www.w3.org/1999/xlink" x="0px" y="0px"
	 viewBox="0 0 1229.8 708" enable-background="new 0 0 1229.8 708" xml:space="preserve">
<g id="Layer_2" display="none">
</g>
<g id="Layer_1">
	<g>
		<path fill="#878787" d="M1194.9,78.2h-345c0,0-34.5,0-34.5,34.3v398c0,55,59.7,47.6,59.7,47.6l276.7-0.3
			c52.3,0,77.5-3.1,77.5-50.4V112.5C1229.4,78.2,1194.9,78.2,1194.9,78.2z M987.9,215.3h-34.5v34.3h34.5V215.3z M987.9,146.8h-34.5
			v34.3h34.5V146.8z M987.9,352.4h-34.5v34.3h34.5V352.4z M987.9,283.9h-34.5v34.3h34.5V283.9z"/>
		<path fill="#E6E6E6" d="M1181.1,558.5H863.5c-34.3,0-48.2-18.6-48.2-50.7v-45.1h414.3v49.1
			C1229.5,542.9,1211.9,558.5,1181.1,558.5z"/>
		<linearGradient id="SVGID_1_" gradientUnits="userSpaceOnUse" x1="1137.327" y1="515.9208" x2="1045.6705" y2="357.1672">
			<stop  offset="0" style="stop-color:#FFFFFF;stop-opacity:0"/>
			<stop  offset="9.537581e-02" style="stop-color:#F0F0F0;stop-opacity:6.676307e-02"/>
			<stop  offset="0.2801" style="stop-color:#C7C7C7;stop-opacity:0.196"/>
			<stop  offset="0.5356" style="stop-color:#868686;stop-opacity:0.3749"/>
			<stop  offset="0.8489" style="stop-color:#2D2D2D;stop-opacity:0.5942"/>
			<stop  offset="1" style="stop-color:#000000;stop-opacity:0.7"/>
		</linearGradient>
		<polygon fill="url(#SVGID_1_)" points="935.3,420.9 974.1,462.5 1229.4,462.8 1229.4,420.5 		"/>
		<path fill="#E6E6E6" d="M1229.8,427.2H946.9c-19.9,0-35.9-16.1-35.9-35.9V77.8h285.3c18.5,0,33.5,15,33.5,33.5V427.2z"/>
		<g>
			<path fill="#727272" d="M954.4,356.6c-1.4,1.6-2.4,3.7-2.4,6v16c0,5.1,4.5,9.4,9.6,9.4h16c2.1,0,3.9-0.8,5.4-1.9L954.4,356.6z"/>
			<path fill="#727272" d="M987,378.6v-16c0-5.1-4.3-9.6-9.3-9.6h-16c-2.8,0-5.3,1.4-7,3.4l28.6,29.5
				C985.5,384.2,987,381.6,987,378.6z"/>
			<linearGradient id="SVGID_2_" gradientUnits="userSpaceOnUse" x1="1031.5941" y1="463.5274" x2="963.3834" y2="345.3829">
				<stop  offset="0" style="stop-color:#FFFFFF;stop-opacity:0"/>
				<stop  offset="9.537581e-02" style="stop-color:#F0F0F0;stop-opacity:6.676307e-02"/>
				<stop  offset="0.2801" style="stop-color:#C7C7C7;stop-opacity:0.196"/>
				<stop  offset="0.5356" style="stop-color:#868686;stop-opacity:0.3749"/>
				<stop  offset="0.8489" style="stop-color:#2D2D2D;stop-opacity:0.5942"/>
				<stop  offset="1" style="stop-color:#000000;stop-opacity:0.7"/>
			</linearGradient>
			<path fill="url(#SVGID_2_)" d="M987,378.6v-16c0-5.1-4.3-9.6-9.3-9.6h-16c-2.8,0-5.3,1.4-7,3.4l28.6,29.5
				C985.5,384.2,987,381.6,987,378.6z"/>
		</g>
		<g>
			<path fill="#727272" d="M954.4,288.2c-1.4,1.6-2.4,3.7-2.4,6v16c0,5.1,4.5,8.8,9.6,8.8h16c2.1,0,3.9-0.5,5.4-1.6L954.4,288.2z"/>
			<path fill="#727272" d="M987,310.2v-16c0-5.1-4.3-9.2-9.3-9.2h-16c-2.8,0-5.3,1.2-7,3.2l28.6,29.4
				C985.5,315.9,987,313.2,987,310.2z"/>
			<linearGradient id="SVGID_3_" gradientUnits="userSpaceOnUse" x1="1031.3942" y1="394.9226" x2="963.4484" y2="277.2372">
				<stop  offset="0" style="stop-color:#FFFFFF;stop-opacity:0"/>
				<stop  offset="9.537581e-02" style="stop-color:#F0F0F0;stop-opacity:6.676307e-02"/>
				<stop  offset="0.2801" style="stop-color:#C7C7C7;stop-opacity:0.196"/>
				<stop  offset="0.5356" style="stop-color:#868686;stop-opacity:0.3749"/>
				<stop  offset="0.8489" style="stop-color:#2D2D2D;stop-opacity:0.5942"/>
				<stop  offset="1" style="stop-color:#000000;stop-opacity:0.7"/>
			</linearGradient>
			<path fill="url(#SVGID_3_)" d="M987,310.2v-16c0-5.1-4.3-9.2-9.3-9.2h-16c-2.8,0-5.3,1.2-7,3.2l28.6,29.4
				C985.5,315.9,987,313.2,987,310.2z"/>
		</g>
		<g>
			<path fill="#727272" d="M954.4,219.8c-1.4,1.6-2.4,3.7-2.4,6v16c0,5.1,4.5,9.2,9.6,9.2h16c2.1,0,3.9-0.7,5.4-1.8L954.4,219.8z"/>
			<path fill="#727272" d="M987,241.8v-16c0-5.1-4.3-9.7-9.3-9.7h-16c-2.8,0-5.3,1.5-7,3.5l28.6,29.5
				C985.5,247.4,987,244.8,987,241.8z"/>
			<linearGradient id="SVGID_4_" gradientUnits="userSpaceOnUse" x1="1031.6818" y1="326.7863" x2="963.3549" y2="208.4406">
				<stop  offset="0" style="stop-color:#FFFFFF;stop-opacity:0"/>
				<stop  offset="9.537581e-02" style="stop-color:#F0F0F0;stop-opacity:6.676307e-02"/>
				<stop  offset="0.2801" style="stop-color:#C7C7C7;stop-opacity:0.196"/>
				<stop  offset="0.5356" style="stop-color:#868686;stop-opacity:0.3749"/>
				<stop  offset="0.8489" style="stop-color:#2D2D2D;stop-opacity:0.5942"/>
				<stop  offset="1" style="stop-color:#000000;stop-opacity:0.7"/>
			</linearGradient>
			<path fill="url(#SVGID_4_)" d="M987,241.8v-16c0-5.1-4.3-9.7-9.3-9.7h-16c-2.8,0-5.3,1.5-7,3.5l28.6,29.5
				C985.5,247.4,987,244.8,987,241.8z"/>
		</g>
		<g>
			<path fill="#727272" d="M954.4,149.8c-1.4,1.6-2.4,3.7-2.4,6v16c0,5.1,4.5,9.2,9.6,9.2h16c2.1,0,3.9-0.7,5.4-1.8L954.4,149.8z"/>
			<path fill="#727272" d="M987,171.8v-16c0-5.1-4.3-9.8-9.3-9.8h-16c-2.8,0-5.3,1.5-7,3.5l28.6,29.6
				C985.5,177.4,987,174.9,987,171.8z"/>
			<linearGradient id="SVGID_5_" gradientUnits="userSpaceOnUse" x1="1031.7072" y1="256.8605" x2="963.3466" y2="138.4566">
				<stop  offset="0" style="stop-color:#FFFFFF;stop-opacity:0"/>
				<stop  offset="9.537581e-02" style="stop-color:#F0F0F0;stop-opacity:6.676307e-02"/>
				<stop  offset="0.2801" style="stop-color:#C7C7C7;stop-opacity:0.196"/>
				<stop  offset="0.5356" style="stop-color:#868686;stop-opacity:0.3749"/>
				<stop  offset="0.8489" style="stop-color:#2D2D2D;stop-opacity:0.5942"/>
				<stop  offset="1" style="stop-color:#000000;stop-opacity:0.7"/>
			</linearGradient>
			<path fill="url(#SVGID_5_)" d="M987,171.8v-16c0-5.1-4.3-9.8-9.3-9.8h-16c-2.8,0-5.3,1.5-7,3.5l28.6,29.6
				C985.5,177.4,987,174.9,987,171.8z"/>
		</g>
		
			<linearGradient id="SVGID_6_" gradientUnits="userSpaceOnUse" x1="9568.9141" y1="-7948.1973" x2="9533.0234" y2="-8010.3613" gradientTransform="matrix(-8.979300e-11 1 1 8.979300e-11 9016.2725 -9016.2725)">
			<stop  offset="0" style="stop-color:#FFFFFF;stop-opacity:0"/>
			<stop  offset="9.537581e-02" style="stop-color:#F0F0F0;stop-opacity:6.676307e-02"/>
			<stop  offset="0.2801" style="stop-color:#C7C7C7;stop-opacity:0.196"/>
			<stop  offset="0.5356" style="stop-color:#868686;stop-opacity:0.3749"/>
			<stop  offset="0.8489" style="stop-color:#2D2D2D;stop-opacity:0.5942"/>
			<stop  offset="1" style="stop-color:#000000;stop-opacity:0.7"/>
		</linearGradient>
		<path fill="url(#SVGID_6_)" d="M1020.2,491.9l44.7,52.7l0.1,13.3c-0.2-0.1-44.7,0.1-44.7,0.1L1020.2,491.9z"/>
		<g>
			<polygon fill="#2C3E50" points="918.7,492 1020.8,492 1020.9,629.8 969.8,578.1 920.1,625.6 			"/>
			<polygon fill="#24669B" points="1021.1,527.2 918.3,630.2 918.3,492.5 1021,492.5 			"/>
		</g>
	</g>
	<g>
		<g>
			<g>
				<circle fill="#FFFFFF" cx="603.2" cy="276" r="102.4"/>
				<path fill="#39B54A" d="M603.2,163.6c-62,0-112.4,50.4-112.4,112.4s50.4,112.4,112.4,112.4S715.6,338,715.6,276
					S665.2,163.6,603.2,163.6z M603.2,368.4c-51,0-92.4-41.5-92.4-92.4s41.5-92.4,92.4-92.4s92.4,41.5,92.4,92.4
					S654.2,368.4,603.2,368.4z"/>
			</g>
		</g>
		
			<linearGradient id="SVGID_7_" gradientUnits="userSpaceOnUse" x1="-28410.1191" y1="-44823.2109" x2="-28501.1523" y2="-44714.7227" gradientTransform="matrix(0.1944 0 0 -0.1944 6132.5605 -8429.5869)">
			<stop  offset="0" style="stop-color:#FFFFFF;stop-opacity:0"/>
			<stop  offset="2.777451e-02" style="stop-color:#F0F0F0;stop-opacity:2.221961e-02"/>
			<stop  offset="0.1399" style="stop-color:#B8B8B8;stop-opacity:0.1119"/>
			<stop  offset="0.2557" style="stop-color:#878787;stop-opacity:0.2046"/>
			<stop  offset="0.3727" style="stop-color:#5E5E5E;stop-opacity:0.2981"/>
			<stop  offset="0.491" style="stop-color:#3C3C3C;stop-opacity:0.3928"/>
			<stop  offset="0.6113" style="stop-color:#212121;stop-opacity:0.489"/>
			<stop  offset="0.7343" style="stop-color:#0F0F0F;stop-opacity:0.5874"/>
			<stop  offset="0.8616" style="stop-color:#040404;stop-opacity:0.6893"/>
			<stop  offset="1" style="stop-color:#000000;stop-opacity:0.8"/>
		</linearGradient>
		<polygon opacity="0.53" fill="url(#SVGID_7_)" points="543,328.4 558.4,327.1 591.7,295.1 604.4,274.4 625.7,267.1 664.7,234.6 
			668,230.5 645.9,220.2 607.2,250.2 609.9,266.2 598.6,277.5 577.2,278.2 541.9,306.2 		"/>
		
			<linearGradient id="SVGID_8_" gradientUnits="userSpaceOnUse" x1="-28055.418" y1="-45168.3398" x2="-28463.293" y2="-44760.4648" gradientTransform="matrix(0.1944 0 0 -0.1944 6132.5605 -8429.5869)">
			<stop  offset="0" style="stop-color:#FFFFFF;stop-opacity:0"/>
			<stop  offset="9.121197e-02" style="stop-color:#F1F1F1;stop-opacity:8.209077e-02"/>
			<stop  offset="0.2627" style="stop-color:#CDCDCD;stop-opacity:0.2364"/>
			<stop  offset="0.4961" style="stop-color:#939393;stop-opacity:0.4465"/>
			<stop  offset="0.7791" style="stop-color:#434343;stop-opacity:0.7012"/>
			<stop  offset="1" style="stop-color:#000000;stop-opacity:0.9"/>
		</linearGradient>
		<polygon opacity="0.71" fill="url(#SVGID_8_)" points="542.8,328.4 592.4,378.2 667.8,362 707.4,283.9 665.4,225.4 629.4,268.2 
			608.9,270.6 596,280.7 594.9,299.7 562.1,323.5 		"/>
		<g>
			<path fill="#39B54A" d="M570.2,329L570.2,329c-9.1,7.9-22.8,6.9-30.7-2.2c-3.8-4.3-5.7-10-5.3-15.8c0.4-5.8,3-11.1,7.4-14.9
				l26.7-23.2c9.1-7.9,22.8-6.9,30.7,2.2c3.8,4.3,5.7,10,5.3,15.8c-0.4,5.8-3,11.1-7.4,14.9L570.2,329z M576.9,282.9l-26.7,23.2
				c-1.7,1.5-2.7,3.6-2.9,5.9s0.6,4.5,2.1,6.3c3.1,3.6,8.5,4,12.2,0.8l26.7-23.2c1.7-1.5,2.7-3.6,2.9-5.9c0.2-2.3-0.6-4.5-2.1-6.3
				C585.9,280.1,580.6,279.8,576.9,282.9z"/>
		</g>
		<g>
			<path fill="#39B54A" d="M634.5,273.1L634.5,273.1c-9.1,7.9-22.8,6.9-30.7-2.2c-3.8-4.3-5.7-10-5.3-15.8s3-11.1,7.4-14.9
				l26.7-23.2c9.1-7.9,22.8-6.9,30.7,2.2c3.8,4.3,5.7,10,5.3,15.8c-0.4,5.8-3,11.1-7.4,14.9L634.5,273.1z M641.3,226.9l-26.7,23.2
				c-1.7,1.5-2.7,3.6-2.9,5.9c-0.2,2.3,0.6,4.5,2.1,6.3c3.1,3.6,8.5,4,12.2,0.8l26.7-23.2c1.7-1.5,2.7-3.6,2.9-5.9
				c0.2-2.3-0.6-4.5-2.1-6.3C650.3,224.2,644.8,223.8,641.3,226.9z"/>
		</g>
		<path fill="#009245" d="M580.1,285.4l35.2-29.6c1.8-1.5,4.5-1.3,6,0.6l0,0c1.5,1.8,1.3,4.5-0.6,6L585.6,292
			c-1.8,1.5-4.5,1.3-6-0.6l0,0C578.1,289.6,578.2,286.9,580.1,285.4z"/>
		<path fill="#009245" d="M687.5,201.7l-7.4,6.7l-7.5,6.7c14.3,16.3,23,37.6,23,60.9c0,51-41.5,92.4-92.4,92.4
			c-26.7,0-50.8-11.4-67.7-29.6l-7.5,6.7l-7.4,6.7c20.6,22.2,49.9,36.2,82.5,36.2c62,0,112.4-50.4,112.4-112.4
			C715.6,247.5,705,221.5,687.5,201.7z"/>
	</g>
	<g>
		<g id="paper_13_">
			<g>
				<path fill="#E6E6E6" d="M372.9,77H13C6.1,77,0,82.5,0,89.4v406.3v1.4C0,531.7,29,560,63.7,560c21.4,0,21.4,0,0,0h309.2
					c6.9,0,12.1-6,12.1-12.9V89.4C385,82.5,379.8,77,372.9,77z"/>
			</g>
		</g>
		<g>
			<path fill="#24669B" d="M149.2,164.3h3.7c0.2,1,0.5,2.1,0.7,3.5c0.2,1.3,0.4,2.8,0.5,4.3c0.1,1.5,0.3,3,0.3,4.5
				c0.1,1.5,0.1,2.8,0.1,4c-2.1,1.3-4.7,2.2-7.9,2.8c-3.1,0.5-6.4,0.8-9.6,0.8c-5,0-9.5-0.6-13.5-1.8c-4-1.2-7.5-3.2-10.3-5.8
				c-2.8-2.7-5-6-6.6-10.1c-1.6-4.1-2.3-9-2.3-14.8c0-5.7,0.9-10.6,2.6-14.7c1.7-4.1,4-7.5,6.9-10.1c2.9-2.6,6.2-4.6,10-5.8
				c3.8-1.2,7.8-1.8,12-1.8c3.9,0,7.5,0.3,10.7,0.9c3.2,0.6,5.8,1.3,7.9,2.3c0,1,0,2.2-0.1,3.7s-0.2,3.1-0.4,4.7
				c-0.2,1.6-0.4,3.3-0.7,4.8c-0.3,1.6-0.5,2.9-0.8,4h-3.8l-4.9-13.5c-0.5-0.3-1.4-0.5-2.6-0.7c-1.2-0.2-2.4-0.3-3.7-0.3
				c-2.5,0-4.8,0.5-6.9,1.5c-2.2,1-4.1,2.6-5.7,4.7c-1.7,2.2-3,4.9-3.9,8.3c-1,3.4-1.4,7.4-1.4,12.2c0,8.6,1.7,15.1,5.1,19.7
				c3.4,4.6,8,6.9,13.9,6.9c1.7,0,3.1-0.1,4.3-0.4c1.2-0.3,2-0.6,2.4-1.1L149.2,164.3z"/>
			<path fill="#24669B" d="M166.5,120.3h29.4v3.4c-1.3,0.7-2.6,1.2-4.2,1.7c-1.5,0.4-3,0.8-4.4,0.9v51h17.3l6-16.1h3.7
				c0.2,1.4,0.5,3,0.7,4.8c0.2,1.9,0.4,3.8,0.5,5.8c0.1,2,0.2,4,0.3,6c0.1,2,0.1,3.7,0,5.2h-49.3v-3.4c1.4-0.7,2.7-1.3,3.9-1.7
				c1.2-0.4,2.4-0.7,3.5-0.9v-50.8c-2.9-0.5-5.4-1.3-7.4-2.6V120.3z"/>
			<path fill="#24669B" d="M246.3,183.1h-22.2v-3.4c1-0.6,2-1.1,3.1-1.6c1.1-0.4,2.2-0.8,3.3-1l23.1-57.9h6.6l22.5,57.9
				c1.2,0.2,2.4,0.6,3.6,1c1.2,0.4,2.2,1,3.1,1.6v3.4h-28.1v-3.4c1.1-0.5,2.4-1,3.7-1.5c1.3-0.5,2.6-0.8,3.8-1.1l-5.2-14.3h-19.9
				l-5.3,14.3c2.8,0.4,5.4,1.2,7.8,2.6V183.1z M245.9,157h15.9l-5.8-17.1l-1.7-7.7h-0.2l-2,7.9L245.9,157z"/>
		</g>
		<path id="line5_15_" fill="#C1C1C1" d="M254,342.9H111.8c-1.4,0-2.5-1.1-2.5-2.5V336c0-1.4,1.1-2.5,2.5-2.5H254
			c1.4,0,2.5,1.1,2.5,2.5v4.4C256.4,341.8,255.3,342.9,254,342.9z"/>
		<path id="line5_16_" fill="#727272" d="M309.9,443.2H149.5c-1.4,0-2.5-1.1-2.5-2.5v-4.4c0-1.4,1.1-2.5,2.5-2.5h160.4
			c1.4,0,2.5,1.1,2.5,2.5v4.4C312.3,442.1,311.2,443.2,309.9,443.2z"/>
		<path id="line5_17_" fill="#727272" d="M165.3,426.8l-14.2-14.2c-1-1-1-2.5,0-3.5l0.8-0.8c1-1,2.5-1,3.5,0l14.2,14.2
			c1,1,1,2.5,0,3.5l-0.8,0.8C167.9,427.8,166.3,427.8,165.3,426.8z"/>
		<path id="line4_15_" fill="#C1C1C1" d="M242.2,315H111.8c-1.4,0-2.5-1.1-2.5-2.5v-4.4c0-1.4,1.1-2.5,2.5-2.5h130.4
			c1.4,0,2.5,1.1,2.5,2.5v4.4C244.7,313.9,243.6,315,242.2,315z"/>
		<path id="line3_11_" fill="#C1C1C1" d="M270.2,287.1H111.8c-1.4,0-2.5-1.1-2.5-2.5v-4.4c0-1.4,1.1-2.5,2.5-2.5h158.3
			c1.4,0,2.5,1.1,2.5,2.5v4.4C272.6,286,271.5,287.1,270.2,287.1z"/>
		<path id="line2_15_" fill="#C1C1C1" d="M254,259.2H111.8c-1.4,0-2.5-1.1-2.5-2.5v-4.4c0-1.4,1.1-2.5,2.5-2.5H254
			c1.4,0,2.5,1.1,2.5,2.5v4.4C256.4,258.1,255.3,259.2,254,259.2z"/>
		<path id="line1_11_" fill="#C1C1C1" d="M287.8,231.3h-176c-1.4,0-2.5-1.1-2.5-2.5v-4.4c0-1.4,1.1-2.5,2.5-2.5h176
			c1.4,0,2.5,1.1,2.5,2.5v4.4C290.3,230.2,289.2,231.3,287.8,231.3z"/>
		<g id="siegel_33_">
			<circle id="siegel_36_" fill="#C1C1C1" cx="62.1" cy="424.4" r="22"/>
			<g id="siegel_34_">
				<g>
					<g>
						<path fill="#24669B" d="M96.8,435.3c2.7-1.6,3.4-5.2,1.5-7.7v0c-1.4-1.9-1.4-4.5,0-6.3c1.9-2.5,1.2-6.1-1.5-7.7
							c-2-1.2-3-3.6-2.4-5.9c0.8-3-1.2-6.1-4.4-6.5c-2.3-0.3-4.2-2.2-4.5-4.5c-0.4-3.1-3.5-5.2-6.5-4.4h0c-2.3,0.6-4.7-0.4-5.9-2.4
							c-1.6-2.7-5.2-3.4-7.7-1.5c-1.9,1.4-4.5,1.4-6.3,0h0c-2.5-1.9-6.1-1.2-7.7,1.5c-1.2,2-3.6,3-5.9,2.4c-3-0.8-6.1,1.2-6.5,4.4
							c-0.3,2.3-2.2,4.2-4.5,4.5c-3.1,0.4-5.2,3.5-4.4,6.5c0.6,2.3-0.4,4.7-2.4,5.9c-2.7,1.6-3.4,5.2-1.5,7.7c1.4,1.9,1.4,4.5,0,6.3
							v0c-1.9,2.5-1.2,6.1,1.5,7.7c2,1.2,3,3.6,2.4,5.9c-0.8,3,1.2,6.1,4.4,6.5c1.9,0.3,3.5,1.6,4.2,3.4l-10.5,29.3l14.2-2.7l8.9,11
							l10.5-29.2c0.2,0,0.4,0,0.7,0l13.7,29.1l8.1-11.9l14.1,1.5l-12.6-26.8c0.6-1.9,2.3-3.3,4.3-3.6c3.1-0.4,5.2-3.5,4.4-6.5
							C93.8,438.8,94.8,436.4,96.8,435.3z M62.2,450.5c-14.4,0-26.1-11.7-26.1-26.1c0-14.4,11.7-26.1,26.1-26.1s26.1,11.7,26.1,26.1
							C88.4,438.8,76.7,450.5,62.2,450.5z"/>
					</g>
				</g>
				<circle id="siegel_35_" fill="#24669B" cx="62.2" cy="424.4" r="22"/>
			</g>
			<path fill="#2C3E50" d="M39.7,448.2l-7,19.5c9.3-4.2,27.6-4.2,27.6-4.2l1.5-4.2l0.6,0.2l2,4c0,0,21.5,0.3,29,4.2l-8.4-18l-24.6,4
				L39.7,448.2z"/>
			<g>
				<g>
					<path fill="#24669B" d="M27.6,413.5c-2.7,1.6-3.4,5.2-1.5,7.7v0c1.4,1.9,1.4,4.5,0,6.3c-1.9,2.5-1.2,6.1,1.5,7.7
						c2,1.2,3,3.6,2.4,5.9c-0.8,3,1.2,6.1,4.4,6.5c2.3,0.3,4.2,2.2,4.5,4.5c0.4,3.1,3.5,5.2,6.5,4.4h0c2.3-0.6,4.7,0.4,5.9,2.4
						c1.6,2.7,5.2,3.4,7.7,1.5c1.9-1.4,4.5-1.4,6.3,0h0c2.5,1.9,6.1,1.2,7.7-1.5c1.2-2,3.6-3,5.9-2.4c3,0.8,6.1-1.2,6.5-4.4
						c0.3-2.3,2.2-4.2,4.5-4.5c3.1-0.4,5.2-3.5,4.4-6.5c-0.6-2.3,0.4-4.7,2.4-5.9c2.7-1.6,3.4-5.2,1.5-7.7c-1.4-1.9-1.4-4.5,0-6.3v0
						c1.9-2.5,1.2-6.1-1.5-7.7c-2-1.2-3-3.6-2.4-5.9c0.8-3-1.2-6.1-4.4-6.5c-1.9-0.3-3.5-1.6-4.2-3.4l-47.1-0.2
						c-0.6,1.9-2.3,3.3-4.3,3.6c-3.1,0.4-5.2,3.5-4.4,6.5C30.6,409.9,29.6,412.3,27.6,413.5z M62.1,398.3
						c14.4,0,26.1,11.7,26.1,26.1c0,14.4-11.7,26.1-26.1,26.1S36,438.8,36,424.4C36,410,47.7,398.3,62.1,398.3z"/>
				</g>
			</g>
		</g>
		<g>
			<path fill="#C1C1C1" d="M413.3,478.5l-284.5-0.1c-7,0-7.8,3.5-7.8,7.3c0,0.4,0.7,10.7,0.7,11.4c0,32.8-25,59.9-57.1,63
				c0.6,0.1,1.1,0.2,1.7,0.2h306.8c30.1,0,54.8-24.6,54.8-54.8l-0.4-12.6C427.4,483.2,419.6,478.5,413.3,478.5z"/>
		</g>
		<path id="line5_18_" fill="#727272" d="M151.2,422.5l14.2-14.2c1-1,2.5-1,3.5,0l0.8,0.8c1,1,1,2.5,0,3.5l-14.2,14.2
			c-1,1-2.5,1-3.5,0l-0.8-0.8C150.2,425.1,150.2,423.5,151.2,422.5z"/>
	</g>
</g>
</svg>
