<?xml version="1.0" encoding="utf-8"?>
<!-- Generator: Adobe Illustrator 18.1.1, SVG Export Plug-In . SVG Version: 6.00 Build 0)  -->
<svg version="1.1" xmlns="http://www.w3.org/2000/svg" xmlns:xlink="http://www.w3.org/1999/xlink" x="0px" y="0px"
	 viewBox="0 0 956 708" enable-background="new 0 0 956 708" xml:space="preserve">
<g id="Layer_2" display="none">
</g>
<g id="Layer_1">
	<path fill="#FFFFFF" d="M312.4,194.1c0,18.9-22.2,20.2-22.2,20.2s-22.2-1.3-22.2-20.2s22.2-42.1,22.2-42.1S312.4,175.2,312.4,194.1
		z"/>
	<path fill="#CCCCCC" d="M276.5,196.6c-1.3,0-2.4-1-2.5-2.3c-0.4-5.1,5.2-20.3,12.9-26.6c1.1-0.9,2.6-0.7,3.5,0.4
		c0.9,1.1,0.7,2.6-0.4,3.5c-6.3,5.1-11.4,18.8-11.1,22.3c0.1,1.4-0.9,2.6-2.3,2.7C276.7,196.6,276.6,196.6,276.5,196.6z"/>
</g>
</svg>
