<?xml version="1.0" encoding="utf-8"?>
<!-- Generator: Adobe Illustrator 18.1.1, SVG Export Plug-In . SVG Version: 6.00 Build 0)  -->
<svg version="1.1" xmlns="http://www.w3.org/2000/svg" xmlns:xlink="http://www.w3.org/1999/xlink" x="0px" y="0px"
	 viewBox="0 0 87.2 91.9" enable-background="new 0 0 87.2 91.9" xml:space="preserve">
<g id="Layer_2" display="none">
</g>
<g id="Layer_1">
	<path fill="#FFFFFF" d="M59.5,57.3c0,13.6-16,14.6-16,14.6s-16-0.9-16-14.6s16-30.3,16-30.3S59.5,43.7,59.5,57.3z"/>
	<path fill="#CCCCCC" d="M35.8,64.5c-1,0-1.9-0.6-2.3-1.5c-0.2-0.4-4.2-9.9,3.4-21.8c0.7-1.2,2.3-1.5,3.5-0.8
		c1.2,0.7,1.5,2.3,0.8,3.5C35,53.6,38.1,60.9,38.1,61c0.6,1.3,0,2.7-1.3,3.3C36.5,64.4,36.2,64.5,35.8,64.5z"/>
</g>
</svg>
