<?xml version="1.0" encoding="utf-8"?>
<!-- Generator: Adobe Illustrator 18.1.1, SVG Export Plug-In . SVG Version: 6.00 Build 0)  -->
<svg version="1.1" xmlns="http://www.w3.org/2000/svg" xmlns:xlink="http://www.w3.org/1999/xlink" x="0px" y="0px"
	 viewBox="0 0 87.2 91.9" enable-background="new 0 0 87.2 91.9" xml:space="preserve">
<g id="Layer_2" display="none">
</g>
<g id="Layer_1">
	<path fill="#FFFFFF" d="M43.5,52.4c0,9.6-11.3,10.3-11.3,10.3S21,62,21,52.4S32.3,31,32.3,31S43.5,42.8,43.5,52.4z"/>
	<path fill="#CCCCCC" d="M27.2,56.1c-0.6,0-1.2-0.4-1.4-1.1c-2.7-8.8,3.2-14,3.5-14.3c0.6-0.5,1.6-0.5,2.1,0.1
		c0.5,0.6,0.5,1.6-0.1,2.1c-0.2,0.2-4.6,4.2-2.6,11.1c0.2,0.8-0.2,1.6-1,1.9C27.5,56.1,27.4,56.1,27.2,56.1z"/>
</g>
</svg>
