<?xml version="1.0" encoding="utf-8"?>
<!-- Generator: Adobe Illustrator 18.1.1, SVG Export Plug-In . SVG Version: 6.00 Build 0)  -->
<svg version="1.1" id="Layer_1" xmlns="http://www.w3.org/2000/svg" xmlns:xlink="http://www.w3.org/1999/xlink" x="0px" y="0px"
	 viewBox="0 0 1835.6 1230.9" enable-background="new 0 0 1835.6 1230.9" xml:space="preserve">
<path fill="#333333" d="M1459.8,917H357c-6.6,0-12-5.4-12-12V163c0-6.6,5.4-12,12-12h1102.8c6.6,0,12,5.4,12,12v742
	C1471.8,911.6,1466.4,917,1459.8,917z"/>
<circle fill="#E6E6E6" cx="917.4" cy="836.6" r="28.7"/>
<rect x="387.3" y="195.6" fill="#2C3E50" width="1041.8" height="568.9"/>
<g>
	<path fill="#FFFFFF" d="M361.2,150.6c-8.2,3.1-13.4,8.9-15.6,17.4c0-5.7,0-11.5,0-17.4C350.8,150.6,356,150.6,361.2,150.6z"/>
	<path fill="#E6E6E6" d="M1086.7,1089.2l-350.8,0c0,0,0.8-5.3,5.7-8.9c8.7-5.1,17.7-9.7,26.2-15.1c7.2-4.6,11.1-11.4,12.1-20.2
		c0,0,5.2-36.4,5.9-42c0.7-6,1.6-12.1,2.3-18.1c0.5-4.3,0.8-8.6,1.3-13c0.8-7.5,1.6-15.1,2.3-22.6c0.5-5.2,0.8-10.4,1.2-15.8
		c78.6,0,157,0,235.6,0c0.6,7,1.1,14,1.8,21c0.9,8.6,2,17.2,2.9,25.8c0.7,6.3,1.1,12.6,1.9,18.8c0.9,7.2,4,31.8,6.5,46.1
		c2.2,10.1,4.9,15.4,12,19.9c8.6,5.4,17.7,10.1,26.5,15.2C1082.7,1081.9,1085.1,1085.4,1086.7,1089.2z"/>
</g>
<g id="paper">
	<g>
		<path fill="#E6E6E6" d="M1071.5,244H727c-6.6,0-11.9,4.9-11.9,11.5v388.8v1.4c0,33.1,27.2,60.3,60.3,60.3c20.5,0,20.5,0,0,0h296
			c6.6,0,11.7-5.9,11.7-12.5v-438C1083.2,248.9,1078.1,244,1071.5,244z"/>
		<g>
			<path fill="#C1C1C1" d="M1110.1,627.9l-272.3-0.1c-6.7,0-7.5,3.4-7.5,7c0,0.4,0.6,10.2,0.6,10.9c0,31.4-24,57.3-54.6,60.3
				c0.5,0.1,1.1,0.2,1.6,0.2h293.6c28.8,0,52.4-23.6,52.4-52.4l-0.4-12.1C1123.6,632.4,1116.2,627.9,1110.1,627.9z"/>
		</g>
	</g>
</g>
<text transform="matrix(1 0 0 1 811.0445 345.2513)"><tspan x="0" y="0" fill="#E74C3C" font-family="'PTSerif-Bold'" font-size="85.8661" letter-spacing="5">C</tspan><tspan x="61.1" y="0" fill="#E74C3C" font-family="'PTSerif-Bold'" font-size="85.8661" letter-spacing="6">L</tspan><tspan x="118.1" y="0" fill="#E74C3C" font-family="'PTSerif-Bold'" font-size="85.8661">A</tspan></text>
<path id="line5" fill="#C1C1C1" d="M957.5,498.1H821.7c-1.4,0-2.5-1.1-2.5-2.5v-4c0-1.4,1.1-2.5,2.5-2.5h135.8
	c1.4,0,2.5,1.1,2.5,2.5v4C960,497,958.9,498.1,957.5,498.1z"/>
<path id="line4" fill="#C1C1C1" d="M946.3,471.4H821.7c-1.4,0-2.5-1.1-2.5-2.5v-4c0-1.4,1.1-2.5,2.5-2.5h124.6
	c1.4,0,2.5,1.1,2.5,2.5v4C948.8,470.3,947.7,471.4,946.3,471.4z"/>
<path id="line3" fill="#C1C1C1" d="M973,444.7H821.7c-1.4,0-2.5-1.1-2.5-2.5v-4c0-1.4,1.1-2.5,2.5-2.5H973c1.4,0,2.5,1.1,2.5,2.5v4
	C975.5,443.6,974.4,444.7,973,444.7z"/>
<path id="line2" fill="#C1C1C1" d="M957.5,418H821.7c-1.4,0-2.5-1.1-2.5-2.5v-4c0-1.4,1.1-2.5,2.5-2.5h135.8c1.4,0,2.5,1.1,2.5,2.5
	v4C960,416.9,958.9,418,957.5,418z"/>
<path id="line1" fill="#C1C1C1" d="M989.9,391.3H821.7c-1.4,0-2.5-1.1-2.5-2.5v-4c0-1.4,1.1-2.5,2.5-2.5h168.2
	c1.4,0,2.5,1.1,2.5,2.5v4C992.4,390.2,991.3,391.3,989.9,391.3z"/>
<path id="sign_3_" display="none" fill="#727272" d="M956.3,608.1c-2.5,0-4.6-0.7-6.2-2c-3.6-2.9-4.1-9.1-4.7-16.3
	c-0.2-3-0.6-7.7-1.3-9.6c-1.4,0.6-4.1,2.6-6.3,4.2c-2.4,1.7-5,3.7-8.3,5.7c-1,0.6-1.9,1.2-2.8,1.8c-9,5.9-14.5,9.4-19.7,7.2
	c-10.6-4.5-10-22.5-9.5-40c0.2-7.6,0.7-21.6-1.6-23.5c0,0,0,0,0,0c-1.3,0-4.7,1.9-13.7,13.7c-9.8,13-15.9,29-17.5,46.4
	c-0.2,2.2-2.1,3.8-4.4,3.6c-2.2-0.2-3.8-2.2-3.6-4.4c1.7-18.9,8.3-36.4,19.1-50.5c7.4-9.8,15.3-19.1,22.8-16.5
	c7.8,2.7,7.4,15.3,6.9,31.3c-0.4,11.9-0.9,30,4.6,32.4c1.6,0.4,7.5-3.5,12.2-6.5c0.9-0.6,1.8-1.2,2.8-1.8c3.1-2,5.6-3.8,7.9-5.5
	c6.1-4.4,11-7.9,15.6-4.6c3.7,2.6,4.2,8.8,4.7,15.8c0.3,3.5,0.8,9.4,1.8,10.8c0.3,0.2,2.7,1.2,10.7-3c2-1,4.4-0.2,5.4,1.7
	c1,2,0.2,4.4-1.7,5.4C964.3,606.7,959.9,608.1,956.3,608.1z"/>
<g id="siegel_11_">
	<circle id="siegel_12_" fill="#C1C1C1" cx="774.1" cy="576.1" r="21"/>
	<g id="siegel_9_">
		<g>
			<g>
				<path fill="#E74C3C" d="M807.2,586.5c2.6-1.5,3.3-5,1.5-7.4v0c-1.4-1.8-1.4-4.3,0-6.1c1.8-2.4,1.1-5.9-1.5-7.4
					c-1.9-1.1-2.9-3.4-2.3-5.6c0.8-2.9-1.2-5.8-4.2-6.3c-2.2-0.3-4-2.1-4.3-4.3c-0.4-3-3.3-4.9-6.3-4.2h0c-2.2,0.6-4.5-0.4-5.6-2.3
					c-1.5-2.6-5-3.3-7.4-1.5c-1.8,1.4-4.3,1.4-6.1,0h0c-2.4-1.8-5.9-1.1-7.4,1.5c-1.1,1.9-3.4,2.9-5.6,2.3c-2.9-0.8-5.8,1.2-6.3,4.2
					c-0.3,2.2-2.1,4-4.3,4.3c-3,0.4-4.9,3.3-4.2,6.3c0.6,2.2-0.4,4.5-2.3,5.6c-2.6,1.5-3.3,5-1.5,7.4c1.4,1.8,1.4,4.3,0,6.1v0
					c-1.8,2.4-1.1,5.9,1.5,7.4c1.9,1.1,2.9,3.4,2.3,5.6c-0.8,2.9,1.2,5.8,4.2,6.3c1.9,0.3,3.4,1.5,4,3.2l-10.1,28l13.6-2.6l8.6,10.5
					l10.1-27.9c0.2,0,0.4,0,0.6,0l13.1,27.9l7.8-11.4l13.5,1.4l-12.1-25.6c0.6-1.8,2.2-3.2,4.1-3.5c3-0.4,4.9-3.3,4.2-6.3
					C804.3,590,805.3,587.7,807.2,586.5z M774.1,601.1c-13.8,0-25-11.2-25-25s11.2-25,25-25s25,11.2,25,25S788,601.1,774.1,601.1z"
					/>
			</g>
		</g>
		<circle id="siegel_10_" fill="#C1C1C1" cx="774.1" cy="576.1" r="21"/>
	</g>
	<path fill="#D32F2F" d="M752.6,598.9l-6.7,18.6c8.9-4,26.4-4,26.4-4l1.5-4l0.6,0.2l1.9,3.9c0,0,20.6,0.2,27.8,4l-8-17.2l-23.5,3.8
		L752.6,598.9z"/>
	<g>
		<g>
			<path fill="#E74C3C" d="M741,565.7c-2.6,1.5-3.3,5-1.5,7.4l0,0c1.4,1.8,1.4,4.3,0,6.1c-1.8,2.4-1.1,5.9,1.5,7.4
				c1.9,1.1,2.9,3.4,2.3,5.6c-0.8,2.9,1.2,5.8,4.2,6.3c2.2,0.3,4,2.1,4.3,4.3c0.4,3,3.3,4.9,6.3,4.2l0,0c2.2-0.6,4.5,0.4,5.6,2.3
				c1.5,2.6,5,3.3,7.4,1.5c1.8-1.4,4.3-1.4,6.1,0h0c2.4,1.8,5.9,1.1,7.4-1.5c1.1-1.9,3.4-2.9,5.6-2.3c2.9,0.8,5.8-1.2,6.3-4.2
				c0.3-2.2,2.1-4,4.3-4.3c3-0.4,4.9-3.3,4.2-6.3c-0.6-2.2,0.4-4.5,2.3-5.6c2.6-1.5,3.3-5,1.5-7.4c-1.4-1.8-1.4-4.3,0-6.1l0,0
				c1.8-2.4,1.1-5.9-1.5-7.4c-1.9-1.1-2.9-3.4-2.3-5.6c0.8-2.9-1.2-5.8-4.2-6.3c-1.9-0.3-3.4-1.5-4-3.2l-45-0.2
				c-0.6,1.8-2.2,3.2-4.1,3.5c-3,0.4-4.9,3.3-4.2,6.3C743.9,562.3,742.9,564.6,741,565.7z M774.1,551.1c13.8,0,25,11.2,25,25
				c0,13.8-11.2,25-25,25c-13.8,0-25-11.2-25-25C749,562.3,760.2,551.1,774.1,551.1z"/>
		</g>
	</g>
</g>
<path id="shadow" display="none" fill="#C1C1C1" d="M984.5,591.7c0,0,56.7-27,98.7,13.3V457.7L984.5,591.7z"/>
<g id="pen" display="none">
	<g id="pen_3_" display="inline">
		<path fill="#727272" d="M992.8,552.9c-2.7,3.9-10.6,36-10.6,36c-0.4,1.5,0.3,2.3,0.9,2.8l0,0c0,0,0,0,0,0c0,0,0,0,0,0l0,0
			c0.6,0.4,1.6,1,3,0.1c0,0,29.1-16.2,32.1-19.9l9.5-12.1l-25.2-19.6L992.8,552.9z"/>
		<g>
			<path fill="#727272" d="M1140.4,421.3l11.7-15.2c10.1-13.1,10.5-22.9-0.9-31.7c-10.3-8-21.9-4.6-32.3,8.8l-113.5,147.2l31.6,24.4
				l93.7-121.2l10.2,7.9l-30.4,39.2c-1.3,1.7-1.8,3.8-1.6,5.7c0.3,2,1.3,3.8,3,5.1c3.4,2.6,8.3,2,11-1.5l43.8-56.9
				c2.7-3.5,2-8.4-1.6-11c-3.5-2.5-8.3-1.6-10.9,1.7l-3.9,5L1140.4,421.3z"/>
		</g>
	</g>
	<path display="inline" fill="#878787" d="M1010.8,534.4l115.5-148.1c2.6-3.3,7-4.3,9.7-2.2l0,0c2.7,2.1,2.9,6.6,0.3,10
		l-115.5,148.1L1010.8,534.4z"/>
</g>
<g>
	<polygon opacity="0.12" fill="#FFFFFF" points="392.2,762.8 392.2,196.3 875.2,196.3 	"/>
</g>
<path fill="#C1C1C1" d="M1086.7,1089l-350.8,0c0,0,0.8-5.3,5.7-8.9c8.7-5.1,17.7-9.7,26.2-15.1c5.6-3.7,6-5.3,7.4-7h271.2
	c0,0,2.2,3.6,7.3,7c8.6,5.4,17.7,10.1,26.5,15.2C1082.6,1081.7,1085.1,1085.2,1086.7,1089z"/>
<path display="none" fill="#C1C1C1" d="M736,1081.2c0,0,0.8-5.3,5.7-8.9c8.7-5.1,17.7-9.7,26.2-15.1c7.2-4.6,11.1-11.4,12.1-20.2
	c0,0,5.2-36.4,5.9-42c0.7-6,1.6-12.1,2.3-18.1c0.5-4.3,0.8-8.6,1.3-13c0.8-7.5,1.6-15.1,2.3-22.6c0.5-5.2,0.8-10.4,1.2-15.8
	c78.6,0,157,0,235.6,0c0.3,3.4-144.8,155.7-144.8,155.7L736,1081.2z"/>
<path display="none" fill="#C1C1C1" d="M779.5,1040.4c0,0,3.5-21.7,6.4-45.3c0.7-6,1.6-12.1,2.3-18.1c0.5-4.3,0.8-8.6,1.3-13
	c0.8-7.5,1.6-15.1,2.3-22.6c0.5-5.2,0.8-10.4,1.2-15.8c78.6,0,157,0,235.6,0C1028.9,929,779.5,1040.4,779.5,1040.4z"/>
</svg>
