<?xml version="1.0" encoding="utf-8"?>
<!-- Generator: Adobe Illustrator 18.1.1, SVG Export Plug-In . SVG Version: 6.00 Build 0)  -->
<svg version="1.1" id="Layer_1" xmlns="http://www.w3.org/2000/svg" xmlns:xlink="http://www.w3.org/1999/xlink" x="0px" y="0px"
	 viewBox="0 0 1209.1 999.1" enable-background="new 0 0 1209.1 999.1" xml:space="preserve">
<path fill="#333333" d="M1160,797.1H57.2c-6.6,0-12-5.4-12-12v-742c0-6.6,5.4-12,12-12H1160c6.6,0,12,5.4,12,12v742
	C1172,791.7,1166.6,797.1,1160,797.1z"/>
<circle fill="#E6E6E6" cx="617.6" cy="716.7" r="28.7"/>
<rect x="87.5" y="75.7" fill="#2C3E50" width="1041.8" height="568.9"/>
<g>
	<path fill="#E6E6E6" d="M786.9,969.3l-350.8,0c0,0,0.8-5.3,5.7-8.9c8.7-5.1,17.7-9.7,26.2-15.1c7.2-4.6,11.1-11.4,12.1-20.2
		c0,0,5.2-36.4,5.9-42c0.7-6,1.6-12.1,2.3-18.1c0.5-4.3,0.8-8.6,1.3-13c0.8-7.5,1.6-15.1,2.3-22.6c0.5-5.2,0.8-10.4,1.2-15.8
		c78.6,0,157,0,235.6,0c0.6,7,1.1,14,1.8,21c0.9,8.6,2,17.2,2.9,25.8c0.7,6.3,1.1,12.6,1.9,18.8c0.9,7.2,4,31.8,6.5,46.1
		c2.2,10.1,4.9,15.4,12,19.9c8.6,5.4,17.7,10.1,26.5,15.2C782.9,962,785.3,965.5,786.9,969.3z"/>
</g>
<g id="paper">
	<g>
		<path fill="#E6E6E6" d="M771.7,124.1H427.2c-6.6,0-11.9,4.9-11.9,11.5v388.8v1.4c0,33.1,27.2,60.3,60.3,60.3c20.5,0,20.5,0,0,0
			h296c6.6,0,11.7-5.9,11.7-12.5v-438C783.4,129.1,778.3,124.1,771.7,124.1z"/>
		<g>
			<path fill="#C1C1C1" d="M810.3,508l-272.3-0.1c-6.7,0-7.5,3.4-7.5,7c0,0.4,0.6,10.2,0.6,10.9c0,31.4-24,57.3-54.6,60.3
				c0.5,0.1,1.1,0.2,1.6,0.2h293.6c28.8,0,52.4-23.6,52.4-52.4l-0.4-12.1C823.8,512.5,816.4,508,810.3,508z"/>
		</g>
	</g>
</g>
<text transform="matrix(1 0 0 1 511.244 225.3828)"><tspan x="0" y="0" fill="#E74C3C" font-family="'PTSerif-Bold'" font-size="85.8661" letter-spacing="5">C</tspan><tspan x="61.1" y="0" fill="#E74C3C" font-family="'PTSerif-Bold'" font-size="85.8661" letter-spacing="6">L</tspan><tspan x="118.1" y="0" fill="#E74C3C" font-family="'PTSerif-Bold'" font-size="85.8661">A</tspan></text>
<path id="line5" fill="#C1C1C1" d="M657.7,378.3H521.9c-1.4,0-2.5-1.1-2.5-2.5v-4c0-1.4,1.1-2.5,2.5-2.5h135.8
	c1.4,0,2.5,1.1,2.5,2.5v4C660.2,377.2,659.1,378.3,657.7,378.3z"/>
<path id="line4" fill="#C1C1C1" d="M646.5,351.6H521.9c-1.4,0-2.5-1.1-2.5-2.5v-4c0-1.4,1.1-2.5,2.5-2.5h124.6
	c1.4,0,2.5,1.1,2.5,2.5v4C649,350.5,647.9,351.6,646.5,351.6z"/>
<path id="line3" fill="#C1C1C1" d="M673.2,324.9H521.9c-1.4,0-2.5-1.1-2.5-2.5v-4c0-1.4,1.1-2.5,2.5-2.5h151.3
	c1.4,0,2.5,1.1,2.5,2.5v4C675.7,323.8,674.6,324.9,673.2,324.9z"/>
<path id="line2" fill="#C1C1C1" d="M657.7,298.2H521.9c-1.4,0-2.5-1.1-2.5-2.5v-4c0-1.4,1.1-2.5,2.5-2.5h135.8
	c1.4,0,2.5,1.1,2.5,2.5v4C660.2,297.1,659.1,298.2,657.7,298.2z"/>
<path id="line1" fill="#C1C1C1" d="M690.1,271.5H521.9c-1.4,0-2.5-1.1-2.5-2.5v-4c0-1.4,1.1-2.5,2.5-2.5h168.2
	c1.4,0,2.5,1.1,2.5,2.5v4C692.6,270.4,691.5,271.5,690.1,271.5z"/>
<path id="sign_3_" display="none" fill="#727272" d="M656.5,488.2c-2.5,0-4.6-0.7-6.2-2c-3.6-2.9-4.1-9.1-4.7-16.3
	c-0.2-3-0.6-7.7-1.3-9.6c-1.4,0.6-4.1,2.6-6.3,4.2c-2.4,1.7-5,3.7-8.3,5.7c-1,0.6-1.9,1.2-2.8,1.8c-9,5.9-14.5,9.4-19.7,7.2
	c-10.6-4.5-10-22.5-9.5-40c0.2-7.6,0.7-21.6-1.6-23.5c0,0,0,0,0,0c-1.3,0-4.7,1.9-13.7,13.7c-9.8,13-15.9,29-17.5,46.4
	c-0.2,2.2-2.1,3.8-4.4,3.6c-2.2-0.2-3.8-2.2-3.6-4.4c1.7-18.9,8.3-36.4,19.1-50.5c7.4-9.8,15.3-19.1,22.8-16.5
	c7.8,2.7,7.4,15.3,6.9,31.3c-0.4,11.9-0.9,30,4.6,32.4c1.6,0.4,7.5-3.5,12.2-6.5c0.9-0.6,1.8-1.2,2.8-1.8c3.1-2,5.6-3.8,7.9-5.5
	c6.1-4.4,11-7.9,15.6-4.6c3.7,2.6,4.2,8.8,4.7,15.8c0.3,3.5,0.8,9.4,1.8,10.8c0.3,0.2,2.7,1.2,10.7-3c2-1,4.4-0.2,5.4,1.7
	c1,2,0.2,4.4-1.7,5.4C664.5,486.9,660.1,488.2,656.5,488.2z"/>
<g id="siegel_11_">
	<circle id="siegel_12_" fill="#C1C1C1" cx="474.3" cy="456.3" r="21"/>
	<g id="siegel_9_">
		<g>
			<g>
				<path fill="#E74C3C" d="M507.4,466.7c2.6-1.5,3.3-5,1.5-7.4v0c-1.4-1.8-1.4-4.3,0-6.1c1.8-2.4,1.1-5.9-1.5-7.4
					c-1.9-1.1-2.9-3.4-2.3-5.6c0.8-2.9-1.2-5.8-4.2-6.3c-2.2-0.3-4-2.1-4.3-4.3c-0.4-3-3.3-4.9-6.3-4.2h0c-2.2,0.6-4.5-0.4-5.6-2.3
					c-1.5-2.6-5-3.3-7.4-1.5c-1.8,1.4-4.3,1.4-6.1,0h0c-2.4-1.8-5.9-1.1-7.4,1.5c-1.1,1.9-3.4,2.9-5.6,2.3c-2.9-0.8-5.8,1.2-6.3,4.2
					c-0.3,2.2-2.1,4-4.3,4.3c-3,0.4-4.9,3.3-4.2,6.3c0.6,2.2-0.4,4.5-2.3,5.6c-2.6,1.5-3.3,5-1.5,7.4c1.4,1.8,1.4,4.3,0,6.1v0
					c-1.8,2.4-1.1,5.9,1.5,7.4c1.9,1.1,2.9,3.4,2.3,5.6c-0.8,2.9,1.2,5.8,4.2,6.3c1.9,0.3,3.4,1.5,4,3.2l-10.1,28l13.6-2.6l8.6,10.5
					l10.1-27.9c0.2,0,0.4,0,0.6,0l13.1,27.9l7.8-11.4l13.5,1.4L496.8,482c0.6-1.8,2.2-3.2,4.1-3.5c3-0.4,4.9-3.3,4.2-6.3
					C504.5,470.1,505.5,467.8,507.4,466.7z M474.3,481.3c-13.8,0-25-11.2-25-25c0-13.8,11.2-25,25-25s25,11.2,25,25
					C499.4,470.1,488.2,481.3,474.3,481.3z"/>
			</g>
		</g>
		<circle id="siegel_10_" fill="#C1C1C1" cx="474.3" cy="456.2" r="21"/>
	</g>
	<path fill="#D32F2F" d="M452.8,479l-6.7,18.6c8.9-4,26.4-4,26.4-4l1.5-4l0.6,0.2l1.9,3.9c0,0,20.6,0.2,27.8,4l-8-17.2l-23.5,3.8
		L452.8,479z"/>
	<g>
		<g>
			<path fill="#E74C3C" d="M441.2,445.9c-2.6,1.5-3.3,5-1.5,7.4v0c1.4,1.8,1.4,4.3,0,6.1c-1.8,2.4-1.1,5.9,1.5,7.4
				c1.9,1.1,2.9,3.4,2.3,5.6c-0.8,2.9,1.2,5.8,4.2,6.3c2.2,0.3,4,2.1,4.3,4.3c0.4,3,3.3,4.9,6.3,4.2h0c2.2-0.6,4.5,0.4,5.6,2.3
				c1.5,2.6,5,3.3,7.4,1.5c1.8-1.4,4.3-1.4,6.1,0h0c2.4,1.8,5.9,1.1,7.4-1.5c1.1-1.9,3.4-2.9,5.6-2.3c2.9,0.8,5.8-1.2,6.3-4.2
				c0.3-2.2,2.1-4,4.3-4.3c3-0.4,4.9-3.3,4.2-6.3c-0.6-2.2,0.4-4.5,2.3-5.6c2.6-1.5,3.3-5,1.5-7.4c-1.4-1.8-1.4-4.3,0-6.1v0
				c1.8-2.4,1.1-5.9-1.5-7.4c-1.9-1.1-2.9-3.4-2.3-5.6c0.8-2.9-1.2-5.8-4.2-6.3c-1.9-0.3-3.4-1.5-4-3.2l-45-0.2
				c-0.6,1.8-2.2,3.2-4.1,3.5c-3,0.4-4.9,3.3-4.2,6.3C444.1,442.4,443.1,444.7,441.2,445.9z M474.3,431.3c13.8,0,25,11.2,25,25
				c0,13.8-11.2,25-25,25s-25-11.2-25-25C449.2,442.5,460.4,431.3,474.3,431.3z"/>
		</g>
	</g>
</g>
<path id="shadow" display="none" fill="#C1C1C1" d="M684.7,471.8c0,0,56.7-27,98.7,13.3V337.8L684.7,471.8z"/>
<g id="pen" display="none">
	<g id="pen_3_" display="inline">
		<path fill="#727272" d="M693,433.1c-2.7,3.9-10.6,36-10.6,36c-0.4,1.5,0.3,2.3,0.9,2.8l0,0c0,0,0,0,0,0c0,0,0,0,0,0l0,0
			c0.6,0.4,1.6,1,3,0.1c0,0,29.1-16.2,32.1-19.9l9.5-12.1l-25.2-19.6L693,433.1z"/>
		<g>
			<path fill="#727272" d="M840.5,301.4l11.7-15.2c10.1-13.1,10.5-22.9-0.9-31.7c-10.3-8-21.9-4.6-32.3,8.8L705.6,410.5l31.6,24.4
				l93.7-121.2l10.2,7.9l-30.4,39.2c-1.3,1.7-1.8,3.8-1.6,5.7c0.3,2,1.3,3.8,3,5.1c3.4,2.6,8.3,2,11-1.5l43.8-56.9
				c2.7-3.5,2-8.4-1.6-11c-3.5-2.5-8.3-1.6-10.9,1.7l-3.9,5L840.5,301.4z"/>
		</g>
	</g>
	<path display="inline" fill="#878787" d="M711,414.5l115.5-148.1c2.6-3.3,7-4.3,9.7-2.2l0,0c2.7,2.1,2.9,6.6,0.3,10L721,422.3
		L711,414.5z"/>
</g>
<g>
	<polygon opacity="0.12" fill="#FFFFFF" points="87.6,644.6 87.6,75.7 570.6,75.7 	"/>
</g>
<path fill="#C1C1C1" d="M786.9,969.2l-350.8,0c0,0,0.8-5.3,5.7-8.9c8.7-5.1,17.7-9.7,26.2-15.1c5.6-3.7,6-5.3,7.4-7h271.2
	c0,0,2.2,3.6,7.3,7c8.6,5.4,17.7,10.1,26.5,15.2C782.8,961.8,785.3,965.3,786.9,969.2z"/>
<path display="none" fill="#C1C1C1" d="M436.2,961.4c0,0,0.8-5.3,5.7-8.9c8.7-5.1,17.7-9.7,26.2-15.1c7.2-4.6,11.1-11.4,12.1-20.2
	c0,0,5.2-36.4,5.9-42c0.7-6,1.6-12.1,2.3-18.1c0.5-4.3,0.8-8.6,1.3-13c0.8-7.5,1.6-15.1,2.3-22.6c0.5-5.2,0.8-10.4,1.2-15.8
	c78.6,0,157,0,235.6,0c0.3,3.4-144.8,155.7-144.8,155.7L436.2,961.4z"/>
<path display="none" fill="#C1C1C1" d="M479.7,920.5c0,0,3.5-21.7,6.4-45.3c0.7-6,1.6-12.1,2.3-18.1c0.5-4.3,0.8-8.6,1.3-13
	c0.8-7.5,1.6-15.1,2.3-22.6c0.5-5.2,0.8-10.4,1.2-15.8c78.6,0,157,0,235.6,0C729.1,809.1,479.7,920.5,479.7,920.5z"/>
</svg>
