<?xml version="1.0" encoding="utf-8"?>
<!-- Generator: Adobe Illustrator 18.1.1, SVG Export Plug-In . SVG Version: 6.00 Build 0)  -->
<svg version="1.1" id="Layer_1" xmlns="http://www.w3.org/2000/svg" xmlns:xlink="http://www.w3.org/1999/xlink" x="0px" y="0px"
	 viewBox="0 0 610 515" enable-background="new 0 0 610 515" xml:space="preserve">
<path fill="#FFFFFF" d="M17.2,13c-3.5,1.3-5.7,3.8-6.6,7.4c0-2.4,0-4.9,0-7.4C12.8,13,15,13,17.2,13z"/>
<g>
	<path fill="#333333" d="M590.5,413H26.1c-6.6,0-12-5.4-12-12V25c0-6.6,5.4-12,12-12h564.4c6.6,0,12,5.4,12,12v376
		C602.5,407.6,597.1,413,590.5,413z"/>
	<rect x="38" y="36.9" fill="#FFFFFF" width="540.8" height="296"/>
	<circle fill="#E6E6E6" cx="308.3" cy="371" r="15"/>
	<path fill="#E6E6E6" d="M399.9,502.8l-183.1,0c0,0,0.4-2.8,3-4.7c4.6-2.6,9.2-5.1,13.7-7.9c3.8-2.4,5.8-6,6.3-10.5
		c0.5-4.4,2.7-19,3.1-21.9c0.4-3.2,0.8-6.3,1.2-9.5c0.3-2.2,0.4-4.5,0.7-6.8c0.4-3.9,0.8-7.9,1.2-11.8c0.3-2.7,0.4-5.4,0.6-8.2
		c41,0,81.9,0,123,0c0.3,3.7,0.6,7.3,1,10.9c0.5,4.5,1,9,1.5,13.5c0.4,3.3,0.6,6.6,1,9.8c0.4,3.8,2.9,19.8,3.4,24
		c0.5,4.5,2.6,8.1,6.3,10.4c4.5,2.8,9.2,5.3,13.8,7.9C397.8,499,399,500.9,399.9,502.8z"/>
</g>
</svg>
