<?xml version="1.0" encoding="utf-8"?>
<!-- Generator: Adobe Illustrator 18.1.1, SVG Export Plug-In . SVG Version: 6.00 Build 0)  -->
<svg version="1.1" xmlns="http://www.w3.org/2000/svg" xmlns:xlink="http://www.w3.org/1999/xlink" x="0px" y="0px"
	 viewBox="0 0 1209.1 999.1" enable-background="new 0 0 1209.1 999.1" xml:space="preserve">
<g id="Layer_2" display="none">
</g>
<g id="Layer_1">
	<path d="M1160.2,796.2H57.5c-6.6,0-12-5.4-12-12v-742c0-6.6,5.4-12,12-12h1102.8c6.6,0,12,5.4,12,12v742
		C1172.2,790.8,1166.8,796.2,1160.2,796.2z"/>
	<circle fill="#E6E6E6" cx="617.9" cy="715.7" r="28.7"/>
	<rect x="87.8" y="74.8" fill="#2C3E50" width="1041.8" height="568.9"/>
	<g>
		<path fill="#E6E6E6" d="M787.2,968.4l-350.8,0c0,0,0.8-5.3,5.7-8.9c8.7-5.1,17.7-9.7,26.2-15.1c7.2-4.6,11.1-11.4,12.1-20.2
			c0,0,5.2-36.4,5.9-42c0.7-6,1.6-12.1,2.3-18.1c0.5-4.3,0.8-8.6,1.3-13c0.8-7.5,1.6-15.1,2.3-22.6c0.5-5.2,0.8-10.4,1.2-15.8
			c78.6,0,157,0,235.6,0c0.6,7,1.1,14,1.8,21c0.9,8.6,2,17.2,2.9,25.8c0.7,6.3,1.1,12.6,1.9,18.8c0.9,7.2,4,31.8,6.5,46.1
			c2.2,10.1,4.9,15.4,12,19.9c8.6,5.4,17.7,10.1,26.5,15.2C783.2,961,785.6,964.6,787.2,968.4z"/>
	</g>
	<g id="paper_12_">
		<g>
			<path fill="#E6E6E6" d="M771.9,123H427.5c-6.6,0-12.4,5.1-12.4,11.7v388.8v1.4c0,33.1,27.7,60.1,60.9,60.1c20.5,0,20.5,0,0,0h296
				c6.6,0,11.2-5.7,11.2-12.3v-438C783.1,128.1,778.5,123,771.9,123z"/>
			<g>
				<path fill="#C1C1C1" d="M810.6,507l-272.3-0.1c-6.7,0-7.5,3.4-7.5,7c0,0.4,0.6,10.2,0.6,10.9c0,31.4-24,57.3-54.6,60.3
					c0.5,0.1,1.1,0.2,1.6,0.2h293.6c28.8,0,52.4-23.6,52.4-52.4l-0.4-12.1C824.1,511.6,816.6,507,810.6,507z"/>
			</g>
		</g>
	</g>
	<g>
		<path fill="#009245" d="M557.9,206.4h3.5c0.2,0.9,0.4,2,0.6,3.3c0.2,1.3,0.4,2.7,0.5,4.1c0.1,1.5,0.2,2.9,0.3,4.3
			c0.1,1.4,0.1,2.7,0.1,3.9c-2,1.3-4.5,2.1-7.5,2.7c-3,0.5-6.1,0.8-9.2,0.8c-4.8,0-9.1-0.6-12.9-1.8c-3.9-1.2-7.2-3-9.9-5.6
			c-2.7-2.5-4.8-5.8-6.3-9.7c-1.5-3.9-2.2-8.6-2.2-14.1c0-5.4,0.8-10.1,2.4-14s3.8-7.1,6.6-9.7c2.7-2.5,5.9-4.4,9.6-5.5
			c3.6-1.2,7.5-1.8,11.5-1.8c3.8,0,7.2,0.3,10.3,0.8c3.1,0.5,5.6,1.3,7.5,2.2c0,0.9,0,2.1-0.1,3.5s-0.2,2.9-0.4,4.5
			c-0.2,1.6-0.4,3.1-0.7,4.6c-0.3,1.5-0.5,2.8-0.7,3.8h-3.6l-4.7-13c-0.5-0.3-1.3-0.5-2.5-0.7c-1.1-0.2-2.3-0.3-3.5-0.3
			c-2.3,0-4.6,0.5-6.6,1.4c-2.1,0.9-3.9,2.4-5.5,4.5c-1.6,2.1-2.9,4.7-3.8,7.9c-0.9,3.2-1.4,7.1-1.4,11.6c0,8.2,1.6,14.5,4.9,18.9
			c3.3,4.4,7.7,6.6,13.3,6.6c1.6,0,3-0.1,4.1-0.4s1.9-0.6,2.3-1.1L557.9,206.4z"/>
		<path fill="#009245" d="M574.4,164.3h28.2v3.3c-1.2,0.6-2.5,1.2-4,1.6c-1.5,0.4-2.9,0.7-4.3,0.9v48.8h16.6l5.8-15.4h3.5
			c0.2,1.3,0.4,2.9,0.6,4.6c0.2,1.8,0.4,3.6,0.5,5.6c0.1,1.9,0.2,3.9,0.3,5.8c0.1,1.9,0.1,3.5,0,5h-47.1v-3.3
			c1.3-0.7,2.6-1.2,3.7-1.6c1.2-0.4,2.3-0.7,3.3-0.9v-48.6c-2.8-0.5-5.2-1.3-7-2.5V164.3z"/>
		<path fill="#009245" d="M650.8,224.4h-21.2v-3.3c0.9-0.6,1.9-1.1,3-1.5c1.1-0.4,2.1-0.8,3.1-1l22.2-55.4h6.4l21.6,55.4
			c1.1,0.2,2.3,0.6,3.4,1c1.1,0.4,2.1,0.9,3,1.5v3.3h-26.9v-3.3c1.1-0.5,2.3-1,3.5-1.5c1.3-0.5,2.5-0.8,3.6-1l-5-13.7h-19.1
			l-5.1,13.7c2.6,0.3,5.1,1.2,7.5,2.5V224.4z M650.4,199.4h15.2L660,183l-1.6-7.4h-0.2l-1.9,7.6L650.4,199.4z"/>
	</g>
	<path id="line5_14_" fill="#C1C1C1" d="M658,377.3H522.2c-1.4,0-2.5-1.1-2.5-2.5v-4c0-1.4,1.1-2.5,2.5-2.5H658
		c1.4,0,2.5,1.1,2.5,2.5v4C660.4,376.2,659.3,377.3,658,377.3z"/>
	<path id="line4_14_" fill="#C1C1C1" d="M646.8,350.6H522.2c-1.4,0-2.5-1.1-2.5-2.5v-4c0-1.4,1.1-2.5,2.5-2.5h124.6
		c1.4,0,2.5,1.1,2.5,2.5v4C649.2,349.5,648.1,350.6,646.8,350.6z"/>
	<path id="line3_10_" fill="#C1C1C1" d="M673.5,323.9H522.2c-1.4,0-2.5-1.1-2.5-2.5v-4c0-1.4,1.1-2.5,2.5-2.5h151.3
		c1.4,0,2.5,1.1,2.5,2.5v4C676,322.8,674.9,323.9,673.5,323.9z"/>
	<path id="line2_14_" fill="#C1C1C1" d="M658,297.2H522.2c-1.4,0-2.5-1.1-2.5-2.5v-4c0-1.4,1.1-2.5,2.5-2.5H658
		c1.4,0,2.5,1.1,2.5,2.5v4C660.4,296.1,659.3,297.2,658,297.2z"/>
	<path id="line1_10_" fill="#C1C1C1" d="M690.4,270.5H522.2c-1.4,0-2.5-1.1-2.5-2.5v-4c0-1.4,1.1-2.5,2.5-2.5h168.2
		c1.4,0,2.5,1.1,2.5,2.5v4C692.8,269.4,691.7,270.5,690.4,270.5z"/>
	<g id="siegel_29_">
		<circle id="siegel_32_" fill="#C1C1C1" cx="474.5" cy="455.3" r="21"/>
		<g id="siegel_30_">
			<g>
				<g>
					<path fill="#39B54A" d="M507.7,465.7c2.6-1.5,3.3-5,1.5-7.4v0c-1.4-1.8-1.4-4.3,0-6.1c1.8-2.4,1.1-5.9-1.5-7.4
						c-1.9-1.1-2.9-3.4-2.3-5.6c0.8-2.9-1.2-5.8-4.2-6.3c-2.2-0.3-4-2.1-4.3-4.3c-0.4-3-3.3-4.9-6.3-4.2h0c-2.2,0.6-4.5-0.4-5.6-2.3
						c-1.5-2.6-5-3.3-7.4-1.5c-1.8,1.4-4.3,1.4-6.1,0h0c-2.4-1.8-5.9-1.1-7.4,1.5c-1.1,1.9-3.4,2.9-5.6,2.3
						c-2.9-0.8-5.8,1.2-6.3,4.2c-0.3,2.2-2.1,4-4.3,4.3c-3,0.4-4.9,3.3-4.2,6.3c0.6,2.2-0.4,4.5-2.3,5.6c-2.6,1.5-3.3,5-1.5,7.4
						c1.4,1.8,1.4,4.3,0,6.1v0c-1.8,2.4-1.1,5.9,1.5,7.4c1.9,1.1,2.9,3.4,2.3,5.6c-0.8,2.9,1.2,5.8,4.2,6.3c1.9,0.3,3.4,1.5,4,3.2
						l-10.1,28l13.6-2.6l8.6,10.5l10.1-27.9c0.2,0,0.4,0,0.6,0l13.1,27.9l7.8-11.4l13.5,1.4L497.1,481c0.6-1.8,2.2-3.2,4.1-3.5
						c3-0.4,4.9-3.3,4.2-6.3C504.8,469.1,505.7,466.8,507.7,465.7z M474.6,480.3c-13.8,0-25-11.2-25-25s11.2-25,25-25s25,11.2,25,25
						S488.4,480.3,474.6,480.3z"/>
				</g>
			</g>
			<circle id="siegel_31_" fill="#C1C1C1" cx="474.6" cy="455.3" r="21"/>
		</g>
		<path fill="#009245" d="M453,478.1l-6.7,18.6c8.9-4,26.4-4,26.4-4l1.5-4l0.6,0.2l1.9,3.9c0,0,20.6,0.2,27.8,4l-8-17.2l-23.5,3.8
			L453,478.1z"/>
		<g>
			<g>
				<path fill="#39B54A" d="M441.4,444.9c-2.6,1.5-3.3,5-1.5,7.4v0c1.4,1.8,1.4,4.3,0,6.1c-1.8,2.4-1.1,5.9,1.5,7.4
					c1.9,1.1,2.9,3.4,2.3,5.6c-0.8,2.9,1.2,5.8,4.2,6.3c2.2,0.3,4,2.1,4.3,4.3c0.4,3,3.3,4.9,6.3,4.2h0c2.2-0.6,4.5,0.4,5.6,2.3
					c1.5,2.6,5,3.3,7.4,1.5c1.8-1.4,4.3-1.4,6.1,0h0c2.4,1.8,5.9,1.1,7.4-1.5c1.1-1.9,3.4-2.9,5.6-2.3c2.9,0.8,5.8-1.2,6.3-4.2
					c0.3-2.2,2.1-4,4.3-4.3c3-0.4,4.9-3.3,4.2-6.3c-0.6-2.2,0.4-4.5,2.3-5.6c2.6-1.5,3.3-5,1.5-7.4c-1.4-1.8-1.4-4.3,0-6.1v0
					c1.8-2.4,1.1-5.9-1.5-7.4c-1.9-1.1-2.9-3.4-2.3-5.6c0.8-2.9-1.2-5.8-4.2-6.3c-1.9-0.3-3.4-1.5-4-3.2l-45-0.2
					c-0.6,1.8-2.2,3.2-4.1,3.5c-3,0.4-4.9,3.3-4.2,6.3C444.3,441.5,443.4,443.8,441.4,444.9z M474.5,430.3c13.8,0,25,11.2,25,25
					c0,13.8-11.2,25-25,25s-25-11.2-25-25C449.5,441.5,460.7,430.3,474.5,430.3z"/>
			</g>
		</g>
	</g>
	<g>
		<polygon opacity="0.12" fill="#FFFFFF" points="87.8,643.7 87.8,74.8 570.8,74.8 		"/>
	</g>
	<path fill="#C1C1C1" d="M787.1,968.2l-350.8,0c0,0,0.8-5.3,5.7-8.9c8.7-5.1,17.7-9.7,26.2-15.1c5.6-3.7,6-5.3,7.4-7h271.2
		c0,0,2.2,3.6,7.3,7c8.6,5.4,17.7,10.1,26.5,15.2C783.1,960.8,785.5,964.4,787.1,968.2z"/>
</g>
</svg>
