<?xml version="1.0" encoding="utf-8"?>
<!-- Generator: Adobe Illustrator 18.1.1, SVG Export Plug-In . SVG Version: 6.00 Build 0)  -->
<svg version="1.1" id="Layer_1" xmlns="http://www.w3.org/2000/svg" xmlns:xlink="http://www.w3.org/1999/xlink" x="0px" y="0px"
	 viewBox="0 0 500.7 502" enable-background="new 0 0 500.7 502" xml:space="preserve">
<g id="paper" display="none">
	<g display="inline">
		<path fill="#E6E6E6" d="M392,28H47.5c-6.6,0-12,5.4-12,12v388.8v1.4c0,33.1,27.3,59.8,60.5,59.8c20.5,0,20.5,0,0,0h296
			c6.6,0,11.5-5.4,11.5-12V40C403.5,33.4,398.6,28,392,28z"/>
		<g>
			<path fill="#C1C1C1" d="M424.6,411.8l-272.3-0.1c-6.7,0-7.5,3.4-7.5,7c0,0.4,0.6,10.2,0.6,10.9c0,31.4-24,57.3-54.6,60.3
				c0.5,0.1,1.1,0.2,1.6,0.2h293.6c28.8,0,52.4-23.6,52.4-52.4l-0.4-12.1C438.1,416.3,430.6,411.8,424.6,411.8z"/>
		</g>
	</g>
</g>
<text transform="matrix(1 0 0 1 134.5203 129.7228)" display="none"><tspan x="0" y="0" display="inline" fill="#E74C3C" font-family="'PTSerif-Bold'" font-size="85.8661" letter-spacing="5">C</tspan><tspan x="61.1" y="0" display="inline" fill="#E74C3C" font-family="'PTSerif-Bold'" font-size="85.8661" letter-spacing="6">L</tspan><tspan x="118.1" y="0" display="inline" fill="#E74C3C" font-family="'PTSerif-Bold'" font-size="85.8661">A</tspan></text>
<path id="line5" display="none" fill="#C1C1C1" d="M281,282.6H145.2c-1.4,0-2.5-1.1-2.5-2.5v-4c0-1.4,1.1-2.5,2.5-2.5H281
	c1.4,0,2.5,1.1,2.5,2.5v4C283.5,281.5,282.4,282.6,281,282.6z"/>
<path id="line4" display="none" fill="#C1C1C1" d="M269.8,255.9H145.2c-1.4,0-2.5-1.1-2.5-2.5v-4c0-1.4,1.1-2.5,2.5-2.5h124.6
	c1.4,0,2.5,1.1,2.5,2.5v4C272.3,254.8,271.2,255.9,269.8,255.9z"/>
<path id="line3" display="none" fill="#C1C1C1" d="M296.5,229.2H145.2c-1.4,0-2.5-1.1-2.5-2.5v-4c0-1.4,1.1-2.5,2.5-2.5h151.3
	c1.4,0,2.5,1.1,2.5,2.5v4C299,228.1,297.9,229.2,296.5,229.2z"/>
<path id="line2" display="none" fill="#C1C1C1" d="M281,202.5H145.2c-1.4,0-2.5-1.1-2.5-2.5v-4c0-1.4,1.1-2.5,2.5-2.5H281
	c1.4,0,2.5,1.1,2.5,2.5v4C283.5,201.4,282.4,202.5,281,202.5z"/>
<path id="line1" display="none" fill="#C1C1C1" d="M313.4,175.8H145.2c-1.4,0-2.5-1.1-2.5-2.5v-4c0-1.4,1.1-2.5,2.5-2.5h168.2
	c1.4,0,2.5,1.1,2.5,2.5v4C315.9,174.7,314.8,175.8,313.4,175.8z"/>
<path id="sign_3_" display="none" fill="#727272" d="M276.8,392.6c-2.5,0-4.6-0.7-6.2-2c-3.6-2.9-4.1-9.1-4.7-16.3
	c-0.2-3-0.6-7.7-1.3-9.6c-1.4,0.6-4.1,2.6-6.3,4.2c-2.4,1.7-5,3.7-8.3,5.7c-1,0.6-1.9,1.2-2.8,1.8c-9,5.9-14.5,9.4-19.7,7.2
	c-10.6-4.5-10-22.5-9.5-40c0.2-7.6,0.7-21.6-1.6-23.5c0,0,0,0,0,0c-1.3,0-4.7,1.9-13.7,13.7c-9.8,13-15.9,29-17.5,46.4
	c-0.2,2.2-2.1,3.8-4.4,3.6c-2.2-0.2-3.8-2.2-3.6-4.4c1.7-18.9,8.3-36.4,19.1-50.5c7.4-9.8,15.3-19.1,22.8-16.5
	c7.8,2.7,7.4,15.3,6.9,31.3c-0.4,11.9-0.9,30,4.6,32.4c1.6,0.4,7.5-3.5,12.2-6.5c0.9-0.6,1.8-1.2,2.8-1.8c3.1-2,5.6-3.8,7.9-5.5
	c6.1-4.4,11-7.9,15.6-4.6c3.7,2.6,4.2,8.8,4.7,15.8c0.3,3.5,0.8,9.4,1.8,10.8c0.3,0.2,2.7,1.2,10.7-3c2-1,4.4-0.2,5.4,1.7
	c1,2,0.2,4.4-1.7,5.4C284.7,391.2,280.4,392.6,276.8,392.6z"/>
<g id="siegel_11_" display="none">
	<circle id="siegel_12_" display="inline" fill="#C1C1C1" cx="94.5" cy="350.6" r="21"/>
	<g id="siegel_9_" display="inline">
		<g>
			<g>
				<path fill="#E74C3C" d="M127.7,361c2.6-1.5,3.3-5,1.5-7.4v0c-1.4-1.8-1.4-4.3,0-6.1c1.8-2.4,1.1-5.9-1.5-7.4
					c-1.9-1.1-2.9-3.4-2.3-5.6c0.8-2.9-1.2-5.8-4.2-6.3c-2.2-0.3-4-2.1-4.3-4.3c-0.4-3-3.3-4.9-6.3-4.2h0c-2.2,0.6-4.5-0.4-5.6-2.3
					c-1.5-2.6-5-3.3-7.4-1.5c-1.8,1.4-4.3,1.4-6.1,0h0c-2.4-1.8-5.9-1.1-7.4,1.5c-1.1,1.9-3.4,2.9-5.6,2.3c-2.9-0.8-5.8,1.2-6.3,4.2
					c-0.3,2.2-2.1,4-4.3,4.3c-3,0.4-4.9,3.3-4.2,6.3c0.6,2.2-0.4,4.5-2.3,5.6c-2.6,1.5-3.3,5-1.5,7.4c1.4,1.8,1.4,4.3,0,6.1v0
					c-1.8,2.4-1.1,5.9,1.5,7.4c1.9,1.1,2.9,3.4,2.3,5.6c-0.8,2.9,1.2,5.8,4.2,6.3c1.9,0.3,3.4,1.5,4,3.2l-10.1,28l13.6-2.6l8.6,10.5
					l10.1-27.9c0.2,0,0.4,0,0.6,0l13.1,27.9l7.8-11.4l13.5,1.4l-12.1-25.6c0.6-1.8,2.2-3.2,4.1-3.5c3-0.4,4.9-3.3,4.2-6.3
					C124.8,364.4,125.8,362.1,127.7,361z M94.6,375.6c-13.8,0-25-11.2-25-25c0-13.8,11.2-25,25-25s25,11.2,25,25
					C119.6,364.4,108.4,375.6,94.6,375.6z"/>
			</g>
		</g>
		<circle id="siegel_10_" fill="#C1C1C1" cx="94.6" cy="350.6" r="21"/>
	</g>
	<path display="inline" fill="#D32F2F" d="M73,373.4L66.3,392c8.9-4,26.4-4,26.4-4l1.5-4l0.6,0.2l1.9,3.9c0,0,20.6,0.2,27.8,4
		l-8-17.2l-23.5,3.8L73,373.4z"/>
	<g display="inline">
		<g>
			<path fill="#E74C3C" d="M61.5,340.2c-2.6,1.5-3.3,5-1.5,7.4v0c1.4,1.8,1.4,4.3,0,6.1c-1.8,2.4-1.1,5.9,1.5,7.4
				c1.9,1.1,2.9,3.4,2.3,5.6c-0.8,2.9,1.2,5.8,4.2,6.3c2.2,0.3,4,2.1,4.3,4.3c0.4,3,3.3,4.9,6.3,4.2h0c2.2-0.6,4.5,0.4,5.6,2.3
				c1.5,2.6,5,3.3,7.4,1.5c1.8-1.4,4.3-1.4,6.1,0h0c2.4,1.8,5.9,1.1,7.4-1.5c1.1-1.9,3.4-2.9,5.6-2.3c2.9,0.8,5.8-1.2,6.3-4.2
				c0.3-2.2,2.1-4,4.3-4.3c3-0.4,4.9-3.3,4.2-6.3c-0.6-2.2,0.4-4.5,2.3-5.6c2.6-1.5,3.3-5,1.5-7.4c-1.4-1.8-1.4-4.3,0-6.1v0
				c1.8-2.4,1.1-5.9-1.5-7.4c-1.9-1.1-2.9-3.4-2.3-5.6c0.8-2.9-1.2-5.8-4.2-6.3c-1.9-0.3-3.4-1.5-4-3.2l-45-0.2
				c-0.6,1.8-2.2,3.2-4.1,3.5c-3,0.4-4.9,3.3-4.2,6.3C64.3,336.8,63.4,339.1,61.5,340.2z M94.5,325.6c13.8,0,25,11.2,25,25
				c0,13.8-11.2,25-25,25s-25-11.2-25-25C69.5,336.8,80.7,325.6,94.5,325.6z"/>
		</g>
	</g>
</g>
<path id="shadow" display="none" fill="#C1C1C1" d="M304.8,376.7c0,0,56.7-27,98.7,13.3V242.7L304.8,376.7z"/>
<g id="pen">
	<g id="pen_3_">
		<path fill="#727272" d="M313.2,337.4c-2.7,3.9-10.6,36-10.6,36c-0.4,1.5,0.3,2.3,0.9,2.8l0,0c0,0,0,0,0,0c0,0,0,0,0,0l0,0
			c0.6,0.4,1.6,1,3,0.1c0,0,29.1-16.2,32.1-19.9l9.5-12.1l-25.2-19.6L313.2,337.4z"/>
		<g>
			<path fill="#727272" d="M460.8,205.8l11.7-15.2c10.1-13.1,10.5-22.9-0.9-31.7c-10.3-8-21.9-4.6-32.3,8.8L325.9,314.9l31.6,24.4
				l93.7-121.2l10.2,7.9L431,265.2c-1.3,1.7-1.8,3.8-1.6,5.7c0.3,2,1.3,3.8,3,5.1c3.4,2.6,8.3,2,11-1.5l43.8-56.9
				c2.7-3.5,2-8.4-1.6-11c-3.5-2.5-8.3-1.6-10.9,1.7l-3.9,5L460.8,205.8z"/>
		</g>
	</g>
	<path fill="#878787" d="M331.3,318.9l115.5-148.1c2.6-3.3,7-4.3,9.7-2.2v0c2.7,2.1,2.9,6.6,0.3,10L341.3,326.7L331.3,318.9z"/>
</g>
</svg>
